/* XPM */
static char *result[] = {
/* columns rows colors chars-per-pixel */
"44 44 7 1 ",
"  c black",
". c #45252C",
"X c #773F4B",
"o c DimGray",
"O c gray52",
"+ c white",
"@ c None",
/* pixels */
"@@@@@@@@@@@@@@@@@@@@@@@@@@@@@@@@@@@@@@@@@@@@",
"@@@@@@@@@@@@@@@@@@@@@@@@@@@@@@@@@@@@@@@@@@@@",
"@@@@@@@@@@@@@@@@@@@@@@@@@@@@@@@@@@@@@@@@@@@@",
"@@@@@@@@@@@@@@@@@   @@@@@@@@@@@@@@@@@@@@@@@@",
"@@@@@@@@@@@@@@@@ ++ @@ @@@@@@@@@@@@@@@@@@@@@",
"@@@@@@@@@@@@@@@ ++ @@   @@@@@@@@@@@@@@@@@@@@",
"@@@@@@@@@@@@@@ ++ @@ ++ @@@@@@@@@@@@@@@@@@@@",
"@@@@@@@@@@@@@ +++ @@ ++ @@@@@@@@@@@@@@@@@@@@",
"@@@@@@@@@@@@ +++ @@ +++ @@@@@@@@@@@@@@@@@@@@",
"@@@@@@@@@@@ ++++ @ +++ @@@@@@@@@@@@@@@@@@@@@",
"@@@@@@@@@@ ++++ @ ++++ @@@@@@@@@@@@@@@@@@@@@",
"@@@@@@@@@ +++++ @ ++++ @@@@@@@@@@@@@@@@@@@@@",
"@@@@@@@@@ ++++ @ ++++ @@@@@@@@@@@@@@@@@@@@@@",
"@@@@@@@@ +++++  +++++ @@@@@@@@@@@@@@@@@@@@@@",
"@@@@@@@ +++++  ++++++ @@@@@@@@@@@@@@@@@@@@@@",
"@@@@@@@ +++++ ++++++ @@@@@@@@@@@@@@@@@@@@@@@",
"@@@@@@ +++++  ++++++ @@@@@@@@@@@@@@@@@@@@@@@",
"@@@@@@ ++++  ++++++ @@@@@@@@@@@@@@@@@@@@@@@@",
"@@@@@ ++++  +++++++ @@@@@@@@@@@@@@@@@@@    @",
"@@@@@ ++++++++++++ @@@@@@@@@@@@@@@@@@@@ Oo @",
"@@@@ ++++++++++++  @@@@@@@@@@@@@@@@@@@ ooo @",
"@@@@ ++++++++++++ @@   @     @@@@@@@  o    @",
"@@@@ +++++++++++ @@ .XX .XXXX @@@@  oo @@@@@",
"@@@ +++++++++++    .X  .XXXXX @@  oo  @@@@@@",
"@@@ +++++++++++  ..  ..XXX    @ oo  @@@@@@@@",
"@@@ ++++++++++ XX  ..X    .... o  @@@@@@@@@@",
"@@@  +++   ++ XXX..   ....XXXX  @@@@@@@@@@@@",
"@@@   ++   + XXXX  ...XXXXXXXX @@@@@@@@@@@@@",
"@@@@  +   + XXXXX..XXXXXXXXXXX @@@@@@@@@@@@@",
"@@@@ +++++ XX X   XXXXXXXXXXXX @@@@@@@@@@@@@",
"@@@@@ +++    . ...         XXXX @@@@@@@@@@@@",
"@@@@@@    @@@ . XX.........     @@@@@@@@@@@@",
"@@@@@@@@@@@@@@ .   XXXXXXXX.... @@@@@@@@@@@@",
"@@@@@@@@@@@@@   ...       .... @@@@@@@@@@@@@",
"@@@@@@@@@@@@ oo          @    @@@@@@@@@@@@@@",
"@@@@@@@@@@@ o  @@@@     @@@@@@@@@@@@@@@@@@@@",
"@@@@@@@@@@ o @@@@@@    @@@@@@@@@@@@@@@@@@@@@",
"@@@@@@@@  o @@@@@@      @@@@@@@@@@@@@@@@@@@@",
"@@@@@@  oo @@@@@        @@@@@@@@@@@@@@@@@@@@",
"@@@@@ oo  @@@@@@   @@    @@@@@@@@@@@@@@@@@@@",
"@@@     @@@@@@@   @@@@@   @@@@@@@@@@@@@@@@@@",
"@@   @@@@@@@@@@  @@@@@@@   @@@@@@@@@@@@@@@@@",
"@@@@@@@@@@@@@@@@@@@@@@@@@  @@@@@@@@@@@@@@@@@",
"@@@@@@@@@@@@@@@@@@@@@@@@@@@@@@@@@@@@@@@@@@@@"
};
