/* XPM */
static char *result[] = {
/* columns rows colors chars-per-pixel */
"44 44 7 1 ",
"  c black",
". c #45252C",
"X c #773F4B",
"o c DimGray",
"O c gray52",
"+ c white",
"@ c None",
/* pixels */
"@@@@@@@@@@@@@@@@@@@@@@@@@@@@@@@@@@@@@@@@@@@@",
"@@@@@@@@@@@@@@@@@@@@@@@@@@@@@@@@@@@@@@@@@@@@",
"@@@@@@@@@@@@@@@@@   @@@@@@@@@@@@@@@@@@@@@@@@",
"@@@@@@@@@@@@@@@@ ++ @@ @@@@@@@@@@@@@@@@@@@@@",
"@@@@@@@@@@@@@@@ ++ @@   @@@@@@@@@@@@@@@@@@@@",
"@@@@@@@@@@@@@@ ++ @@ ++ @@@@@@@@@@@@@@@@@@@@",
"@@@@@@@@@@@@@ +++ @@ ++ @@@@@@@@@@@@@@@@@@@@",
"@@@@@@@@@@@@ +++ @@ +++ @@@@@@@@@@@@@@@@@@@@",
"@@@@@@@@@@@ ++++ @ +++ @@@@@@@@@@@@@@@@@@@@@",
"@@@@@@@@@@ ++++ @ ++++ @@@@@@@@@@@@@@@@@@@@@",
"@@@@@@@@@ +++++ @ ++++ @@@@@@@@@@@@@@@@@@@@@",
"@@@@@@@@@ ++++ @ ++++ @@@@@@@@@@@@@@@@@@@@@@",
"@@@@@@@@ +++++  +++++ @@@@@@@@@@@@@@@@@@@@@@",
"@@@@@@@ +++++  ++++++ @@@@@@@@@@@@@@@@@@@@@@",
"@@@@@@@ +++++ ++++++ @@@@@@@@@@@@@@@@@@@@@@@",
"@@@@@@ +++++  ++++++ @@@@@@@@@@@@@@@@@@@@@@@",
"@@@@@@ ++++  ++++++ @@@@@@@@@@@@@@@@@@@@@@@@",
"@@@@@ ++++  +++++++ @@@@@@@@@@@@@@@@@@@@@@@@",
"@@@@@ ++++++++++++ @@@  @@ @@@@@@@@@@@@    @",
"@@@@ ++++++++++++  @@ ..  X @@@@@@@@@@@ Oo @",
"@@@@ ++++++++++++ @@@ .X .XX @@@@@@@@@ ooo @",
"@@@@ +++++++++++ @@@ .XX .XX @@@@@@@  o    @",
"@@@ +++++++++++  @@ .XX .XXXX @@@@  oo @@@@@",
"@@@ +++++++++++ @  .X  .XXXXX @@  oo  @@@@@@",
"@@@ ++++++++++   ..  ..XXX    @ oo  @@@@@@@@",
"@@@  +++   ++ XXX  ..X    .... o  @@@@@@@@@@",
"@@@   ++   + XXXX..   ....XXXX  @@@@@@@@@@@@",
"@@@@  +   + XXXXX  ...XXXXXXXX @@@@@@@@@@@@@",
"@@@@ +++++ XXXXXX..XXXXXXXXXXX @@@@@@@@@@@@@",
"@@@@@ +++ XXX X   XXXXXXXXXXX @@@@@@@@@@@@@@",
"@@@@@@       . ...           @@@@@@@@@@@@@@@",
"@@@@@@@@@@@@@ . XX......... @@@@@@@@@@@@@@@@",
"@@@@@@@@@@@@@@ .   XXXXXXX  @@@@@@@@@@@@@@@@",
"@@@@@@@@@@@@@   ...          @@@@@@@@@@@@@@@",
"@@@@@@@@@@@@ oo         @@    @@@@@@@@@@@@@@",
"@@@@@@@@@@@ o  @@    @@@@@@@        @@@@@@@@",
"@@@@@@@@@@ o @@@@   @@@@@@@@@@       @@@@@@@",
"@@@@@@@@  o @@@@@   @@@@@@@@@@@@@@@@@@@@@@@@",
"@@@@@@  oo @@@@@@  @@@@@@@@@@@@@@@@@@@@@@@@@",
"@@@@@ oo  @@@@@@   @@@@@@@@@@@@@@@@@@@@@@@@@",
"@@@     @@@@@@@@  @@@@@@@@@@@@@@@@@@@@@@@@@@",
"@@   @@@@@@@@@@   @@@@@@@@@@@@@@@@@@@@@@@@@@",
"@@@@@@@@@@@@@@@  @@@@@@@@@@@@@@@@@@@@@@@@@@@",
"@@@@@@@@@@@@@@@@@@@@@@@@@@@@@@@@@@@@@@@@@@@@"
};
