/* XPM */
static char *collectible1751461598[] = {
/* columns rows colors chars-per-pixel */
"100 100 68 1 ",
"  c black",
". c #051327",
"X c #061327",
"o c #061427",
"O c #081327",
"+ c #081427",
"@ c #051328",
"# c #061428",
"$ c #05142A",
"% c #05142B",
"& c #07172B",
"* c #07172C",
"= c #081328",
"- c #081428",
"; c #08132C",
": c #08172C",
"> c #07182F",
", c #071A2F",
"< c #08192F",
"1 c #081730",
"2 c #071831",
"3 c #071B32",
"4 c #061A33",
"5 c #061A34",
"6 c #071A35",
"7 c #081A30",
"8 c #091A30",
"9 c #081C33",
"0 c #091B34",
"q c #081E36",
"w c #0A1D3B",
"e c #091E3A",
"r c #0A1F3C",
"t c #091E3E",
"y c #091F3F",
"u c #07203F",
"i c #082038",
"p c #092038",
"a c #08213F",
"s c #072040",
"d c #092040",
"f c #092140",
"g c #0A2140",
"h c #092341",
"j c #092042",
"k c #082342",
"l c #0A2145",
"z c #092245",
"x c #092644",
"c c #082446",
"v c #082547",
"b c #092746",
"n c #082448",
"m c #082548",
"M c #092449",
"N c #0A2449",
"B c #082748",
"V c #0A244B",
"C c #09274B",
"Z c #08274D",
"A c #0A264D",
"S c #0A274D",
"D c #082848",
"F c #08284B",
"G c #09284C",
"H c #0A284C",
"J c #DAE0E0",
"K c #F7FEFE",
/* pixels */
"-#--#--#-#-#----#--#-#--#-#-##--#--#--#-#--#-#--#-#-#-#--#oo+o++o-#o++#-#--#+--#:-+o7>&##6>o###-:=@@",
"##################################o>##4<oo#*############o<o9<>#ooo#<*#######oo*###4<>oo9##oo##-==@@@",
"######oo#<X####*##o>##########o>#&o#<<oo#<##############o>>&#o##o>>##########>>#f49qFvfp9mf#7<+O@;--",
"#######<##oo#*###&oo##########o#>>oh4#ma#9<f##:######o>>>v9FFu>9<<>ff#**#####oa##-mma++Fa+o@ooOO#-##",
"--##-->#-f##7:#f>-<a#+>#--oo*:#f#f:-Fao+#f##-###--#####f-mmfo+o-#fs-#-##--#--f#oAmAfAAmGfAAmf6:=##-#",
"oooXooosoo##oaoXofooooo#oooXoao#aooFaaAAma7Aouo&XXoooou#GmyAAAFffs#GAaf###oooo#AAAoAAAAAAAAAmf=--#-#",
"XXX@X#s##G#ss*#AfsXAou##oXXXs##AXaAAAAAAAFAAAos#XXXX@###AAAAAAAvu&AAAAyu###XX#AAAAAAAAAAAAAAAA@-:#-#",
"######mmAAAsFfAAAmAAF4f>##4q4bAAAAAAAAAAAAAAAAf9*####mmAAAAAAAAAFAAAAAAf###mmmmAAAbAAAFAAAAAXo@#-#-#",
"#####mvAAAAAGAAAAAAAAAs####mGAGAAAAAZAAAZFAAA###oo##mGzAAAAAAAAGZZAAAAs4*#mmZFGAFFAFAGAGAAAAAA*f-:-#",
"#@--oo>AAAAAAGAAAAAAAFf4*#mAfAAGAAGFAGAZGZAAAAms>>##ofAGAFAAAAGAZAAAGZAf#o##AAAGAAAGAGAGFZAAAAA@f#-#",
"#@=#osFAAAAAAAAAAGAAAAmf###sAAAAAAAAGAZAAAAAAAAmf###oAAZGAFGAAAAAZFAAAGf###AAAAAAAGAGAGFGGZGAAAAf#-#",
"##o-o44AGAAGZZAAAAGAAAAs###AAAAAAAAGAZGAGGAGAGAAs#oo>4AGAGAGZGAGZAAGGAAf##44GAAGGGAGAGAAAAAAAAA=##-#",
"##@-mmmmFAGAZGAGGAGAAms###4>FGAGGAAGAGAGAGAAAAm####mmyvAAZFAFZAFGAAAm6*##mFvvAGAAGAFAFAFAZAA4m@*-#-#",
"##@-##mFAFAGZZGAAAAAA4>##mvuuAGAAGFAZAGAGAAAAA4>####XFmFFFAZAZZZGFAAf#####XvFGAGZAGAZAFAZZFFff@@-#-#",
"##=-####44mZZAAGGGGAf######FFFFFFGZZFGFZAFAZAs########o44FFFmFmFmmGmGAmf##@##9<FGAZZFZZZGAFZAm#ff#-#",
"##=#############44mmGGmf#oooo4>FAmmFZmmFFmFAFmGZs####oo##o####################o##############@##-#-#",
"##O=#oo#ooo#############oo#############ooooooooo#oo#######oo#<4<4<#&<9oooooo#####oooo>>>&4#4:0@;-#-#",
"##@1944:>##########o####oo#############o9#9>9>>>4>>>oo####o4749><&5<o>><4>&>#o###oo49>>4&<&9*:@@-#-#",
"##:7><-####o#######o>>9&9&&,95&#######4&>>94&>4>9&ooXo####7q5vFbFbmmFD599<oooo####49pFAmvFvFnA%%:#-#",
"#*:fFmvvf>><######4>9&4&&>9,##oo##ooo44qDkDDDDFFFmFh4:4####mFvDDaaFG9DvFFFah6#>###XvDbfNavsAsy%*-#-#",
"#@ffvsf#########o4qeDFvhGmhZFFs44&####msDFmmsmmmvu########mAvFAFZZZGGAGFuf########mmmSSSFFAGAA*y-*-#",
"#f#zAGGAGsm#>###o#mmvaFsfmmmu#o#oo###mfmFFAGAGGZGmAAmf*4##@#AAAAAAAZAGAGGGAAvf#>##o#SSSSAAAAAAA@f#-#",
"###AAAAAAAfsoo###mmmASFFGAAGmAAmf4<o###AAAAAAAAAGAAAAmf####ASSAAAAAAAAAAAAAAAuf##o#ASSAAAAAAAAAAs#-#",
"##AAAAAGAAGf#o####oAASSGAAAAAAAAFfoo##AAAAAAAAAAAAAAAAf###77GSFAZZGAAAAAAAAAAAs##o>4GAGAGAGAAAA@-#-#",
"#*XAAAAAAAo######oAAAGAGSSSSAAAAmf###>oGGAGAGAGAGAAAAo###mFvvmAGAFAAZZGAAAAAGo###mmvfAGAAGAAGA*4-###",
"f#XzAAAAA>*######4<AGAGASSSSAAAA####AumFAGAGAGAFAAAA><#####mvAGAGGFGZZAAAAAA#>####oFmAAGFGFAZA*$-###",
"##amAGGmf#######mmvfZZAGAASSAAA9:#####mGFAGmAAFAAZAao########46FGZFGZAZAGAmf########o46FFmGmZZ>sf#-#",
"###fGmGGGmms######mmZZGFAAASAAao######X#67mFFZZZAGvFFFf########oooo##74mGFFmFFf#####oooo#o#####X-#-#",
"-#@-##########oo####4>FbZMGZmZFFmfoo################################################o#########@=-#-#",
"--=###########oo####oo##@@###o#o##oo####oo##### #####o########################################@@-#-#",
"--=-###46&>>9>&97>>o#########oo>99,>>74<>o#####  4##oo##################oo##o########o##oo####@;-#-#",
"#-=##76-#4>&&>&>*#oo#########44>>&>9>6#o###### K >>>4>>#4**########o>4#4*6**,>>######>>4474:#:@--#-#",
"#-@#>q7FvaFFmhvFFmf#4*######4p9FDDFFDDvvf6>>oo KJ 4<5#q4-o###oooo#74#9&4&&9<-@####X>49>44>o4oo#@-#-#",
"#-=-#vFfaFvssFfma##oo#######ommmmummDvs###oo# KKJ FfmGvfmhs94&##o49qmFhFhFFfGmf6>><q9bDbAmvf9s#@:#-#",
"##+#mmaFAFAGGGZZAASAf>*#####vmmGGGAGAAAAAmf4> KKJJ FffGfs#######@#Fmamamffvvf@@@oo#FFmFbmf@fo###-#-#",
"##+###AAAAAAAAAAAASmFs########AAAAAAAAAAAAvf KKKJJ FAAAAGGAsf#<#XvvfSGAAGGGFAAAAf4FmvAAFGAAAvA#s-:#-",
"##O-oAAAAAAAAAAAAAAAAs#######GAAAGAAAAAAAAAf KKKJJJ GAGAAAAAff##o##AAAAAAAGAGAAAmfoomAAAAAAAAAm@f-#-",
"##@-44AAGAAGAGGAAAAA#o######>9GAGZZZZAAAAAo KKKKJJJ AAAGAAAAGf###@AAAAAAAAAGAAAAAf#AAAAAAAAAAAAAf-#-",
"##=fmsfZZAGAFAGAAAA><o#####mmmmAAAAZFAAAA4* KKKKJJJJ GAAAAAA####@74GGAGAGAAZAAAA##64GAAAAAAAAAA@--#-",
"##@-#AGAGGZGAZZGAAao#########mmFZAZFAAFAf# KKKKKJJJJ AZGAAA#4###mFfmAGAFAGZAAAA7*mmmmGAGAAAA7A@*--#-",
"##O####44DDAFmFmvmFFmuo#ooooo#o94GAFFbGFAF KKKKKJJJJJ FFGmf#####o#FbGAFGFAFAGAf####mFFFmSHSmaaXX--#-",
"##X:77*<#9o#######o&4>&9&>4<9#oo+######## KKKKKKJJJJJ AFFmFmms#4#9#9qqFbvFFbmmGmms##o>pFFFGmFv*vf-#-",
"##:<>9*4#####oo##>>>#>&>>>4#oooo####o#o&4 KKKKKKJJJJJJ ####oo4<>>>>4>>#<4#oo#########4>4&&04*4$6@=#-",
"#:-zFFfvfm4*9o##>4phGFhDvvvmv44<####o&44 KKKKKKKKJJJJJ ####<9qfFaFvmvFvFvmF&46#o##o>9pvmvFvvmvv#:=#-",
"@@syavav#########smmumfsmGGoXoXX####<4ea KKKKKKKKJJJJJJ 4###aGuvfFsmsAfGv###X##o####fmmmaavFfmv**-#-",
"-f@zFSASFAvm<4##smmAGGAGZZAAAFm44###oam KKKKKKKKKJJJJJJ o##fmfAAZZAGAAAZGGmFv<4o###smmAAGGAFAAAv%:#-",
"##=ASSSmAGAfvo####AAAAGAZZAFAFFvo###amm KKKKKKKKKJJJJJJJ >##oAAAAZFAZAZZAAGGmF#######AAASAAAAAA*y@#-",
"##ASSSSSGAAmF####GAAAAAGZGAAFAmAoo##o# KKKKKKKKKKJJJJJJJ ###AAAAAZAFAFZAGGSGFF######AAAASSFAAAAAz=#-",
"#*@AAAAAAAG#####*4mAAAAAAAAASS-###### KKKKKKKKKKKJJJJJJJJ o*4AAAAAAAAAAAAAAAooo####*7mAAAAAAAAA@;=@-",
"f#=zAAGAAG#6###fmmfGAAGAAGGAm47#####< KKKKKKKKKKKJJJJJJJJ aFavAAAGGAAGAGGAG46#####smAGAAGAGGAAA4*=#-",
"#@amAAAmAm=#####ofFFAAAAAAAAm######fv KKKKKKKKKKKJJJJJJJJJ #fmmAGAAAAAAAAAm=########aFGGAAAAGAA*#-#-",
"##-zGmAFFmmAG###ooo&7fAmmmAGGGFm#### KKKKKKKKKKKKJJJJJJJJJ ##@<7fmFFAAmAmGmAmm#####oXX#>sAAGmmvvf-#-",
"##@-###9>>4&4##9>>9>###o######9#4>9> KKKKKKKKKKKKJJJJJJJJJJ :#######ooX444<4>#o#######4944#>77##@=#-",
"##=##7-4,&>&X>>49#oo###o####4*>4>>9 KKKKKKKKKKKKKJJJJJJJJJJ ########o9>0#>7##ooo####:4-9#>><#4<#:-#-",
"##=-46qbhFFhFhpFFmmh4>>o###699DabFD KKKKKKKKKKKKKJJJJJJJJJJJ 46####o49qmFmvFFf49*##4q7vFhFhbvmv*1=@#",
"##O#omavvavaobFvFs##oooo####vumFbF KKKKKK  KKKKKKJJJJJ  JJJJ ######oommmfFvaoooo#oooFvaFaaavsms*;==#",
"##=#FsmGGGGAAGAGAAAAmf4&###muFAAAA KKKKK     KKKKJJJ     JJJJ f7<oo#mmvGGAGAAAmf4-#mmfAGAGAGAAGs*:-#",
"##@-##AAAGAAAAAAAAAAAAf#####oAAAAAA KKKKK     KKJJJ     JJJJJ mf####o#AAAAAAAAAmf####GAAAAAAAAA6s--#",
"##O##AAAAAAAAAAAAAAAAAs###ooAAAAAAAA  KKK     KKJJJ     JJJJ AAs##o##AAAAAAAAAAAf##oAAAAAAAAAAAmA=-#",
"##X#4:AGAGAAGAGAAAAAA#####o5#AAAAAGAAA KK     KKJJJ     JJJ AG######4<GAGAAAAAGo###44AGAGAFAAAA>z=-#",
"##OfammGAFAAAAmFGGAA>>####msmFFAZZAAAA4 KKK   KKJJJ   JJJJ GA7>o###mvvuAAAAAAA4o##vFfmAGAFAZAAm4z@=@",
"##@-oDmGFAGFAGGGFFAfo#######vFSAZAAGAf#o KKK  KKJJJ  JJJJ Amf####o###FFFGGZZAvoo#oo#mFFAFAAZAAG<A#-#",
"##O74>o4*AmFFFmGhFFFFDf>9#9&##4>GmmFFFFmf  KKKKKJJJJJJJJ FbFbFAsoooo@##46ZGAGmbFf#####44vFFFmmmGf=-#",
"#@:7>soo>###o#>6>>9o>99&>>oo#oo#####o#<4<4: KKKKJJJJJJ  ##<447#44>#4**#oo######><4>&9#9#>#o######@-#",
"##@mGmf69####5q4vFaFFvvFmfmf*6-####o<>>4&>>, KKKJJJJJ 6<4Fo>494#<>7*o###oo###44>>>>&4#>o##oo####@@=#",
"##fffAou######FFammafGvaFf#o#######4qpFvFbFFG KKJJJJ #oFqqFFhbvFFfhmsf>4>###99qvbFbvvvFfu4&>##o4@*-#",
"##=zAAAvF4*#oFvamSGSZZZZFAAAFh4&####mvvvsmbFf#  JJJ oXFXmAfAummshFfs##oo####ommFFhvuGff#o####ooo6*-#",
"##=AAAAAmf####+ASSSSAAAAAAAAAmfo###mFvAAGGGvAAAm JJ #oovGAGGGGGGFFAAAAhf#>##vvmAAGGGAGAAGsh>*oXF*;-#",
"##-zAAAAAs##XXSSSSAGAGAAAAAAAAuo#####AAAAAAAAAAAm  ####AAAAAAAAAAAAAAAAss###@=SSAAAAAAAAAAfs####@0=@",
"#f-zAAAA####o67mASZZGAZAAAAAAo######AAAAAAAAAAAAGf####4#AAAAAAAAAAAAAAAGf###@SSSAAAAAAAAAAAf####6;=@",
"##@mAAA7:###mmaFAAAZAAGGAAAA4*##o#o>4AAGAGAAAAAA#@###mo<7AZZAGAGAGGAAAA###oX77GSAAFAGGAAAAoooo#4@7-#",
"##@zFAfff###o#mFAAGZAAAAGmAfo###ooFvFvGAGAGAAAA4:@###omFAGZZZAFAZAAAAG#>###vAmvSAFAGAAAAm><###mm@*-#",
"##=zDmGFFa#####o>4mFFmFFFmFFmFuoo##oFvFGGGFGGAfo####oo#omFGAAGGGGAFAvao@#####FFmGGAGGmGGf@ooo###6#-#",
"##=#&44>4o>><4<Xo#####o#o4,,>>>>>9>,>o>4ZmAFmFGDmf##oo#>oo>4AAmZAFZFFFFmf#####o46mGGGmmmFAFf##>#@#-@",
"@@-7994o,>9>ooo#######o>49>>,&,,&>#ooo#o######9&#96#>>>4#oo#####oo4>9#>&>4*4oo##########X>>>9&#9##-#",
"-770vFbFFhbvFFs6>>####4q9FmbvbFvFFfFu>9&####*4&>9&>>q9oy#o>#####99>&9#9>#>oo>>########o44<9>99h>@:-#",
"#4ffAmFuvanmy@##oooo###mvvuFvfFvsms#oooo###4e>mvhbFvFFFv>>7##-=79ivvFvFvFFzm4#<o######79qvvFDvvD*4X@",
"#aAfAAAAGFASAAAmh4>###mmmFAAGGAGAAGAAFf4*##omfsmFfmsvvoA#u@:-##-mvFuvummabq:Gfo<*######FvFvGavmvz@:@",
"#m#AAAFAGSSSAAAAFsoo####AAAAAAAAAAAAAAms###mffAGGGAGAAAAGFf7@--mDvAAFGAGGSGAfF#41:#-##mmvAGAAAAA*s-#",
"##GAAAAGGSSSAAAAFf#o###AAAAAAAAAAAAAAAAs#####AAAAAAAAAAAAAF@#@#@oAAAAAAAGSSSAAFz7:-#####AAAAAAAAAz-#",
"#*SSAAAFGZAAAAAAX###oo4<GGGAGAGAAGAAAA######GAAAAAAAAAAAAGF###ooAAAASSSSAASSAAAms@@#o-#AAAAAAAGA01=#",
"s1=SAAGAAZZAAAA>:####mvvfGAGAGAGGAAAA4<###o4#AGAZAGGGAAAA#o####<qZAGSASGAASSAAAAf@##o+74AAASZZAG4X-#",
"m#ymAAFAGGGFGAfo####ooXFAGAGZGGGGAAmf####omfamGmZGGAAAGA77####FvAfGAAASSAASSAAS-#####FvvvGSGAGGAX6-#",
"##mGmqvmGAmFFmAmFf*:>>4>#4>FZZmAFmGFGmGh477#FGAFZZAFAGAF7vf777<<mmAGAmSSAAGmAA7&#####o+HFmGSGAAAvz-#",
"#<o<h#mF#######4<#>>,>############494>9#<#9<oo9>AmGmmFFFFFF<4<#o#o4<mSSmAmGGGFF<7<&<&9<<49<FAGAG60@#",
"##ffmAs94--#-#7q6mvfFbmf77:#####-799bFFFFmmfma-6>o##4q9bFbbbGmFFs49-==@1*@7799vFf7<>,<9&-++-s##4@*=#",
"#f#fA-s#<-#-#-#AafFFbu#--##-XX-#XoFmvvFfvaFa#####+###FvvbvFFmGf#---==;7q7mFvFbvvFvvbbFbFFf9f<-A9f#:#",
"##=AAAGAf7<##-mfaGAAFGAAmz7:+<#-XvvFAGZAGAFSAAmf7<#-mmvFAAAAAAAAAmz7:==zGyFvfmmvfFavNvFa:-O+OAAA6z--",
"##AAAAAAms####@@AGGAAAAAAmf@@######GAAAAAASSAAAmf----:AAAAAGGAAZAAmf--AGfAGGGGFGGGGGGGAAGAFfSAAAAz@@",
"#*#AAAAAAf---#-AAGAAFAAAAAf----#--AAAAGAAAASAAAAf##-:AGAAAAAAAAAAAAf==OXAAAAAAAAAAAAAAAAAASmfSAA0@=@",
"s#ozAAAA-----#7:GAFGAAAAA--------77mGGAGAAGSAAA=#--+7fGAAAAAAGAAAA==--OAAAASAAAFGAAGAGAAAAAAG-AA47-#",
"##amAAA7:--=-AffGGAAAGAAq:------zFAAAAGAFAAAAG7:777FFmFAAAAAGAAZA7077799AAASAAAAAGAAGAAAAGAAfmm960-#",
"==@yzGzf=#-=#=@zvmAAAAmG=<1:7::::7znAAAmSAAmFy:<7=7:<vHSAAAAFAAAg<7:<fywyyzSAAAAGAAAAAAAAAAAAmffff@#",
"@==yzzazfy:7:7:=-AAAAAAAzvf:7::7:**AAAAAAASSAzvvAmzzahvSAAAAAAmzlzfyefaafnnfAAAAAAAAyfAffAAAfayf*1=#",
"=-@@=:--@:=;-=@=<7AAAA-*=7O<1*1;1477AAA:AAS===4@1*1@gm+:SS:7A@:=::1:;-++=yn=@AA*7AA*ffm#==A;1=--@*-#",
"##@*###:@*1#:67fm##AA:44*4446o461n71@A@:#A@:#-444667<7vSSmffz=@#=@#@@-++@%:ySnmyAAm@@@##mAz;=<---@-#",
"####X##-#########fmAm@#############fff@sff##############44amFOaf-############:4fmG7fmm####*#ff##@--#",
"###################:6fmm#############:#fs*#fs###########Xo####o###################@@##############-#",
"####################X###########################################################################@=-#",
"######--#--##-#--#--+#--#-##--#-#-##-#--#-#--#-#-#--#-#-#--#-#---#--#-#--#-----#--#----#########@@-#"
};
