/* XPM */
static char *exit1751537313[] = {
/* columns rows colors chars-per-pixel */
"100 100 23 1 ",
"  c #040F1F",
". c #05101F",
"X c #040F21",
"o c #051123",
"O c #081326",
"+ c #061429",
"@ c #081429",
"# c #06182D",
"$ c #08182E",
"% c #061730",
"& c #081730",
"* c #071A30",
"= c #081C33",
"- c #071E3B",
"; c #081E3C",
": c #07203E",
"> c #08213E",
", c #072242",
"< c #082244",
"1 c #09264C",
"2 c #08284A",
"3 c #D8D30F",
"4 c #FFF70D",
/* pixels */
"@O+@+++++++++O+O+++++O+++++O++O+++OO@O+@O+@+@+++O++++++O++++O++O+@++O@++++OO+O++$O@+=$#++%@+++@@@+++",
"+++++O+OO++++++++OO+++++++++++++O++#++$#+++++++O+++O++++O#+**$++++O##++++++++O#O++%=+++%&+++++O@++++",
"+++O+++++++++++++++#++4oO++O+++++#++$#+++#OOO+O+++++++O#+4%#++++O+@+OO+++++++##+;%==22,>&1<O&$@@++++",
"O++++++++++++4++O#++O+4++++++#+O+#+>4#2>#%#<++#++O++o+##%4*2<,$$=&$<,++#+++++O4+++22>O@<<OOO+X@OOO++",
"++++++##+:O+$#4>@#$:++4++++++#+<O<&@4<+++<X@+O++++++O++:@41<#@@O@<<@+@++O++++>4@111411111111:&&O++@+",
"+++o+++:+++O+>+4O<+O++4+oO+o+>++;@@14>122<=1O,O#OO++++,+41>121<<<<X11;<@+++o++411141111111111<+O+OO+",
"Ooo+O+:++2O,>#+24,@1+;4%++o+:++1+:11141111111+,ooo+4o+++41111112<@1111::+o+OOo411411111111111<+@%+O+",
"++++++2<111<2<1114411%<4++%:*21111111411111411<%#+++42<1411111111111111<+++22242411114411111+++@O+O+",
"++++o12111111111111411<4@@#<11111111141111411%+#++++42,141111141111111,%#+1<114414444111111111&;@@++",
"++++++#11111111111114114%@<<211411111411114111<<%#+++411411144111111111<++++1144411111111111111&<+O+",
"+o+++:111111111111111414++@<11114411114114111112,++o+4141114111111111111+++111111111111111111111:@@+",
"+++++%%11111111111111144++$111111144114141111111:+++%%441141111111111111O+=-1111111111111111111+++O+",
"++++<<111111111111111444++%%1111111144414111111++++22,444411111111111%#++<2<2111111111111111%1+@O+O@",
"++X+++111111111144444%+++<2,,11111111144111111*#+++oo224111111111111:++++++22111111111111112,<++@+++",
"+++@++++%=1114442211<++++++2211211111111111111=#+++O+++%*22211111,22111:+++++%%211211111122212@,<+++",
"+++@+++++++++%&;%%21122,++oO+**<1111111111111111:+++++++++++++#-+++++++o+++++O++=##+#+++:##++++oO+O+",
"++O++++O++++O+++o++++++++++++++++++++++++++++++++++o+O+++O+++%%*%*###*+o+++++++O+++++%==$%#=%%+O@+@O",
"+++&=%%##444444444444444444444444444444444444444444444444444444444444444444444444444444444#%%&+OO+@+",
"+@%&%@#++4++++O+++++*###*$$%##$+++++++%#**###$:*%+++++++++#=%222221122*=%#++++++++%=-211<4<1<1&+@+++",
"X@@<222,<4+#++++++##*###+=#%#++++++++#*%22222211222,%%#++++22222,211=22222,,###++O+2<2<1<4:1::+&@+@+",
"@O><2<>++4++444++444424,2<<4444=#44+++44424444112:444@444+41211411411444,,44@@4++42<4411141111&<O#O+",
"+<O1111114<#4++4+4<22<4><124<++@4++4+4,22242111114111<=4++4@21141411411114114<44+4+411111411111%<+++",
"++@1111114:,444++4441141111444114444++4411444111114411:4++4111144111144114114<4+44+4144114111111;+@O",
"++111111141:4o4++4#11141111411114:+4++1141411111111141:4++4=1114141111141411414++4%411411411111+@+++",
"+$O1111114%+4++4+4444144441444414>+4+4441144441114442+444<4444141141444111442+4++42<4411141111%%O+O+",
"<X@<111114%++++O+%%1111111111111++++2-<2111111111111%+++++@<1111211111111111+#++o+o21111141111+%@+++",
"++<<1122<4+++O++222<11211111111*++++++2211221111111<+++++++++%=11122111111<,+++++++++%=1141112+,,+O+",
"@++<221114<;++++O+<21112111111<+++++o+O+%+221111112122:++++o++++++o+%=#2112222:++++++++++4+@#++oOO++",
"O++O++++@444444444444444444444444444444444444444444444444444444444444444444444444444444444+o+O++++O+",
"@@O+++O++++O+O+++++O+++o#-+O++++++++++++++++++++#+++++++++++++++++++++O+@++++++++++++++++++++++O+O++",
"@@@++++%%##=%#+##%#+++++#+++o++*$*$#**%%#++++++++%+++++o+++o++++++++++O++++++++o+++++++++++O++++@+++",
"X@+@+%#$#%&##%#=+++++O+++++++%%%$#***%#++o+++++%+%##*%##%##++++o++++%##%#%#%###++++++4*#%%%%++++@O+O",
"+@++#-=122222221<<,#%#++++++%==22222222<<=%+++%>#2**=#%#++++++++++%%#*+%##%*#++++++44#%*&@O@O@++O+++",
"O@O++244:<<<-2<1,++++++o++o++1222:21<2:+++++++%2*22,222,2,<%#++++%==22,2<2,211:%%#4=-222111<&<++&+O+",
"++O+22<144111111111<,4#+++++2211211111111<<%#+2<2122<<<<:+++++++++1<,2,2,,2<<@@@44+222<21<&1@@++O+O+",
"O+O++O1111444111111124+++++++o1111111111112<O+<211111111111,<+#++1<:211114111114,%2<21111111<1%:@@+O",
"+OO++1111111144111111:4++++++11111111111111<+++1111111111111>>+++++11111141114412;++11111111111+,@+O",
"++++%%11111111144111++4+o+++**444444444444444444444444444444444444444441141141111<+1111111111111<O+@",
"+++<<,11111111111444#++4+++12<4+@@++@X+XXX+X++@++@@X@@@+++O+++++++++#@4141441111++=&11111111111+@@++",
"O+OO#1111111211111<%44+4o++o+<4++@#XXXXXXXXX@O@X#XX+@XXoX+o.o..++++++@414411111-#<1111111111&1+#O@+O",
"++O++++%%2222212<1122,444+++++4++XXXOXXXooXOOXO@OO@oOOOXXoo.o.Xo++++++4244444444++O<21111112,<++@@+O",
"o+O$%%$*#%+O++++@@+#%%44###*#+4+XX#X.Oo..XOOX.OX@XXX@OXOoXX.XoX.X++O++42222222222<+++==2112122#:;@+@",
"++###$#$+++o+++o+@%%44##%**+++4o+oXXo.X.XO...OOOXXXXXOXXXoXo.oo.o ++o+4#%+++o+++++++#%%%#+%=#%@%@@+@",
"+#+<22,2,2%##+++%=4422<22<212#4+XXoXXXXOOXX.O.OXXXXXXX.OoXoXXXoX o+O++42222#%%+++++#=-<1<22221<@@@++",
"@@><<2<<##+++++++411-2<-111%++4++Xo XoXX..O.XO.XXoXoXO.XOXXXOXoXo X+++412+O+++++O+++:<11<>1122<#@+O@",
"+<@<211111,2##++<111111111111<4+Xo.ooXOOOXX....OoXX.X..X.OO..XXoXoo.+#4122122%%++++:<2111111111<@@+@",
"X@$11111111<<++OO+1111111111114++ +X.XoX.XX..O.XOXoO.....X...ooOXoXX++4111112<++o++++1111111111&,++O",
"++1111111111<++++11111111111114++oo oXXX.XXOXX.X....OXXOXXOoXXXXoXXX++41111112o+++++111111111111<@+@",
"+#X<1111111@@+++#%11111<1111114+@XX.XX.oXXOX.OOX.XXOoXoO....X.XXoXo.O@411111++++O++#=1111111111@+O+O",
"<+@<111111@&@++:<2,1111111111%4@O.ooXOXXO.......XX..X..XX..OO.oXXo.oX@41111=%++++O<<<2111111111%%O+@",
"++<<1<1111@O+X+++,211<111111<@4+@+OoOOXX.....OXo.OXXXo.oX.XXOX.OoXoX++41111@o+++++++<2111111111@@O+O",
"+@@<22111111<++++++#=<111111214+++@XX.XOXXOX..oX.X.o.oX.O.Xo.X..Xo ooO42111122O++O++++#*1111112<,+@@",
"+++X@++##*$+=#+#%**+++@X$@+X++4++O+..XXOO.XXOoX.XOX.oXoOOOX..O..Xo  o+4%&%#=##+++o++++*$%&#$$&#++@+@",
"+++O+&+###*++%%%%#++++++O@++=@4+++Oo.OOO...OXXo...oX.OXoO.oo.XXXo o o+4%+=#++O++++++*%#*&##&%%$+@@+O",
"+X++%%=,<,2-2::,2,<-%#%++++%=%4++o+oOX.O..OXX.XX.XOXO.XXOoXXOXXXXo.+++4122<22,#%+++%==22<2<<<1<%&@++",
"++@++2<22,2:O222<<++++@@++++<,4++++oXX.X.OXX.OXXXO..Ooo.o.O....Oo.oo.+4<<<2<O+++++++2<<<>><2;1;%+@@+",
"+++X<-1<21111<1<11111;%@+++::24++++oXo O..X..XXOoXX.o o..XXo Oo XoX.oO421111112;%#+:2,1<1111111:%@+O",
"++++#+1111111111111111;++++++14+++oooX+oOXO.XX..X.oo o +.o.oo. ooXo o+4111111112,++++2111111111%:O++",
"+X+++<11121<1111111<1<<++o++1<4o+oo X ..XXO.X...o.X.o o O.o X X XooOOo4<11111<1<:+++1<11111111111+@+",
"+++@%#111111111111111@O@+++%#14++++oXoXoX...O.O.X..ooOOoOoXoo.oo oXoo+411111111++++#=1111111111%<O+O",
"+++-:,<<1<1<1<1<1<1<#++++o1-2,4+++OOoXo.XXX.....o...+X+ + o .oXOoX@O++4<111111%+++2:<11<1111111%<+OO",
"++X+O2<111<111<112<<+++++++o<24o++ooOXOoXXO..O.OO.XOXo.oOoOooO oXoXoXX4111111<++O+++<1111111111%1@++",
"OO@%%###%22,1<1<2,222,,#%+%+++4o+oOoX.o X.X.X.X.o.Xo..+.+Oo.o.o oXXXXX4%&<112,2,:+++++=%1,1<1,1::O@O",
"o+$&#-++#o++O@=&+#####%###++++4+++OoXo oO.O..O.oX.oX..++++OoO o.XXOXXX4++@@@+++*%#%###%#+++++o+++O++",
"+o+:1<<#%++++#=%1,,,1:<,1-1;@%4o+++XXoo o ....X.Xoo.O.oO.oo.o o . X.o 4O+o+++#%#%+*#&@%+++@++X++++++",
"++-<:1O:+#o+++-1,2,,:1<,1:o+++3+++oooX o o oooo.oXoOo .O+oo Xo o oo@Xo3+#+++%=%222<21<,,:%@#+++%+%++",
"+o+:1<1,1##o+,1-1<221<111<111-4++o+o+OXOo.XoX.X..o.OoOoO+o  o.o o X.o.4++o+++:1:2-2-<;<++++++o++&++o",
"++o1<1<1,:++o+o1<1,2<1<1<111,13+o+++X+XX oX.XX...XOo.Oo.oOoo . o ooX.+4,+#++,212121111111,:@#+o1+%++",
"+O&;1<111-++++1<111<111<1<1<1<4++o+o+ o.X.Xo..O.. +.ooo o ... o o o o.4-:++o++1<1<1<11111<:-+o+++%+o",
"+;O<11<1++o+o=%1<1<111<111<11o3++++X+oo..o.oXo.oooO+ o oXoOooo o . oO+31:++++1<111<111<111<:++o+&%++",
"++@<1<1&#o++<,:,111111111<11%+4o+o+XXoo X.o.O..X .o   ..OOo  .o o o Xo4o+o+O%%1<11111<1<11+++o+#+%@o",
"X+O<<1;<-+o+++,1<1<1<1<1<1<,++3+++oooo oo. X...X o o.ooOO. o o...X o.+3#++o2:221<1<11111<%#+o+21++@+",
"+o+:1<1,1-+o+++X%#1,1,1,1<1,2,4++o+o+oooX.oXo.oXo OO+.ooo .oo o o X.++4o+o+o+,221,1,1<1,:++++o+o%%++",
"o+O++%######%%++o++oo++o+&#%+%3+++++ooo.X..X.X.. o.oo+Oo +oo o + o ooo32,+++o+o%=22122,211,<+++++@+o",
"@+%+-#&+%+%#%oo++++++++%%%##*+4o+o+ ooo o.. o.o.o.o +oooo.....o.X o +o4+%###+++O+++o+++Oo%%#*###@o++",
"o@%&:,,1,::2<:-&##o++o+-%1<2,,3+o+ o+Xoo.X.o.X.X..O+ooXoX+ o o   o +o+3##%o+##o+o+++o++%%%#%#$:#X%++",
"+%,;1:1:2:<,,+%O+++++o+,1,:,2-4++o+XOO.oX.X.. X.o +.+oO +o .o o o oo+.4,2,<<%+#++++o+X%%=21<2:,,+%+o",
"o,,:11<<<21<<1<<-%+o++,,:1<1,13o++oooXOOo....oXoOo.o.+  ooo  o   . oo+3,-2%#,,+%++o++++2,<<1:2<<:@@+",
"+,+<1<1<2<1<1<1<<-+++o+o1<1<1<4++ooOX.O.X.X.o o   oo++o oooo..o o.o.+.4<2<1<<,##%X++++2:<<1<1<12@:++",
"+o<<<<<1<<1<<1<<<-+o+o+<1<<1<<3ooOOX.OXXX..X   o.o .ooooXXoo.. o . X++31<<21<1<,%#++X++#<111<1<1,,O+",
"++1<1<1<111<1<1<+++++o%#221<1<4#+o+++o.oo.O X X o o.Xooo+X oo   oXXXX+4<1<1<1<1:,Oo++++22,1<1<11-@++",
";%+<1<1<<<<1<1<%+++oo,,,-1,1<<3+++ooX+oooO.X o.o oo.o+X+X+.. o. XoXXX+3<<11<<1<<-+o+++#+<1<111<<%++X",
"1+<:1<1<1<1<1<:++o+++++,111,114o+o+oo +o oo    o..o.oooo+Xo..oo oXXXo+41111<111++o+++:2,<21<1<11+%++",
"+X,<<%:,<<<<<<,,,:++###+o##,,,3++oX+Xo....X  o.....oo.XoXX..Oo. XoXXXo3<<<<1<<%+++o++o+><<<11<<<:-O+",
"+@@+<o,,%oo++X+%#+###++o+o+++o4++o+oOoo.o o X.o o.o +.oo+XXXo o oo .X+4:1<111<<%%+####$$=%%<1,1,=%+o",
"X+;:,,:%%++o+++%#,::,<,-##+Xo+3o++oo.. .o.. o... .+o++ oXXoX..  X. oX+3%&O+%%-<<:%#$#$$#O@O@-++%X#+O",
"o;+;<o:+@o+o+++::-<,2:++++++++4++ooXooo   o  .o.oooo+oX XXXoo o o o X+4%%;1;1<1<2>2>2,2>2-=;&+1%,+#o",
"+o+,1<<<:%%+++;--<<2<<<<,-#++o3++oooooO..o .o  . ...ooOXX o ..   o..X+3<<;<<;;<;:::>>>,>++XO+<<<#-++",
"+o1<1<<<<;++++++1<<11<<11:;+XO3o++.ooXo o.o.o. o..o+ooo+XXXo X  Xo .++3,<<1<11<<1<1<1<112<1;1<1<1:+o",
"++o<1<<<<;+++XO<1<<<<<<<<<;X@+3+o+o.oo.. . . ... o...o.o OX...o o.o..o3o<1<<<<1<<1<11<<<<<<<;<<1%++O",
"-+o:<<1<X+O+O+%+<<1<1<<<1++OoO3o+o+. .. .oo ..X...+. oo o o .O. Xo  +o4<1<1<1<1<1<1<1<1<1111<O1<%%+o",
"+o-,1<<%&X+OO;;;<<<1<<<1%@+++O3++oooXo o.  o..o...oo ...   o.o. .. oo+3=<<1<1<<<1<<<1<<<<<<<<<<&%%++",
"O+X;<<;;X++X&++;<<<<1<<<+##+%+3++oo..o .oo .o ...+o.o..oXXX.o.. o oo++3=;;;<1<<<1<1<<<<<1<<<1<;;,-oo",
"++X;;;;;;-O&+++O+<1<1<<<::-@#+3O+oo..X . .o...o ..o. ..  Xo   o  oXo+o3-;;<;1<1<<<<<--<<<<<<;;&;+%++",
"+X+XO+&O++X+O+OO&%<<<<+@@%++##3oo+o o o  o  o.+oo.+.o o  X o... o o+o+4+X;<OO<1O&<1%;-1XOO1@&@$@o++o",
"++X+++++++%++%%;;+X1<#%%+@%#%+3+++oo.. ......o.oo.oo.o.. X....  o.oo+o3+++%;<<<;<<<X+X&+<;;++@@X+o++",
"XX+++X+++X+o+o+o+-<<,oo++o+o+X3+oXXX   ooo X o.ooo.....o X.....  oo++o3++o+o++#:2,#-2,o++++o:-++oo+o",
"+++X+X+Xoo+oo+++o+o%%-<,o++++o3+++ooo .X .oX oo+++.o...  o o oo .oo+o+3+o+o++oo+o+o+oo+o+o++o++o++++",
"+++X+++X++o+o+o++o+oo+oo+oo+o+3+o++oo.X   .  .+o+o. .o   o ...  .++o+o3+++o+o++o+oo++o+++oo+o+o++oo+",
"+X++X++++o+o+o+oo+o++o++o++o+o3+++oooo.o.o.   ++oo  ..   .XX X  .+o++o3oo++o++o+o++oo++oo++o+o++oo+o"
};
