/* XPM */
static char *background1751461598[] = {
/* columns rows colors chars-per-pixel */
"100 100 63 1 ",
"  c #051327",
". c #061327",
"X c #061427",
"o c #081327",
"O c #081427",
"+ c #051328",
"@ c #061428",
"# c #05142A",
"$ c #07172B",
"% c #07132C",
"& c #07172C",
"* c #081328",
"= c #081428",
"- c #08132C",
"; c #08172C",
": c #07182F",
"> c #071A2F",
", c #08192F",
"< c #081730",
"1 c #091732",
"2 c #061830",
"3 c #071B32",
"4 c #061A33",
"5 c #061A34",
"6 c #081A30",
"7 c #081C33",
"8 c #091B34",
"9 c #081E36",
"0 c #0A1D3B",
"q c #091E3A",
"w c #0A1F3C",
"e c #091E3E",
"r c #091F3F",
"t c #07203F",
"y c #082038",
"u c #092038",
"i c #08213F",
"p c #072040",
"a c #072241",
"s c #092140",
"d c #092341",
"f c #0A2341",
"g c #092042",
"h c #092143",
"j c #092245",
"k c #082446",
"l c #082547",
"z c #092746",
"x c #0A234A",
"c c #082448",
"v c #082548",
"b c #0A2449",
"n c #082748",
"m c #092748",
"M c #0A244B",
"N c #09274B",
"B c #0A274B",
"V c #08274D",
"C c #0A264D",
"Z c #0A274D",
"A c #082848",
"S c #08284B",
"D c #09284C",
/* pixels */
"=@==@==@=@=@====@==@=@==@=@=@@==@=@@==@=@==@=@==@=@=@=@==@XXOXOO@=@@==@=@==@O==@;=OX6:@@@56X@@@;*-++",
"@@@@@@@@@@@@@@@@@@@@@@@@@@@@@@@@@@X:@@4,XX@&@@@@@@@@@@@@X,X3>,@@@@@;&@@@@@@@XX&@@@4,,XX9@@@X@@=**++@",
"@@@@@@XX@,.@@@@&@@X:@@@@@@@@@@X:@$X@,,XX@,@@@@@@@@@@@@@@X::$@X@@@&;@@@@@@@@@@::@s479Slsu7vs@6;=o+*@=",
"@@@@@@@,@@XX@&@@@$XX@@@@@@@@@@X@::Xf6@vi@7,s@@;@@@@@@X:::l7SSi,466&ss@&&@@@@@Xi@@=vviOOSiXX.XX*o@=@@",
"==@@==:@=s@@6;@s:=,i@O:@==XX&;@s@s;=DiXO@s@@==@@==@@@@@s=vvgXOX=.ii@==@@==@==s@XClDsCCSvjCClp6;*@@=@",
"XXX.XXXpXX@@XiX.XsXXXXX@XXX.XiX@iXXDpiCCvi6C@p@@..XXXXt@CjgCCCvsSsXCDit@@XXXXX@CCC@CCCZZCCCCCs+==@=@",
"...+.@p@@D@pp&@Csp.CXt@@X...p@@C.tCCCCCCCSCCD@t@....+@@@CCCCZZZvt@CCCCrt@@...@CCCCCCCCZZCCCCCv.=;@=@",
"@@@@@@vvCCCpSsCCCvCCS4s:@@494zCCCCCCCCCCCCCCCCf4&@@@@vvCCCCCZZZZSCCCCCCg@@@vvvvCCvvCCCCCCCCC@@.@=@=@",
"@@@@@vlCCCCCDCCCCCCCCCp@X.+vCCCDCCCCVCCCVSCCC@@@XX@@vSjCvCCCCCCDVVCCCCs4&XSlCSSCCSDCCDCDCCCDvC:s=;=@",
"@+==XX:CCCCCCDCCCCCCCSs4@XCDsCDCCDDDCDCVDVCCCCvp::@@XsCDCDCCCCDCVCCCCVvi@X.XCCCDCCCDCDCDDCCCCCC=s@=@",
"@+*@XpSCCCCCCCCCCDCCCCvs@@@pCCCCCCCCDCVCCCCCCCCls@@@XCCVDCDDCCCCCDCDDZZg@@XCCCCCCCDCDCDDDDCDCCCCs@=@",
"@@X=X44CDCCDVVCCCCDCCCCp@@@CCCCDCCCDCVDCDDCDCDCCp@XX:4VCCDCDVDVDCDCDCCDj@@44DCCDDDCDVVCVCCCCCCC*=@=@",
"@@+=vvvvSCDCVDCDDCDCCvp@@@54DDCVDCCDCDCDCDCCCCCX@@@vSelCCVDDDVCVDCCCv44@@vjvSCCCDCCDCVCVCVCC5D+&=@=@",
"@@+=@@vSCSCDVVDCCCCCC4:@@vlipCDCCDSCVCDCDCCCCC4&@@@@@vvSSSCVCVVVCvCvs@X@@@@vSDCDVVDCSCDDVVvSgs++=@=@",
"@@*=@@@@44vVVCCDDDDCs@@@@XXSzDvSSDVVSDSVCSCVCp@@@@@@@@X44SSSvSlSSSlCDDvp@@@@X,4SDCDDVVVvDCSVvC@ss@=@",
"@@*@@@@@@@@@@@@@44vvDDvs@XXXX44SCvvSVvvSSvSVSvDVs@@@@XX@@X@@@@@@@@@@@@@@@@@@XXX@@@@@@@@@@@@@@@@+@@=@",
"@@o*@XX@XXX@@@@@@@@@@@@@@@@@@@@@@@@@@@XXXXXXXXXX@XX@@@@@@@XX@:3::::$3:XXXXXX@@@@@@XXX7<5$4@4&8++=@=@",
"@@+<744;:@@@@@@@@@@X@@@@XX@@@@XX@@@@@XXX3$3>3:::4:::@@@@@@X:4,3>:@>>@>$:4:$:@@@@@@X::4=6$6$7&&++=@=@",
"@@;6:,=@@@@.@@@@@@@X:,3$3$$>33:X@@@@@@5::>:>$>::4$XXX@@@@@39ylSzSSvvSAy93:XXX@@@@@:9yzvvlSlSvC%%;@=@",
"@&;sSvlls::,@@@@@@4:3$4$$:3>$XXX@@XXX433AlSASSSVSvSf:::@@@XSllzSiiSD3zlSzSpi3@:@@@XSSliCilsSpi&%=@=@",
"@+sslps@@@@@@@@@X49qSSlfDvfVSSp46:XX@@vplSSzpvvvlt*++*@@@@lSlDCSCCCCDCDDsl@@@@@@@@vvvZZCSCSCCC;p=&=@",
"@s@jCDDCDsv@:@@@X@vvliStsvvvt@X@@@@X@vpvSDDCDCCDSSCCvs::@@.XCCCCCDCDCDCCCDCCpp::@@@@ZZZZCCCCCCC%s@=@",
"@@@CCCCCCCspXX@@@vvvCZSSDCCDvCCvs4:X@@.CCCCCCCCCZZZCCvp@@@XCCCCCDCCCCCCCCCCCDss@@X@CZZCCZZCCCCCCs@=@",
"@@CCCCCDCCDs@X@@@@XCCZZDCCCCCCCClsXX@.CCCCCCCCCCZZZCCCs@@@44DCDCVVVCCCCCCCCCCCp@@X:4DCCCZDZSCCC+@@=@",
"@&.CCCCCCC.X@@@@@XCCCDCDZZZZCCCCCs@@@4@DDCDCDCCDCCCCCX@@@vSllvCDCSCVVVCDDCCCDX@@@vvvsCSCCSCCCC@4=@@@",
"s@.jCCCCC4&@@@@@@4,CDCDCZZZZCCCC@@@@vpDvCSCDCDSCCCCC:,@@@@=vlCDCSCDCDVDCCCCC,:@@@@@vSSCSCDSDVC:+=@=@",
"@@ivCDDvs@@@@@@@vvlsVVCDCCZZCCC3:X@@@@vSDCDvCCSVVVCiX@@@@@@@@45SSSSSVCVCCDvsXX@@@@@@X44SSvDvVV:ps@=@",
"@@@sVvDDDvvp@@@@@@vSVVDSCCCZCCsXXX@@@X.X56vSDVVVCSlSSSs@@@@@@@@@@@@@@64vvDvDvvs@@@@@@@@X@@@@X@@ =@@@",
"=@+=@@@@@@@@@@@@@@X@4,SzVMVSvSSSSiXX@@@@@@@@@@@@@@@@@@@@@@@@@@@@@@@@@@@@@@@@@@@@@@@@@@@@@@@@@@+==@=@",
"==*@@@@@@@@X@@XX@@XXX.@@++@@@@@XXXXX@@@@XX@@@@@X@@@@@X@@@@@@@@@@@@@@@@@@@@@@@@@@@@@@@@@@@@@@@@++=@=@",
"==*=@@@65::73:$3,64X@@@@@@@@@XX:3,::464,:X@@@@XXX4@@XX@@@@@@@@@@@@@@@@@@XX@@X@@@@@@@@X@@XX@@@@+%=@=@",
"@=*@@65=@6:@$:$:@@..@@@@@@@@@44::$,4,5=X@@@@@@X7X:::4:,@4&&@@@@@@@@X:7@::::4:::@@@@@@:,4464;@;+@=@=@",
"@=+=499SlllSSllSpvs64&@@@@@@,99vSzSSSlSlp5::XX,73A4:5,3:X@@@@XX@XX44=6@4,:::X@@@@@.:44:3::X:XX@@=@=@",
"@=*@Xlvsivvptvsvs@X@X@@@@@@@=lSvvivvzAt.@@X@@X4S3zAfSvlfSfp3:$@@X474zSvvsSzlSDs4::,97zSzSCSt3a@+;@=@",
"@@o=llsCCDZCvDDCCCCvp:&@@@@@vvlSDCDCCCCCCvs4:XvvvDSzssxjt@@@XX@@@@vvsvpDsszls@@@XXXSlASzvp@sX@@@=@=@",
"@@o@@.CCCCZZZDCCCCCDvs@@@@@@@@CCDCCCCCCCCClsXXvvCCDDDCCZCCCps$:@@vvsDDDDCSSSCCCvs4vSlCCSCCCClC@s=&@=",
"@@o=@CCCCCCCCCCCCCCCCp@@@@@@XCCCDCCCCCCCCCCs@@@CCCCCCCZZCCCCps@@@@@CCCCCCCCCCCCCvs@@CCCCCCCCCCC+s=@=",
"@@*@44DDCDDCCDDCCCCCXX@@@@@@46CCCVVVSCCCCCXX@+6vCCCCCCCDCCCCDs@@@XCCCCCCCCCCCCCCCs@DCCCCCCCCCCCCs@@=",
"@@+svppCDCCDVCSCCCC5:X@@@@@vvlSDCCCVSCCCC4,@@v,:VDCVVCDCCCDC@@@@X,4CCDCDDCDDCCCC@@4:CSCCCCCCCCC+==@=",
"@@*=@vSSCDDCCDDCSCsX@@@@@@@@OSvSVDVSCCSCsX.@@vSDDCVVVDCDCCv::@@@DviDCDSCCDCCCCC5:vvvvCVCCCCC6C+;==@=",
"@@.=@X@6:SASlSSvvSzDviXX@@@XXXX44DCSSSzCSDvp@@@DSDSSCSSCCvi.@@@@XXSSDDSSSCSCDCs=X@@SzDDVVDDDii@@==@=",
"@@.;64=4$4XX@@@@@@X$44$4@&747XXXOX@@@@@@@@@@@@@@X,3SSSvSDvSlvs@5$:$:39AAlSSzvvDvvpXXX:9zDDvCSS&ss=@=",
"@@;,$:::X@@X@X@@@,:3=3$$,&4@XXXX@@@@@@@@3:4,7@@,4$::4,X@@@@X$4:::::4:::34XXX@@@@@@@@$::46@59@4+5**@=",
"@&=jzzlSsv4:4X@@:49tSSiSllSvl44,@@@@@=44$::&@,7@,4,4@@XX@@@437sSiSlvllfSsSS&55@X@@@&4ulvlzllSvv@;*@@",
"@@tssDsv@@@@@@@@@pvviSisSvCX@XXX@@@@;49iSSllSlllzjSvvS445@@@ilivsSsviCsDv@@@@@@X@@@@svvviivCpSv&%=@=",
"@sXjDDCCCSll:4@@svvCCSCZVVCCDll,4@@@@ilStzSpiiSpDlzS@@X@X@@sSiCDVVCCCCCCDDCDv64X@@@pvvCCCDSCCCVp@;@=",
"@@@CCCCVSCCslX@@@@CCCCCSVVCCDCSSX@@@svSCCCCSvDCDCVCDCSvv,:@@@CCCCVSCVCVVVDSCvl@@@@@@@CCCCCDSCCC&s=@=",
"@@CCCCCCCDCDv@@@@CCCCCSCVVCSCSClX@@@@@CCCCSCDCDCVCVCSCDSv@@@CCCCCVCSCSVVVDCSSS@@@@@@CCCCCDCCCCCCj=@=",
"@&.CCCCZZZC@@@@@@4CCCCCCCCCCCC@X@@@@XCCCCCCDCVCDCSCSCCCDv@@&5CCCCCCCCCCCCCCCXXX@@@@;,SCCCCCCCCC@%*+=",
"s@.jCCSZZv@5@@@sSviCCCCCDCCDv45@@@@@::CCCCCCCCCCCCCCCCC@@@svilCCDDCDDCDCCDC54@@@@@pvvSCCDCDDCCC4&+@=",
"@+tSCCCCZC+@@@@@XsSSCDCCCCCCb=XX@@@sllsCCDCCSCCCDCCDCC:3@@@@svvCCCCCCCCCCxD.@@@@@@@@sDSCCCCCDCC&;=@=",
"@.ojlSSSZvCvC@@@XXO$,sCSvvDvDSSl@@@@@ivSCCCCCCCCCCCCSSXX@@@@@@,6svDvCCvCCDDvvS@@@@@XO+$:pvVVCvDpj=@=",
"@@*=@@X3$3:::X@7,4,:@@@@@@@@@@::4:3>5:X:4sDVvSSDvDzDCSSSS$4,:@@@@@@@XXX,4:$:3$XX@@@@X@43:5:$,,@@+*@=",
"@@+=X4O4:$::X4::4XXX@@@@@@@@4,::::3$@@XXX@@@@@@@5@,4:4$$4:$XX@@@@@@@@,44X:5@@XXX@@@@,,=3:@$,@,6@**@=",
"@@o@653SizzszluSSSDs56@@@@@546zlzzSSvp:4:@@@@@X:33SilzfSliSvs44@@@@X477SSSlvSs44&@@494SliSlflSl&<*@@",
"@@.=@vsvSfSiXllSvpX@@@XX@@@@liSlDlliXXXXX@@@@@@XvsSliStsSls@X@@@@@@XXSlliSliXXXX@XXXSviSiiiSgvt:-*=@",
"@@=@vsvCSSZZZZCCDCCCSs4:@@@vpvSCDDCCCCSt3$X@@@@SsDCCCCVVzDCCCDs5:XX@vvSCDCDCCCvp4=@vvsDDCDCDCCDp&;=@",
"@@.=@@CCCCDCZZCCCCCCCvs@@@@@@CCCCCCCCCCvp@@@@@@X+CCCCCDCCDCCCCvs@@X@@@CCCCCCCCCvs@@X@CCCCCCCCCC5p@=@",
"@@X@@CCCCCCDCCCCCCCCCCp@@@XXCCCCCCCCCCCCfX@@@@@XCCCDCCCCCCCCCCDs@@@@@DCCCCCCCCCCs@@XCCCCCCCCCCCvv==@",
"@@X@::DCSDDCCCCCCCCCC@@@@@X4:DDCCCDCCCC@@@@@@@@3;CDCDVVCCDCCCC=+@@@@4:DDDCCCCCCX@@@46DCDDCSCCCC:j*=@",
"@@ostSlCSCCDCCvDCCCC::XX@@DgllCCVCCCCC5@@@@@@@vsClCCVVVDCCCCC5=@@@@vvvsDCSCCCC4:@@lSsvCDCVCVDCC4j+*+",
"@@*@XSvSDSCSCDCDDSCsX@@X@@XXSvCVVSCDDs@@@@@@@@@@DvCVCDDCSSCCs+@@@@@@@vvDDCDCCpXX@XX@vvDCDDVVvCC@C==@",
"@@.64:X4&CSvvSvSfASDSzs34@4XXX4:DVvDDzSCt@@X@@X@@@4XSvzSlSzSvzvsX@@X@@@44vDVDDzSs@X@@X55vvSvDSCSs*=@",
"@@;6:s@X:@@@@X44,3>@:3,$4:@XXXX@@@@@@X:4>::::4:@@@@@@@X4@@49@4,5:$::::@@@@@@@@X:,4,$4@:4:@@@@X@@@+=@",
"@@*vDvp54$@@@694lvfvClsSvsSp:::X@@@X,::4$4:::XXX@@@@@@4:4v@454::X4&&@@@@XXXX@464,:::4@6@@@@@@@@@++*@",
"@@sssCXi@@@@@@SviSSsjDStli@@XXXX@@@47uDvSzzSvvp4::@@@@XS99SzfzSCzivDpp:44@XX477SzSAfSvvsp4@:@@X3&&*@",
"@@*jCCClv4&@@SliCSDCCCCCDCCClt4@@@@=vllvezAAs@@@XXX@XXSXvDsCivvpsvss@@XX@@@@XSllvsSivps@X@@@@X@@5+=@",
"@@+CCCCCSp@@@@XCCCCCZZZDCCCCCDs@@@@vSvCDDCSSCCCvf4$@@XXlCDDSDDDDDDDDDDps@:@@lllCCCSSDCCCDsf::XXS&%=@",
"@@=jCCCCCs@@XXCCCCCCCCDCCCCCCCs@@@@@@CCCCCCCCCCCvs@@@@@CCCCCCCCCCCCCCCCss@@@@XCCCCCCCCCCCCpsX@@@+<=@",
"@s=jCCCC@@@@@,4CCDVVCVCDDCCCC@@@@@@@CCCCCCCCCCCCCs@@@@4@CCCCCCCCCCCCCCCCs@@@@CCCCCCCCCCCCCCpXX@@5%=@",
"@@.vCCC4&@@@vSsvDCSDVCCVCCCC::@@@@@65CDDCDCCCCCC@@@@XSX:4CVDCDDDCCDCCCC@@@@@4,CCDCDCDDCCCC@@X.@4@5=@",
"@@.jDCsis@@XXXlSCSCCDDVVCDCsX@@@@@vvlSDDVCDCCCC5&@@XXXvSCDVCDCVCVVCCCD@6@@@vllSCCDCDCCCCv:&@XXSv%&=@",
"@@=jSSCSltX@@X@X:4vSDvvSDvSSlStXXX@XSSSSSCSSCSs@@@@@@@@XlDDDvCDVDCSCliX@@@@@@SSzDSCCDvDDs@XXX@@@5==@",
"@@*@$,4:3$::53,XX@@@@@=XX4>:::3$3::::X>:vVCSvDDzvp@@@@@:X@43DCvVDCvSSSvvs@@@@@X44lVDSlCvCDSs@@:@+@=@",
"@@=63444>$:>@@XXX@@@@@X4::$:>$:>$:@.XXXX@@@@@@::464@3::4@XXX@@@@@X4:>$:$:,:4XX@@@@@@@@@@X:::3$@3@%=@",
"@;68lAzSzlSlvvs5::@@@@59ySSSlAAlSDsSt:::@@@@::$,,@,433Xs@X:X@@@@3:3$>:::$4XX::@@@@@@@@X44:3,73f:+;=@",
"@5ssCvvpztDSe@=+XXX@@@@vvviSlsSlsCtX@@XX@@@455SlizvlSSlv:,5@=@=67uvSSlSlSzvv6=,X@XX@@@679lvvSllz&4.@",
"@sDsCCCDDDCDCCvSf3:@@@vvvDvCSSDCDDCCCvi4:@XXvpilvfSpllXC@i=@@==@SlvslivviA64vs@5:X=@@@@SvzSDilSvj+=+",
"@v@CCCvCDCCCCCCCvsXX@@@@CCCCCCCCCCCCCCvp@@XSssDCDDDCCCCCCvs5=@=vllCDCDCSDCDDsC:36*@=@@vvvCDCCCDC&s=@",
"@@CCCCCDDCCCCCCCCp@X@@@CCCCCCCCCCCCCCCCp@XX.@CCCCCCCCCCCCCD@@@@@XCCCCCCCDCCCDCvp66=@@@@@CCCCCCCCCj=@",
"@+ZZCCCSCVDCCCCC@XX@@@4,DDCDCDCDCDCCCC@@@@@@CCCCCCCCSCCCCCS@@@XXCDCDZZCCCCCCZZZDp++@@@@CCCCCCCCC5<*@",
"s;oZCCCDVVVCCCC5:X@@@vllsCSCDCDCDCCCC5:@@@X4&DCDVVCSCCCCC$X@@@X:6CDVZSCCCCCCZZZZs@@@@@4,DCDCDCCD5+=@",
"C@iSCCvCDDDDCvs+@@@@XX@vDCDDSCCCDCDCsXX@XXlitlDCVVDCCDCC4:X@@@SlvsVVCCDZCCZCCCv=@@@@@vDsvCCDSCCD;5=@",
"@@lSS5SvDCvDvDDvSf@::56&@4:SVVVSDvvDCSSs4O4,SDCzVVCDDCSC3ff,,7::vZCCCSZZvCCxCC7$@@@@XO+SDCDCCCDCjj=@",
"@;@6f@vD@@@@@@@,::4,,$+@@@@@@@@@@@474:6&,:4$XX4,SCSvlSzSSSS,::@X*+54ZvDCvvDDDSl,6,O7$,,747,SSDCS56*@",
"@@ssvCp36;=@@=69:SiSSzDs66;=@@@@=677SSvSSsSsvs=4;=@@,qqzzAAzSCSSs6,,**+<8*6673zSs6,,667,=OO=p@X4+;=@",
"@s@sC@s@;=@==@@viilvSs@@@=OX=@@@.oSlllCszsSs@@@@OX@@=vlSvSSlCDs=**o***,96vSlSAvvSvSzlzzSvs7i,=C7s@;@",
"@@@CCCCCj6;@=@vsiSDCzDCCvj,,@=@=ollSSSDCSDCCDCSs,,=@vllSSDCDCCCCCvs6;*-jDsvvfvvjivilSzvs,=oOOCCC5j=+",
"@@CCCCCCvs@@@@++CDDCCCCCCvs++@@@=@@CCCCDZZCCZZZvs====;CCDDVVDCCDCCCs*=CjsCVDDVDDDDDDDDCDDCSjCCCCCj*+",
"@;@CCCCCCs===@=CCDCCDCCDCCs====@==CDCDCDZvCCZZZCs@@@;CDCCCVCCDCCCCCs*==@CCCVDCCVCCCCCCCCCCCvsCCC5&*+",
"s@+jCCCC======6;DCDDCCCCC========,,CCCDCZZCCCCCO@===6sDCCCCvZDCCCC*==O=CCCDCCCCCSCCDCDCCCCCCS=DC4;=@",
"@@ivCCC6;==*=CssDDCCCDCD9;======vvSDDCCDCZCCCZ,,666SSvSCCCCCCCCCC6866,79DDCCCCCCCDCCDCCCCDCCsSj758=@",
"***sjDjs.*=*=@XjvMCCCCCv*,<;6;;;,,jvCCCvCCCCDg=66;<;,lDCCCCCSCCCf6<;,siqgsgCCCCCSCCCCDCCCCZZZvssss+@",
"@++ejjsjig;6;,;==CCCCCCCjvs;6;;6*,@CCCCCCCCCvjvvvjvsifzCCCCCCCvjfjfeqsiisjjsCCCCCCCCeiCsgCZZiiqs&<*@",
"==++*;==*;*-=+.+;6CCCC*;*6+6<;<;;56<CCC=CCCO*=<*4;&<sZO,CC;6C@;*<*<;-=oO+sx*+CC;6CC&sgx.*+Z-<;,*+;=@",
"@@+@%@@&++4;;54eC@@CC&64&45<5+454j44@C+&@C+;+%545544;6jvxCjss*+@@-@++==O+%&svCxeCCv+o++oxCj-*==*=+=@",
"@@@@.@@=@@@@@@@@@svvv+*+.@@@@@@@@@@sss+sss@@@@@@@@@@@@@@&4svC@ts@@@@@@@@@@@@@;5svv8ivv@@@@,Xss@@+==@",
"@@@@@@@@@@@@@@@@@@=,8sDvX@@@@@@@@@@@@;@ss&@ss@@@@@@@@@@@@@@@@@X@@@@@@@@@@@@@@@@@@@+X@@@@@@@@@@@@@@=@",
"@@@@@@@@@@@@@@@@@@@@+@@@@@@@@@@@@@@@@@@@@@@@@@@@@@@@@@@@@@@@@@@@@@@@@@@@@@@@@@@@@@@@@@@@@@@@@@@@+*=@",
"@@@@@@==@==@@=@==@==+=@=@=@@==@=@=@@=@==@@@==@@@=@==@=@=@==@=@===@==@=@==@=====@==@====@@@@@@@@@++=@"
};
