/* XPM */
static char *result[] = {
/* columns rows colors chars-per-pixel */
"44 64 7 1 ",
"  c black",
". c #45252C",
"X c #773F4B",
"o c DimGray",
"O c gray52",
"+ c white",
"@ c None",
/* pixels */
"@@@@@@@@@@@@@@@@@@@@@@@@@@@@@@@@@@@@@@@@@@@@",
"@@@@@@@@@@@@@@@@@@@@@@@@@@@@@@@@@@@@@@@@@@@@",
"@@@@@@@@@@@@@@@@@@@@@@@@@@@@@@@@@@@@@@@@@@@@",
"@@@@@@@@@@@@@@@@@@@@@@@@@@@@@@@@@@@@@@@@@@@@",
"@@@@@@@@@@@@@@@@@@@@@@@@@@@@@@   @@@@@@@@@@@",
"@@@@@@@@@@@@@@@@@@@@@@@@@@@@@ ++ @@ @@@@@@@@",
"@@@@@@@@@@@@@@@@@@@@@@@@@@@@ ++ @@   @@@@@@@",
"@@@@@@@@@@@@@@@@@@@@@@@@@@@ ++ @@ ++ @@@@@@@",
"@@@@@@@@@@@@@@@@@@@@@@@@@@ +++ @@ ++ @@@@@@@",
"@@@@@@@@@@@@@@@@@@@@@@@@@ +++ @@ +++ @@@@@@@",
"@@@@@@@@@@@@@@@@@@@@@@@@ ++++ @ +++ @@@@@@@@",
"@@@@@@@@@@@@@@@@@@@@@@@ ++++ @ ++++ @@@@@@@@",
"@@@@@@@@@@@@@@@@@@@@@@ +++++ @ ++++ @@@@@@@@",
"@@@@@@@@@@@@@@@@@@@@@@ ++++ @ ++++ @@@@@@@@@",
"@@@@@@@@@@@@@@@@@@@@@ +++++  +++++ @@@@@@@@@",
"@@@@@@@@@@@@@@@@@@@@ +++++  ++++++ @@@@@@@@@",
"@@@@@@@@@@@@@@@@@@@@ +++++ ++++++ @@@@@@@@@@",
"@@@@@@@@@@@@@@@@@@@ +++++  ++++++ @@@@@@@@@@",
"@@@@@@@@@@@@@@@@@@@ ++++  ++++++ @@@@@@@@@@@",
"@@@@@@@@@@@@@@@@@@ ++++  +++++++ @@@@@@@@@@@",
"@@@@@@@@@@@@@@@@@@ ++++++++++++ @@@@@@@@@@@@",
"@@@@@@@@@@@@@@@@@ ++++++++++++  @@@@@@@@@@@@",
"@@@@@@@@@@@@@@@@@ ++++++++++++ @@@@@@@@@@@@@",
"@@@@@@@@@@@@@@@@@ +++++++++++ @@@@@@@@@@@@@@",
"@@@@@@@@@@@@@@@@ +++++++++++  @@@@@@@@@@@@@@",
"@@@@@@@@@@@@@@@@ +++++++++++ @@@@@@@@@@@@@@@",
"@@@@@@@@@@@@@@@@  +++  ++++ @@@@@@@@@@@@@@@@",
"@@@@@@@@@@@@@@@@   +    ++ @@@@@@@@@@@@@@@@@",
"@@@@@@@@@@@@@@@@   +    + @@@@@@@@@@@@@@@@@@",
"@@@@@@@@@@@@@@@@@  +   @ @@@@@@@@@@@@@@@@@@@",
"@@@@@@@@@@@@@@@@@ +++++ @@@@@@@@@@@@@@@@@@@@",
"@@@@@@@@@@@@@@@@@  +++   @@@@@@@@@@@@@@@@@@@",
"@@@@@@@@@@@@@@@@@ X   XX @@@@@@@@@@@@@@@@@@@",
"@@@@@@@@@@@@@@@@@@ XXXX @@@@@@@@@@@@@@@@@@@@",
"@@@@@@@@@@@@@@@@@@ XXXX @@@@@@@@@@@@@@@@@@@@",
"@@@@@@@@@@@@@@@@@@ XXXXX @@@@@@@@@@@@@    @@",
"@@@@@@@@@@@@@@@@@ XXXXXXX  @@@@@@@@@@ OOo @@",
"@@@@@@@@@@@@@@@@@ X .. X .. @@@@@@@  oooo @@",
"@@@@@@@@@@@@@@   .X .. X. X. @@@@  oo     @@",
"@@@@@@@@@@@@@ XX .X .X. X. X. @  oo  @@@@@@@",
"@@@@@@@@@@@@ XXX .X .XX. X. X. oo  @@@@@@@@@",
"@@@@@@@@@@@ XXX .XX .XXX. X. X.  @@@@@@@@@@@",
"@@@@@@@@@@ XXXX .XX .XXX. XX. X. @@@@@@@@@@@",
"@@@@@@@@@@ XXX .XXX .XXXX. XX. X. @@@@@@@@@@",
"@@@@@@@@@@ XXX .XX .XXXXXX. XX.   @@@@@@@@@@",
"@@@@@@@@@@ XX .XXX .XXXXXXX. X  @@@@@@@@@@@@",
"@@@@@@@@@@@   .XXX .XXXXXXX.  @@@@@@@@@@@@@@",
"@@@@@@@@@@@@@@              @@@@@@@@@@@@@@@@",
"@@@@@@@@@@@@@ OOOo     @  @@@@@@@@@@@@@@@@@@",
"@@@@@@@@@@@  Oooo  @@  @  @@@@@@@@@@@@@@@@@@",
"@@@@@@@@@  ooo   @@@@  @  @@@@@@@@@@@@@@@@@@",
"@@@@@@@@ oo   @@@@@@@  @  @@@@@@@@@@@@@@@@@@",
"@@@@@@  o  @@@@@@@@@@  @  @@@@@@@@@@@@@@@@@@",
"@@@@     @@@@@@@@@@@@  @  @@@@@@@@@@@@@@@@@@",
"@@    @@@@@@@@@@@@@@@  @  @@@@@@@@@@@@@@@@@@",
"@  @@@@@@@@@@@@@@@@@@@ @@ @@@@@@@@@@@@@@@@@@",
"@@@@@@@@@@@@@@@@@@@@@@ @@ @@@@@@@@@@@@@@@@@@",
"@@@@@@@@@@@@@@@@@@@@@@ @@ @@@@@@@@@@@@@@@@@@",
"@@@@@@@@@@@@@@@@@@@@@@ @@ @@@@@@@@@@@@@@@@@@",
"@@@@@@@@@@@@@@@@@@@@@@ @@ @@@@@@@@@@@@@@@@@@",
"@@@@@@@@@@@@@@@@@@@@@@@@@@@@@@@@@@@@@@@@@@@@",
"@@@@@@@@@@@@@@@@@@@@@@@@@@@@@@@@@@@@@@@@@@@@",
"@@@@@@@@@@@@@@@@@@@@@@@@@@@@@@@@@@@@@@@@@@@@",
"@@@@@@@@@@@@@@@@@@@@@@@@@@@@@@@@@@@@@@@@@@@@"
};
