/* XPM */
static char *idle21751461598[] = {
/* columns rows colors chars-per-pixel */
"100 100 68 1 ",
"  c black",
". c #061327",
"X c #061427",
"o c #081327",
"O c #081427",
"+ c #051328",
"@ c #061428",
"# c #05142B",
"$ c #07172B",
"% c #07132C",
"& c #07172C",
"* c #081328",
"= c #081428",
"- c #08132C",
"; c #08172C",
": c #07182F",
"> c #071A2F",
", c #08192F",
"< c #09192F",
"1 c #081730",
"2 c #091732",
"3 c #061830",
"4 c #071933",
"5 c #071B32",
"6 c #061A33",
"7 c #091930",
"8 c #081A30",
"9 c #081B32",
"0 c #081C33",
"q c #091B34",
"w c #081E36",
"e c #0A1D3B",
"r c #091E3A",
"t c #091E3E",
"y c #091F3F",
"u c #07203F",
"i c #082038",
"p c #09203C",
"a c #08213F",
"s c #072040",
"d c #072241",
"f c #092040",
"g c #092140",
"h c #0A2141",
"j c #092341",
"k c #0A2341",
"l c #0A2145",
"z c #092245",
"x c #0A2345",
"c c #092745",
"v c #082447",
"b c #082547",
"n c #092746",
"m c #0A234A",
"M c #082548",
"N c #082748",
"B c #09274B",
"V c #0A254C",
"C c #08274D",
"Z c #0A264C",
"A c #0A264D",
"S c #0A274D",
"D c #082848",
"F c #08284B",
"G c #09284C",
"H c #0A284C",
"J c #990030",
"K c white",
/* pixels */
"=@==@==@=@=@====@==@=@==@=@=@@@=@==@==@=XOOXOX==@=@=@@=@==XX=@==X=@@==@=@==@O==@;=OX8:@@@5:@@@@=;*++",
"@@@@@@@@@@@@@@@@@@@@@@@@@@@@@@@@@@X:@@6,XX@:@@@@@@@@@@@@X:X:0@@@XX@;&@@@@@@@XX&@@@6,,X@0@XXX@@Oo*+++",
"@@@@@@XX@,.@@@@&@@X:@@@@@@@@@@X:@&@@,,XXX:@@@@@@@@@@@@@@X,5:@@@@@:6@@@@@@@@@@::@g60wFbki8Ag=6,Oo+-==",
"@@@@@@@,@@XX@&@@@$XX@@@@@@@@@&X@;&@g5@Ma:8:g@@;@@@@@XX:::b5nFa:080=gg@&&@@@@@Xa@@=MMaOOFaXXXXXoo@=@@",
"==@@==:@=g@@8;@g:=,a@X:@==XX&;@g@g;=FaXO@g=@==@@==@@@@=gXMMgXOX=@gs===@@==@==g@XAmSfAAMGzAAbs8;*@@=@",
"XXX.XXXsXX@@XaX.XgXXXXX@XXX.XaXXaXXGaaAAMa:AXuX&..XXXXs@MGgAAAFggs@GAag&@@XXXX@AAA*SAASSAAAAAg*==@=@",
"...+.@s@@G@ss&@Ags.AXuX@X...s@@A.uAAAAAAAFAAAXs@....+@@@GAAAAAAbu@AAAAss@@@..@AAAASSSSSSAAAAAM.=;@=@",
"@@@@@@MMAAAsFgAAAMAAF6k:@@6w6nAAAAAAAAAAAAAAAAg6&@@   MAAAAAAAAAFAAAAAAg@@@MMMMAAAMSSSMSAAAA+++@=@=@",
"@@@@@MbAAAAAGAAAAAAAAAs@X.@MGASSAAAACAAACMAAA@@@@@ KK gGGAAAAAAGCCAAAAs6&@bGGGGAMGAGAGAGAAAAAA&g=;=@",
"@+==XX:AAAAAAGAAAAAAAAg6&XAAgASAAGGGAGACGCAAAGMg6 KK sAAAAAAAAGACAAAGCMg@..@AAAGAAACAGAGFCAAAAA+g@=@",
"@+*@XsFAAAAAAAAAAGAAAAbs@@@sAAAAAAAAGACAAAAAAAA  KKK AAGAAGGAAAAAAFAAAGg@@@AAAAAAAGAGAGFGGCGAAAAg@=@",
"@@X=X66AGAAGCCAAAAGAAAAs@@@AAAAGAAAGACGAGGAGAA KKKK :6AGAFAGGGAGGAAGGAAg@@66GAAGGGAGAGAAAAAAAAA*@@=@",
"@@+=MMMMFAGACGAGGAGAAFs@@@6:MGAGGAAGAGAGAGAAA KKKKK MsFAFAAGGCCCGAAAM6:@@MFbGMAAACAFAFAFACAA6G+&=@=@",
"@@+=@@MFAFAGCCGAAAAAA6:@@MbuaAGAAGFACAGAGAAA KKKKK @@MFFACGFAMGFGFAAg@@@@@.bGnAGCCGACAFACCGMgg++=@=@",
"@@*=@@@@66MCCAAGGGGSa@@@@@@FFFFFFGCCFGFCACG KKKKK @@@@X66MCMFCCMMMGMGAMs@@+@X66FGAFCFCCCGAFCMA@gg@=@",
"@@*@@@@@@@@@@@@@6qMMGMMs@XXX.6,FAMMFCMMFCM KKKKKK @@@@@@@@@@X@@@@X@@@@@@@@@@XXX@@@@@@@@@@@@@++@+=@=@",
"@@o*@XX@XXX@@@@@@@@@@@@@@@@@@@@@@@@@@@@X@ KKKKKK XXX@@@@@@@@@:5  6=::>XX@XXX@@@@@@XXX::8$6:6&q++=@=@",
"@@+1066;:@@@@@@@@@@X@@@@XX@@@@@@@@@@@@@X KKKKKKK 66;@@@@@@X:5: K :5:@>:556$:@@@@@@@:5w@6$0X0&&++=@=@",
"@@;8:,=@@@@X@@@@@@@X:,5$5$$>56$@@@@@@@6$ KKKKKK w@XXX@@@@@5i0 KK bbAFF505,XXX@@@@@:wwFGMbnbFbM%%;@=@",
"@&;gFMbbg::,@@@@@@6:5$6$$:0>$XXX@@XXX66 KKKKKKK bMMg:::@@@Xb KK aaFG5nbnFFga5@:X@@.bFngMaFsMgs&%=@=@",
"@+ggbsg@@@@@@@@@X6wrFFbkFFaFMFs68,XX@@ KKKKKKK MFa@@@@@@@@M KKK CCCGGAGFsg@@@@XX@@MMAAAGFAFSAA&s=&=@",
"@g@zAGGAGgM@:@@@X@MMbaFusMbMu@@@@@@X@M KKKKKKK AGAAAMg::@@ KKK AAAACAGAAGGAAsz::@@@@AAAAAASSAAA%g@=@",
"@@@AAAAAAAgsXX@@@MMMASFFGAAGAAAMg6&@@ KKKKKKK AAAAAAAMs@  KKKK AAAAAAAAAAAAAAgs@@@@GAAAASSSSAAAAs@=@",
"@@AAAAAGAAGg@X@@@@XAASSGAAAAAAAAbg@@@ KKKKKKK AAAAAAAAg KKKKK GACCCAAAAAAAAAAAg@@X:6AGAASMAAAAA+=@=@",
"@&.AAAAAAAX@@@@@@XAAAGAGSSSSAAAAAg@@ KKKKKKK AGAAAAAA@ KKKKKK AGAFAACCAGGAAAGX@@@MMFyAFASGSAAA&6=@@@",
"g@.zAAAAA::@@@@@@6,AGAGASSSSAAAA@@@ KKKKKKKK GAGAAAA6 KKKKKK AGAGAFGCCGAAAAA$:@@@@.FbFGAFGMGSA&%=@@@",
"@@aMAFGMg@XX@@@@MMbgCCAGAASSAAG5:X@ KKKKKKKK GGAAGAg KKKKKKK 66MFFFFCACAAGMg@@@@X@@@@66FFMGMCC:sg@=@",
"@@@gCMCGGMMu@@@@@@MFCCGFAAASAAgXXX KKKKKKKK MMGCGMM KKKKKKK X@@@@@@@@8:FMAMMFFg@@@@@@XXX@@@@@@@+=@=@",
"=@+=@@@@@@@@@@@@@@X@6,FnCmCCbFFFMg KKKKKKKK @@@@@@ KKKKKKKK @@@@@@@@@@@@@@@@@@@@@@@@@@@@@@@@@@+*=@=@",
"==*@@@@@@@@@@@XX@@XXX.@@@+@@@@@X@ KKKKKKKKK @@@@@ KKKKKKKK X@@@@@@@@@@@@@@@@@@@@@@@@@@@@@@@@@@++=@=@",
"==*=@@@q6&:55:$5,86X@@@@@@@@@XX: KKKKKKKKKK @@@  KKKKKKKK XX@@@@@@@@@@X@@@@@X@@@@@@@@@@@@X@@@@+%=@=@",
"@=*@@86=@q:@$:$:@@..@@@@@@@@@66: KKKKKKKKKK @@ KKKKKKKKK &,@@@@@@@@X:5$::::::::@@@@@@:,6686;@;+*=@=@",
"@=+=6wrMFabFFgbFsMg,6&@X@@@@6r0 KKKKKKKKKKK @ KKKKKKKKKK @@@@XXXXX65$5::$:::@@@@@@.:65:566.:XX@*=@=@",
"@=*@XMbfgbFsuFsMg@X@X@@X@@@@XMM KKKKKKKKKK @ KKKKKKKKKK Mss56$@XX605nFkFbnnbMMs5,6,w0nFnGMbu6k@+;@=@",
"@@o=MbfSGAAGGGGAAAAMg::X@@@@bb KKKKKKKKKKK  KKKKKKKKKKK g@@@XX@@@@MMgMsMuuDDg@+XXX@FFMFnMs*fX@@+=@=@",
"@@o@+XSSAAAAAAAAAAAGMs@@@@@@@@ KKKKKKKKKKKKKKKKKKKKKKK AAAAsg$:@@MMgAGGAGFAAAAAFg5FMbAAFAAAAFM@g=&@=",
"@@o=XAASAAAAAAAAAAAAAs@@@@@@@A KKKKKKKKKKKKKKKKKKKKKK AAAAAAsg@@@@@AAAAAAAAAAAAAMg@XMAAASVSAAAA+g=@=",
"@@*@66FFGAAGAGGAAAAA@@@@@@@@6 KKKKKKKKKKKKKKKKKKKKKK AAAAAAAGg@@XXAAAAAAAAAAAAAAGg@AAAAAVSAAAAAAg@@=",
"@@+gMssCGAGAGAGAAAA6;@@@@@@FM KKKKKKKKKKKKKKKKKKKKKK AGGAAAA@@@@@66AAGAGGAGGAAAA@+66GAAASVSSAAA+==@=",
"@@*=@MFAGFAGACAGFAg@@@@@@X.X@ KKKKKKKKKKKKKKKKKKKKK AGAAAAM::@@@MMgMGAGAAGAAAAA6@MMMMGAGSSSM6A+&==@=",
"@@o*@X@85FFbFFFMMFFFbaXXX@@XX K  KKKKKKK   KKKKKKK nGAMGAMg+@@@@XXFnGAGGFAGMGAg@@@@AFFFGGGAGazX@==@=",
"@@+;86=6$5XXXX@@@@@$66,,$$86 K    KKKKK     KKKKK 5FCGGMGMFMMs@6$5@6wwnFbFFFMMGMGg.XX:0nGGGADF@zg=@=",
"@@;;:5,:@@XX@XX@@::5:5X,:66@ K     KKK      KKKK &,:66X@@@@X$:,6:::6::@56@@@@@@@@@X@$::6:$66::+6**@=",
"@;=bDkbFsM::6X@@:5wuMbknbbFM K     KKK      KK  ,66:X.XX@@@,5wkbaFbMbFbnbMn,66@X@@@&6ibMbnbbCMM@;*@@",
"@@ggaFaM@@@@@@@@@sMMsFagFMz@ KK    KKK     KK GbFzFFMF666@@@aFabgAsMsMgGb@@@@@@X@@@@gMMMaaMGsMM&+=@=",
"@g+zAFAGAFbM:6@@sMMAGGAACCAGA KK  KKKKK   KK gMsbMnb@=XXX@@gMsAACCAGAAACGGMFM,6X@@@sMMAAAGFAGAAs&;@=",
"@@+AAAAGCAAgbX@@@@AAAAGACCAGGA  KKKKKKKKKKK AAGACAFAAFFb:5@@XAAAACCAGACCASSSFb@@@@@@@AAAAAGGAAA&g*@=",
"@@AAAAAAAGAGMX@@@GAAAAAFAAFAG                GAGAAAGFAFFbX@@AAAAAGGGAGCAGFSGGM@@@@@@AAAAAGAAAAAAz*@=",
"@:.MAAAAAAG@@@@@:6MAAAAAAAAAA JJJJJJJJJJJJJJ GAGCACAAAAGM@@6&AAAAAAAAAAAAAAAXXX@@@@&,FAAAAFAAAAX%*+*",
"g+=zAGAGGA=6@@@gMMgGAAAGGAAGA  JJJJJJJJJJJJ AAAAAAAAAAA@@@gMabAAGAAGGAGAAGA66@@@@@sMMFAAAGAAAAA6&*@@",
"@@fAAAAAAA+@@@@@@gGnAAAAAAAAM@ JJJJJJJJJJJ AAGAAAGGAAA:5@@@@gMAAGASSAAAAAmF.@@@@@@@@gAGGAAFAAAA:;=@=",
"@+*aFMMGAMMMA@@@@@@$8gMGMMAGFF  JJJJJJJJJ  AAAAAAAAAFF@@@@@@@.6&gMAMAAMAAGGMMF@@@@@X.X$:sMCAFbMMg=@=",
"@@*=@@X8$0686:X::5::@@@@@@@@@@, JJJJJJJJJ MAMFFAFFFFnGnFF$6,,X@@@@@@XX.66:$6:$XX@@@@@@5566@,,,:@+*@=",
"@@+=@6&6:@,@@:5:::XX@@@@@@@@6&6 JJJJJJJJ  @@@@@@6X,6,8$:6:$XXX@@@@@@X5:q@:0@@XXX@@@@::$:=:$,@6X@**@=",
"@@o@86wnkFngcbiFGMMg688@@@@660F JJJJJJJJ @@@@@X,66naMFaFbaFMa66@@@XX60wMFFbMFg66&@@6w0MFgnnbbMb&1*@@",
"@@.=@MabbaFaXbFbMg@@X+@@@@@@ba  JJJJJJJJ  @@@@@XFaFbgMggFng@@@@@@@@XXFMMaFbaXXXX@XXXFMaFgaabsMs@-*=@",
"@@+=FgMGGGAAAAAAGAAAFg6@@@@Gg  JJJJJJJJJJ @@@@@FgGAAAACCFSSVSmf6;@@@MMbGAGAAAAMs6=@MMgAGAGAGAAAb&;=@",
"@@o@+@AAAGAGAAAAAAAAAMg@@XX@  JJJJJJJJJJJJ  @@@@+AAAAAGASSVSVSMg@@@@X@AAAAAAAAAbg@@@@GAAAAAAAAA6s@=@",
"@@.=@AAAAAGAAAAAAAAAAAg@@@@  JJJJJJJJJJ JJJ @@@XAAAGAAAASSSSAAAf@@XX@AAAAAAAAAAAg@@XAAAAAAAAAAAAA*=@",
"@@.=6&AGGGAGGAGAAAAAA@+@@@@ J JJJJJJJJJ JJJJ @@6;AGAGCCAMSSSAG++@@@X6,GAAGGAAAAX@@@66AGAGAFAAAA&z*=@",
"@@ogsFMAAGAGAAMGAAAA,6@@@@  J JJJJJ JJJ JJJJJ MgAbAAAFAAGAAAA6;@@@@FMMuAGCAAAA6:@@bFgMAGAFACAAA6z+*@",
"@@*@XnMGFAGMAFGGFFAa.@@@@@ J  J JJJ JJJ JJJJJ  @GMACGGFGMAAFg@@@XX@@@MFFAACCAgXX@XX@MFFAFFCCFAAXA*=@",
"@@.85:@6:MFFMAMGkFnFnFg56  J JJ JJJ JJJ  JJJJJ @@@6@FMMFGFMFnFAgXXXX@@@66FGAGFnFg@@@@@66FbMFMFAFg*=@",
"@+;8:s@X:@@@@@66868X:68=  J JJJ JJJ  JJJ JJJJJJ @@@@@@@6XX,6,6@66:X6$:@XX@@@@@@:,6:$0@0@:@@@@X@@@+=@",
"@@+MGMg6::X@@6w8MMgFMMM  JJ JJJ JJJJ JJJ JJJJJJ @@@@@@6,6FX:606@,:6=@@@@XXXX@686,:::6$:@@@@@@@@@@;+@",
"@@gggAXsX:XXXXFMgFFugGM JJJ JJJ JJJJ JJJJ JJJJJ 8,@X@@XFwwFFknbFFgkMsd,66@XX600FnFDkFMbag6@:@@X5+&*+",
"@@*zAAAbM6:@XFbaAAFSAA JJJ JJJJ JJJJ JJJJ JJJJJ  @@XXXMXMAgAuMMskFgs@@XX@@@@XFbbMgFuMsg@X@@@@X@@6-=@",
"@@*AAAAAMuX@@@XAASSSAG JJJ JJJJ JJJJ JJJJJ JJJJJ  :X@..FGAGGFGGGFFAAGFds@:@@bbbAAAFFAGAAGgk:&XXF;-=@",
"@+=zAAAAAg@@X.AAAAAAA  JJ  JJJJ JJJJJ JJJJ JJJJJJ @@@@@AAAAAAAAAAAAAAAAgg@@@+*SSAAAAAAAAAAsg@@@@+8+@",
"@g*zAAAA@@@@X6,FAACGA  JJ JJJJJ JJJJJ  JJJ JJJJJJ @@@@6@AAAAAAAAAAAAAAAAg@@@+SSSAAAAAAAAAAAs@@@@6%*+",
"@@.MGAA8;@@@MMuMFAFA   J  JJJJJ JJJJJJ JJJJ JJJJJ  @@MX,8ACCAGAGAAGAAAA@@@@@81SSGAGAGGAAAA@@..@6+8=@",
"@@.bAAggg@@@X@FFAFA  JJJ JJJJJJ JJJJJJJ JJJ  JJJJJ  @XFMAGCCCAFAGCAAAG@8@@@MMMGMAGAGAAAAM:&@XXFM%;=@",
"@@+zFnFFFa@@XXXX68  JJJ JJJJJJ  JJJJJJJJ JJJJ  JJJJ  @@@MMGGAGGGGAFAMg@@@@@@@MFFGGACGGGGg@XXX@@@q&*+",
"@@*=:>5:6X6,6::XX  JJJ JJJJJJ  JJJJJJJJJ  JJJJJ JJJJ   ;@@66AAMCAFbFnFMMs@@@@@@66bCGAMMMAGFg@@:@+@*+",
"@+=8i::6>$,::XXXX JJ  JJJJJJ  JJJJJJJJJJJJ JJJJJ  JJJJ  @@@@@@@@XX665$6$:566XX@@X@@@@@XXX::>5$@5@@=@",
"@88quFFCnbnbMMg6 JJ JJJJJJ  JJJJJJJJJJJJJJ  JJJJJ    JJJ @;=@@@@606=:$:0$:XX:,@X@@@@@@X66:5:05k:+;=@",
"@8ggAMMsFaMMg@.@ J JJJJJJ  JJJJJJJJJJJJJJJJ  JJJJJJJ     86@@=*80iMMGMFknDbF,=,X@XX@@@60wbMFnMbn+6*@",
"@gMgAAAGGGAGAAFA    JJJ   JJJJJJJJJJJJJJJJJJ   JJJJJJJJ  g@==@@=FbMgbgMMaD86MgX6:X@@=@=FbbFMgMFFM%;+",
"@M+AAAGAGAAAAAAAFg@    JJJJJJJJJJJJJJJJJJJJJJJJ        AAMg6@@=MbMSAGAGAGAGGgM:68=@=@@MMMGFAAAAA&s=@",
"@@AAAAAGAAAAAAAAFg@@@      JJJJJJJJJJJJJJJJJJJ      AAAAAAG+@@@+XMSSAAAAAAAAGAAs8;=@@@@@AAAAAAAAAz=@",
"+;AASSAFAAGAAAAAo+@@XX6,GG  JJJJJJJJJJJJ       AAAAAAAAAAGF@@@XXAAAASSSSAAAASSSFg++&@@=AAAAAAAAA63*=",
"g8@MSSFACFAAAAA6;+@@@MbbgGAF               6@AGGCGAGGAAAA@X@@@@,wCCASMSAAAAASSSAg+@+@=6,AGGAGAAG3;*+",
"M@yASSFACGAFGAg@@@@@.X@MAGAFFA    FAgXX@   gaMGACCGAAAGA86@@@@bbMgFAASFSAAAAVSS=@@@@XMbbMAAFAGAG+8=@",
"@+MMAqFMFAFFMFbAGg;;,66&@6:FGAG   FGAFFg   ,FFAbCCAGAGAM8kk888,6MMAGAASSAAAmSV>$@@@@XXoFGAGAGAGCbz=@",
"@;@8g@MM@@@@@@@,:@68:$@@@@@@@@@   68:6w=    =@0,GAFMFnnFFFF,,6$X@@68MSSAbFFFFGF,6=$,,,>060,FCGAC6q*@",
"@@ggFMs06&@=@=8w,GgbnFAg88;@@@@   00nFbMF   Mg=6&=@@6wiFFnFnFGbFs88;**+16*8,55bFg8$0,,,,====s@@:+@=@",
"@g@gA@gX;@=@=@@MasFMFg@==@+=@==   bnFbGgF   @@@@XO@@=MMMFGFbMMg@*O***-8w,HFbFDbMFbbnnnnFFg8k,=G0g;;@",
"@@=AAAAAz8;=@=MggGAFFMGSMzq;=@=@  MFAGCAM   AAFg,,@=MMMGMSSMAAAAAAz8;**xMaMbgbbbkFabAbFa,=oOoAAA6g=@",
"@@AAAAAAMs@@@@++GGGAAAAAAFs+.@@@   GSSAGA   AAAGg=====GAFFAAGAACAAMg==AMgAGGGGGGGGGGGGAGMSFaSAAAAm.+",
"@&@AAAAAAg===@oAAGAAAAGAAAg====@   SSSAAA   AAAAg@@=,AAGAAGAAAAAAAAg=**=AAAAAAAAAAAAAAAAASAAgAAA6-.+",
"g@+zAAAA===*==8,GAGAGAAAAoo=====   SAAAGGA  AAA=@===8gGGAAAAGGGAAA**===AAACAAAAGGAAGAGAAAGAAM=FA68=@",
"@@aMAAA8;==*=AggAGGAAAFA0,O=====   MAAGASG  AF8*888MFMGAAAAAAAAAA,q88800GGAAAAAAAGAAGAAAAAAAgMm06q=@",
"=+oyzMGy+***o+@zAzAAAAAMo,8;,;,;   MAAAAAA  Aa&88*;;8kAAAAAAAAAAh81;,garfgfAAAAAFAAAAAAAVSSSAFaggg+@",
"=*oyzzggff;8;88*OAAAAAAAzbf;,;;,   AAAAGAA  AzMMAMzzgbbAAAAAAAbzxghyrgiygzmgAAAAAAAAygAafVSSgayg&1*@",
"==++*;;**&+-=+==;8AAAA;;*8+11;8-;   AAA=AA   =6=::31zF=,AA;8A+:*,*1;-;==+gm@*AA&8AA&ggm**+S*1;;*+&=@",
"@@+-+++;+&1&;86sM@@AA*66&8666.666   +A.,@A   &&66686O,zFAAggz*@@@=+++@==+%&gMAmsMAm+.@++mAm-*==*=+=@",
"@@@@.@@=@@@@@@@@@gMMA.+*.@@@@@@@@@  gg+ggg@  @@@@@@@@@@@,8gMM@gg@@@@@@@@@@@@@;6gAA:sMF@@@@&@gg@@+==@",
"@@@@@@@@@@@@@@@@@@@:6gGMX@@@@@@@@@  @;@gs&@  @@@@@@@@@@@+@@@@@@@@@@@@@@@@@@@@@@@@@XX+X@@@@@@@@@@@@=@",
"@@@@@@@@@@@@@@@@@@@@.@@@@@@@@@@@@@  @@@@@@@  @@@@@@@@@@@@@@@@@@@@@@@@@@@@@@@@@@@@@@@@@@@@@@@@@@@+*=@",
"@@@@@@==@==@@=@==@==XO@=@=@@==@==@  @==@@=@  =@=@=@==@=@==@@@==@@====@==@======@==@====@@@@@@@@@++=@"
};
