/* XPM */
static char *idle41751461598[] = {
/* columns rows colors chars-per-pixel */
"100 100 64 1 ",
"  c black",
". c #061327",
"X c #061427",
"o c #081327",
"O c #081427",
"+ c #051328",
"@ c #061428",
"# c #07172B",
"$ c #07132C",
"% c #07172C",
"& c #07172F",
"* c #081328",
"= c #081428",
"- c #09142B",
"; c #08172C",
": c #07182F",
"> c #071A2F",
", c #08192F",
"< c #081730",
"1 c #091732",
"2 c #071B32",
"3 c #061A33",
"4 c #061A34",
"5 c #071A35",
"6 c #091831",
"7 c #081A30",
"8 c #091A31",
"9 c #081C33",
"0 c #091B34",
"q c #091D36",
"w c #081E36",
"e c #0A1D3B",
"r c #091E3A",
"t c #0A1F3C",
"y c #091F3F",
"u c #07203F",
"i c #082038",
"p c #092038",
"a c #08213F",
"s c #072040",
"d c #082040",
"f c #092140",
"g c #0A2140",
"h c #092341",
"j c #0A2341",
"k c #082342",
"l c #092245",
"z c #092745",
"x c #082447",
"c c #082547",
"v c #082548",
"b c #082748",
"n c #0A244B",
"m c #09274B",
"M c #0A264A",
"N c #08274D",
"B c #0A264D",
"V c #0A274D",
"C c #082848",
"Z c #08284B",
"A c #09284C",
"S c #0A284C",
"D c #990030",
"F c white",
/* pixels */
"=@==@==@=@=@====@==@=@==@=@=@@==@=OXO=@=@==X=@==@=@=@@=@==XXOXO=X==@==@=@==@O==@;=OX7:#@@5#@@@@=;+++",
"@@@@@@@@@@@@@@@@@@@@@@@@@@@@@@@@@@X3@@3;@@@,@@@X@@@@@@@@X:X:9#@@XX@%%@@@@@@@XX%@@@3,:XX9@@@@@@=***+*",
"@@@@@@XX@,.@@@@%@@X:@@@@@@@@@@@%@%@@77XXX@@@@@@X@@@@@@@@X,9:@X@@X,:@@@@@@@@@@::@f39qvchi9vf@7,Oo+=@=",
"@@@@@@@,@@XX@%@@@#XX@@@@@@@@@%@@%%@f7@va:7,f@@,.@@@@XX:::c3zZa,3,9@ff@%%@@@@@Xa@@=vvfOXZaOX@XXOo+=@@",
"==@@==:@=f@@7;@f:=,a@O:@==XX%%@fXa,=BaXOOaXX==@@==@@@@+f.cByXOX=Xff@=@@===@@=f@OBnVyBBZZlBBvy3;*@@=@",
"XXX.XXXsXX@@XaX.XfXXXXX@XXX.XaXXaXXAsuBBZu3B@f@@..XXXXf@vByBBBvfcsXBAff@@XXXXX@BBB*VBBVVBBBBvf*==@=@",
"...+.@s@@A@ss%@Bfs.BXu@@X..XsX@B.aBBBBBBBvBBA@uX....+@@@ABBBVVVvs@BBBBau@@X..@BBBBVVVVVVBBBBBv.=;@=@",
"@@@@@@vvBBBsZfBBBvBBZ3f:@@3q3CBBBBBBBBBBBBBBBBh5%@@@@vvBBBBBVVVVABBBBBBa@@@vvvvBBBvBVVvVBBBB+@.*=@=@",
"@@@@@vcBBBBBABBBBBBBBBs@@@@cABABBBBBNBBBNvBBB@@@@@@@vZsAABBBBBBAZBBBBBs3;@cZANNBcZBABABABBBBvB5a=;=@",
"@+==XX:BBBBBBABBBBBBBZf3%@vBfBBNBZAABABNANBBBBvs3%@   BBvBBBBBABBBBBBNZs@+@XBBNABBBBBABAZNBBBBB.f@=@",
"@+*@XsZBBBBBBBBBBABBBBvf@@@sBBBBBBBBABNBBBBBBBAvaX FF BABBAABBBBBZBZBBBf@@XBBBBBBBABABAZAANABBBBs@=@",
"@@X=X33BABBANNBBBBABBBBs@@@BBBBABBBABNABAABABBBBf FF 3BABABAAAAABABBNNZf@@33ABBAAABABABBBBBBBBB*=@=@",
"@@+=vvvvZBABNABAABABBvs@@@3:AABBABBABABABABBBBB  FFF fvBNBAAANNNBBBBv5%@@vZcvBABBNBZBZBZBNBB5Z+;=@=@",
"@@+=@@vZBZBANNABBBBBB3:@@vcusBABBAZBNBABABBBBB FFFF @vZABAAZBvNABANBf@@@@@.cZABZNNABNBZBNNvZff++=@=@",
"@@*=@@@@33vNNBBAAAABf@@@@@@ZCZvZZANNZAZNBNANB FFFFF @@X33vNvNNNvZvAvABvf@@+@X:3ZABZNZNNNABZNvB@ff@=@",
"@@*@@@@@@@@@@@@@33vvAAvf@XXXX33ZBvvZNvvZAvAN FFFFF @@@@@@@@@X@@@@X@@@@@@@@@@XXX@@@@@@@@@@@@@@+@+@@=@",
"@@o*@XX@XXX@@@@@@@@@@@@@XX@@@@@@@@@@@@@@@@@ FFFFF @@@@@@@@X@@9::3,:#9:XXXXXX@@@@@@XXX99:#,:>%5++=@=@",
"@@+<933;:@@@@@@@@@@X@@@@XX@@@@@@@@@@@@@X3% FFFFFF 3%@@@@@@X93::9O,::X>#:3:#:@@@@@XX3::#::3#9%%$+=@=@",
"@@;7:,=@@@@X@@@@@@@X::9#9##>93#X@@@@@@:#, FFFFFF @XXX@XX@@99qZC  ZvvCCww9:XXX@@@@@39icANczvZvv%+;@=@",
"@%;fZvccf::,@@@@@@3:9#3##:9:#XXX@@XXX3q3 FFFFFFF vvf:::X@@XcCZ F aZA9CcZZvkf9@:X@@XCCCfvuZsvfs$$=@=@",
"@+ffcsf@@@@@@@@@X3qrCZchAvhNZZs33#@@@@vf FFFFFF Af@@@@..+.Zvc FF BBNNBAZuf@@@@XX@@vvvBBBvAVABB%s=;=@",
"@f@lBAABAsv@:@@@X@vvcaZsfvvva@X@XX@@@vf FFFFFFF ABBBvf33@.X@ FF BAABBABBAABBsl::@@X@BBBBVVVVBBB$f@=@",
"@@@BBBBBBBfsXX@@@vvvBVZZABBAvBBvf3:X@@ FFFFFFF BBBBBBvs@@@@ FFF ABBBBBBBBBBBBfs@@X@BBBBBBBVVBBBBs@=@",
"@@BBBBBABBAf@X@@@@XBBVVABBBBBBBBZfXX@@ FFFFFFF BBBBBBBf@@@ FFF BNNNBBBBBBBBBBBf@@X:3ZBBBBBBVBBB$=@=@",
"@%.BBBBBBBX@@@@@@XBBBABAVVVVBBBBvf@@@ FFFFFFF NNABBBB@@@  FFFF BBZBNNNBABBBBAX@@@ZvvsABABABBNB%%=@@@",
"f@.lBBBBB:%@@@@@@3,BABABVVVVBBBB@@@@v FFFFFFF BABBBB3%@ FFFFF BAZBBNBNABBBBB#:@@X.@vvBABBAZANB%%=@=@",
"@@avBAAvf@@@@@@@vvcfNNBZBBVVBBB33XX@ FFFFFFF BAABABfXX FFFFFF 3ZZZZZNABBBAvfX@X@X@@@@35vZvAvNN:uf@=@",
"@@@fAvAAAvvs@@@@@@vZNABZBBBVBBaX.XX FFFFFFFF vAvvAvAv FFFFFF XXX@@@@@7:ZvAZZvvh@@@@@@@@@@@@@@@..=@@@",
"=@+=@@@@@@@@@@XX@@X@3,ZCNvAAvAZZvf@ FFFFFFFF @@@@@@@ FFFFFFF @@@@@@@@@@@@@@@@@@@@@@@@@@@@@@@@=+*=@=@",
"==*@@@@@@@@@@@XX@@XXX.@@++@@@@XX@@ FFFFFFFF @@@@@@@ FFFFFFF @@@@@@@@@@@@@@@@@@@@@@@@@@@@@@@@@+++=@=@",
"==*=@@@35#::9:#9:73X@@@@+@@@@XX:3: FFFFFFFF @@XXX3 FFFFFFFF @@@@@@XX@@@@@X@@X@@@@@@@@X@@X@@@@@+==@=@",
"@=*@@75=@3:##:#:@@.X@@@@@@@@@53:3 FFFFFFFFF @@X3X FFFFFFFF @@@@@@@@X39@:::%3>::@@@@@@>:3375%@;+*=@=@",
"@=+=:w9ZvhvvcccBfvf73%@@@@@@3q9Z FFFFFFFFFF @@3  FFFFFFFF X@@XX@XX33#9::#,::,XXX@@X3::>95@@XXX@+=@=@",
"@=*@XZcffvZfucuAs@.@X@@@@@@@XcZv FFFFFFFFFF @@ FFFFFFFFF sh3:#@@X397CZfZcCCcvvs3:,:piCCZAvZc:c@*;@=@",
"@@o@ccfBAABAAABNBBBvs:%@@@@@cZv FFFFFFFFFFF % FFFFFFFFFF @@@@@@@@@vvacfvuaCCf@@@XXXvCZCCvf@fXX++=@=@",
"@@X@@@BBBBBBBABBBBBAvf@@@@@X.XB FFFFFFFFFF f FFFFFFFFFF BBBsh@:@@vvfBZABABVvBBBvf3vvcBBvNBNBZZ@f=%@=",
"@@o=XBBBBBBBBBBBBBBBBf+@@@@@XB FFFFFFFFFFF  FFFFFFFFFFF BBBBsf@@@@@BBVVVBBBBBBBBvs@XBBBBBBBBBBB@f=@=",
"@@*@:5BAABNABAABBBBB@@@@@@@@:, FFFFFFFFFFFFFFFFFFFFFFF BBBBBAf@@XXBBBVVVBBBBBBBBAf@ABBBBBBBBBBBBs=@=",
"@@+fvffNNBNBABAVBBB5;@@@@@@vvZ FFFFFFFFFFFFFFFFFFFFFF AABBBB@@@@+33BBBVABABBBBBB@@3:BBBBBBBBBBB@==@=",
"@@*=+AABAANNBABvZBfX@@@@@@@@@ FFFFFFFFFFFFFFFFFFFFFF BBBBBv::@@@vvfvBBAVABABBBB3@ZvccNBBBBBB3B@@==@=",
"@@.=@X@73CZZZcZCZcZcZuX@@@@XX FFFFFFFFFFFFFFFFFFFFFF BvBBvf+@@@@XXZCZVvAZAvABBf@@@@AZAAZBVVcaf@X==@=",
"@@.;73=3=3XX@X@@XXX:::#9##3,9 FFFFFFFFFFFFFFFFFFFFF ZZZZAvZvvs@3#:X3qqCZvZZZAvAvvf@+X:qZZZcZNv:uf=@=",
"@@;,@w::XX@@@X@@@::3#9#:7:3@X F  FFFFFFF   FFFFFFF ,33X@@@@X@:,,:3#5:,@73XXX@@@@@@X@#,:3,,73@w+3+=@=",
"@;=lZhcZaZ3:3X@@:9wsZZaCvvvZ F    FFFFF     FFFFF 3,XXXX@@@,wwfZhCcvcZcCcvZ#:3@X@@@%3pcvcZccvvc+;*@=",
"@@yfaZav@@@@@@@@@svvuvffvvv@ F     FFF      FFFF lvvvZ335@@@ucuvfZfvsvfBZ=@@@@@X@@@@fvvvaavZfvv%*=@=",
"@f+lAAVAANsZ:3@@svvBvBAANBNN F     FFF      FF  vZvv@@XXX@@fZaBBNNBBABBNvVBAv,3X@@@svvBBAvBZBBBc%;@=",
"@@+BBBVVABBfcX@@@@BBBBBAZBAB FF    FFF     FF ABBZAABZcC::@@@BBBBNNNABNNZBZBZc@@@@@@@BBBVBBBBBB%s*@=",
"@@BBBBBBBABvZ@@@@BBBBBABBZBAB FF  FFFFF   FF BBAABABZBZZZX@@BBBBBNNNBANABZBZAv@@@@@@BBBBVVZBBBBBl*@=",
"@%.BBBBBBBB@@@@@:3vBBBVVVBBBVV  FFFFFFFFFFF BABABNNNBBZBv@+::ABBBBBBBBBBBBBBXXX@@@@%,ZBBBBABBBBX$*+=",
"f@.lBBABBA@3@@@fvvfBBBVABBBBV                BBBBBBBBBVo@@fvavBBAABAABBAABA33@@@@@svvZBBBABBBBB3%+@=",
"++avBBBBBv@@@@@@@fZCBVVVBBABV DDDDDDDDDDDDDD ABBBBNABB:3@@@@fvABBBBBBBBBBBv=@@@@@@@@fvZBBBZBBBB,;=@=",
"=@=fcCZZBvABv@@@@@X#3acvBvABv  DDDDDDDDDDDD BBBBBBABZZXX@@@@@+;7svAvBBBvNvABvZ@@@@@@@=#:cvNBZcvcf=@=",
"@@*=@@X,::9#3X@9:9::@@@@X+@@@@ DDDDDDDDDDD BvvAABZZvZZZZZ#3::@@@@@@@XXX:3:@w:@X@@@@@@@99@:@::3@@**@=",
"@@+=@5#3:#:#X3:,:#XX@@@@++@@3%  DDDDDDDDD  X@@@@7=:3=7#:3:#X@@@@@@@@@9:5@:9@@@XX@@@@,7@3::X9@3#X**@=",
"@@*@759ZhCZhhcpZAZvf3,,X@@@793C DDDDDDDDD @@@@+7q3ZaZZhZcaZva33=@@@@99qvZAcZAs93;@@3q9ZvfCCccvc%<*@@",
"@@+=@vaccaAf@ccZvs@@XX@@@@@@caZ DDDDDDDD  @@@@@@ZycCfvffZCf@@@@@@@@@XCvvavcaXXXX@XXXvcaZaaacsvyX$*=@",
"@@+=BycBAAABBABASBBBvy5X@@.ZfvB DDDDDDDD %@@@@@vfBBBNNNNZSBBBny7%@@@vvcABABBBBvu3=@ZvuBABABABBNc%;=@",
"@@oXX+BVBABBBBBBBBBBBBf@@X.X@B  DDDDDDDD  @@@@@X+BBVABBBVVBBBBvf@@@@X@BBBBBBBBBcf@@@OBBBBBBBBBB5s@=@",
"@@.O@BVVBBBBBBBBBBBVBBf=@@XXB  DDDDDDDDDD @@@@@XBBBVBABBVVVBBBBs@@XX@BBBBBBBBBBBs@@XBBBBBBBBBBBBv==@",
"@@.X3:VAAABBABABBBBVB+++@@X5  DDDDDDDDDDDD  @@@3;BABABBBvVVVBA++@@@X3,ABBAABBBBX@@@33BABABABBBB%l*=@",
"@@ofuvZVBZBBBBvASVVV::XX@@v  DDDDDDDDDD DDD @@vfBvBBABZZBBBBB7;@@@@ZvvuBABBBBB3:@XvZaZvVBZBNBBB3l+*=",
"@@*@XCcZZBAZBAAAZZVyX@@X@@@ D DDDDDDDDD DDDD @@@vvBZBAABAAAvf@@@@X@@@vZZBANNBfXX@XX@cZAVZZNNZBB@B+=@",
"@@.73:@3%NvZZZvAcCZCZCh33:  D DDDDD DDD DDDDD @@@@3:vZZZvZZZZCBfXXXX@@@33ZABBZCZs@@@@@73ZcvZvZBAf*=@",
"@+;7:s@@%@@@X@:5#,3::,,@,: D  D DDD DDD DDDDD  @@@XX@XX3@@:::3@53:X3#:@XX@@@XXX:,3,#3=3;:@@@@X@@@+=@",
"@@+vAvf33#@@@7q3cZacAcccZ  D DD DDD DDD  DDDDD @@@@@@@3,:Z@:999@3,,@@@@@@@@@@373,@,#3@:X@@@@@@@@+$+=",
"@@fffB.a@@@@@@ZvaZZffBca  D DDD DDD  DDD DDDDDD ::@@@@XZwwZZsCcvZfcvfh:3%@@@39qvZZCcvvZfa3@:@@X5+%*+",
"@@*lBBBvv3;@@ZcaBAABBBB  DD DDD DDDD DDD DDDDDD XXX@XXZXvBsBkvvsavff@@XX@@@@XZZvvfcaBff=X@@@@XXX0$=+",
"@@*BBBBAZs@@@@OBBBBBABA DDD DDD DDDD DDDD DDDDD h3#@@XXcABNAZAAZZAAABAsf%%@@cvcvAAAABBBBAff:;XXZ;;=+",
"@@=lBBBBBa@@@+VVBBBBBB DDD  DDD DDDD DDDD DDDDD  f@@@@@BBBBBBBBBBBBBBBBsf@@@@@BBBBBABABBBBsf@@@@+5*+",
"@f=lBBBBXX@@X0;ZBANNBN DDD DDDD DDDD DDDDD DDDDD f@@@@3@BBBBBBBBBBBBBBBAf@@@@BBBBBABBBBBBBBs@@@@5;*+",
"@@.vBBB73.@@vlaZABZAN  DD  DDDD DDDDD DDDD  DDDD @@@@vX,5BABABABABBBBBB@@@XX3,ABBABABVBBBB@@..@3+7=@",
"@@+lBBfff@@@@@vZBZBBA DDD DDDDD DDDDD DDDDD DDDDD @@@XvZBANABABABABBBB#:@@XZvcvBNNNNVBBBv:;@XXZv+%=@",
"@@@lZZcZCuXX@@@X,3vZ DDD  DDDDDD DDDDD DDDD DDDDD @@X@@.vABNvBABANNZcs@@@@@@@ZvAAAAZBABvf@XXX@@@5==@",
"@@+=@:9:3:3#,3:XX@@@ DD  DDDDDDD DDDDD  DDDD DDDDD @XX@,XX3:ABvABZZvCZvvs@@@@@@73vNvAZvZBAZa@@:@+@=@",
"@@=7w:w@:#::@@XXX@@  D  DDDDDDD DDDDDDD DDDD DDDDD :33;,@XXX@@@@@X3:9#:#:9:3XX@@@@@@X@@@X::>9##3@+=@",
"@;70CZcZCcCcZvs3%,@ D  DDDDDDDD DDDDDDD  DDD  DDDDD w7@a@X:@@@@@9::::#99@:XX:,@@@@@@@@@33:9:9:h:+;=@",
"@5ffBvZuZavvf=X+@. DD DDDDDDDDD DDDDDDDD DDDD DDDDD ZvZv:33@=@=79iZZZaZfZCac3,7@@X@@@@59pAvvCccC+5*@",
"@fAfBBBNZZBBBBBvfw    DDDDDDDD DDDDDDDDD  DDD  DDDD  Z@BXa=@@=@=ZcvaZavvaCq3caX5:X@@=@OcZvvnacZcv$;+",
"@v@BBBABSVVBBBBBvs@    DDDDDDD DDDDDDDDDD DDDD DDDDD  BBBvf3=@=vccBBABABABAAfv@37@=@@@lvcZvVBBVV%s=@",
"@@BBBBBBVVVVBBBBAf@@@=  D      DDDDDDDDDD  DDDD DDDDD BBBBZX@+@+XBBBBBBBABBBBBAf7<==@@@XBBBBBVVVBl=@",
"@+BBBBBvABABBBBv@X@@XX3       DDDDDDDDDDD  DDD   D    VVBBA@@@@XBBBBBBBBBBBBVVVvf++%@@@BBBBBBBBB3;=@",
"f,.BBBABNZBBBBB3:X@@XBccsB       DDDDDD    D          BVB#X@@@@73ABAABABBBBBVVVBf@@+.O73BBABABBA3+=@",
"v@uZBAvANABZBAa@@@@@@@@vZZBBAv      DD           AZBVBVV3,@@@@vvZsNBBABABBnBVBVO@@@@@ZlMcABABANN@5=@",
"@@lBArZvABZcBAZBZf%%%37;X33CAZ    Z        ,cZBZABBBZBZZ9ff777,,vZBABBBBBBnBBB9=@@@@@@=ZvBABABANvl=@",
"@7=7h@vv@@@@@@@:,@::>:@@@@@@@@    39:39@   7X@9:vZcZvAvCZZC,3:#.@@3,SVvBvZAAAZS,3=O9O99,39,ZBAAA57=@",
"@@ffvvfw5X=@@=7q5vcfCCZf77;=@@=   99ZCCB   fvf=53.@X3qqZCCCCCcCZs79@***<3X7779cZf7,99,9==OO=s@O3+@=@",
"@f@fB@f@,=@==@@vafZZCa@@@=@=@=@   ccZCAf    @@@@Xo@@.vZcCCZcABf@===***6q7vZcZCcZZcChcCCCZf9f;=B9f%;@",
"@@@BBBBBf7,@=@vfaABBCBBBvl7=,@=   cZBvBBB   BBvf7,@=ccCZBBBBBBBBBvf7;**cZaccacZsaZaSccCa,=o==BBB5f=@",
"@@BBBBBBvf=@@@++VABVBBBBBvf@+@@   @BBBBAV   VVVvf====;BBAABNABBBBBBf=*BvfBAAAAAAAAABBAABBBAfBBBBBl+@",
"@%@BBBBBBf@==@=BVZBVZBBBBBf=====  BABAABV   VVVBf@@=;BBABBBBBBBBBBBf=**=BBBBBBBBABBABBBBBBVvfABB5$@@",
"f@.lBBBB=====O7;BBZABBBBBO======   BBBABV   BBB=@===7hAABBBBNBABBB*====BBBABBBBABAABABBBBBBBA=AB%0=@",
"@@avBBB7;==*=BffAABBBZABy.======   vABBAV   VV7*777vZcBBBBBBAABBB7077799AABBBBBBZBBBBABBBABBfvlq55=@",
"=+oylvAy+@=*@@@lvBvBBBvA=77;7;,;   ABBBvBB  Af7,7=3%,hBBBBBBBBBBf77<,fyryysBBBBBBZBBBBBBBBBBBvfffs*@",
"=*oyllfffy;7;7;==BBBBBBBllf;,;;;   BBBBBBB  vlccAvflaccBBBBBBBclglfyrfaaflByBBBBBBBByyBfyBBVaarf%<=@",
"==++*;;*=%+;=*+*;7BBBB*;=7.<<%7$   7BBB=BB   =5$3;<<lZO,BB;7B+%*<;<;==oO+yB++BV*7BB%ffno++n*<;:=+;=@",
"@@+$+++;+$<$<5%fB@=BB%33%3335.35    @B@;@B   +3%535;O,lZBvffl@@@*+=++==O+;$fBBvyBBv+.++.nBB;*=*=@+==",
"@@@@.@@=@@@@@@@@@fvvB.+*.@@@@@@@@   ff+fsf   @@@@@@@@@@@;3fvA+ff+@@@@@@@@@@@@;5fvA3avv@@@@%@ff@@+==@",
"@@@@@@@@@@@@@@@@@@@,3fAvX@@@@@@@@   @;@ff%   @@@@@@@@@@@@@@@@@.@=@@@@@@@@@@@@@@@@@..@@@@@@@@@@@@@@=@",
"@@@@@@@@@@@@@@@@@@@@.@@@@@@@@@@@@@  @@@@@@@  @@@@@@@@@@@@@@@@@@@@@@@@@@@@@@@@@@@@@@@@@@@@@@@@@@@+*=@",
"@@@@@@==@==@@=@==@==.X===@@@=@=@@=  =@==@@@  =@=@=@==@=@@==@=@===@==@=@==@=====@==@====@@@@@@@@@++=@"
};
