/* XPM */
static char *idle11751461598[] = {
/* columns rows colors chars-per-pixel */
"100 100 65 1 ",
"  c black",
". c #051327",
"X c #061327",
"o c #061427",
"O c #081327",
"+ c #081427",
"@ c #051328",
"# c #061428",
"$ c #07172B",
"% c #07132C",
"& c #07172C",
"* c #081328",
"= c #081428",
"- c #08132C",
"; c #08172C",
": c #07182F",
"> c #071A2F",
", c #09182F",
"< c #08192F",
"1 c #081730",
"2 c #091732",
"3 c #061830",
"4 c #071B32",
"5 c #061A33",
"6 c #061A34",
"7 c #081A30",
"8 c #091A30",
"9 c #081C33",
"0 c #091B34",
"q c #081E36",
"w c #0A1D3B",
"e c #091E3A",
"r c #091F3F",
"t c #07203F",
"y c #082038",
"u c #092038",
"i c #09203E",
"p c #08213F",
"a c #072040",
"s c #072241",
"d c #092040",
"f c #092140",
"g c #0A2141",
"h c #092341",
"j c #0A2341",
"k c #092143",
"l c #092245",
"z c #082447",
"x c #082547",
"c c #092746",
"v c #082548",
"b c #092449",
"n c #082748",
"m c #09274B",
"M c #0A264A",
"N c #0A254C",
"B c #08274D",
"V c #0A264C",
"C c #0A264D",
"Z c #0A274D",
"A c #082848",
"S c #08284B",
"D c #09284C",
"F c #990030",
"G c white",
/* pixels */
"=#==#==#=#=#====#==#=#==#=#=##==#=##==#=+#=#=#==#=#=#=#==#+o+o++o=#o++#=#==#+==#;=+o7:###65ooo#;*-@#",
"##################################o:##5<oo#<###o########o<o4>:##oo#<:#######oo&###5<<o#9##oo##=**@@#",
"######oo#<X####&###&##########o:#$o#<<ooXo#####o########o::$#o##o::#o########::#f59qSxjy9vf#7;=O@*#=",
"#######<##oo#&###&#o##########o#::oj7#vp<5<f##<X####oo:::x9SSp74<::fpo;&#####op##=vvp++Sp+o@oo*O#=##",
"==##==:#=f##7;#f<=<p#o:#==oo&;#f#f;=Dpo++po+==##==#####f*vvpX+o=#fa##=##==#==f#oCvZgCCvDfCCvf6;*##=#",
"oooXoooaoo##opoXotooooo#oooXopo#pooDapCCSt5C#f##XXooooa#vvfCCCvfjt#CCtt##ooooo#CCC+ZCCCCCCCCvf*==#=#",
"XXX@X#a##D#aa&#Cft#Cop##XXXXa##CXtCCCCCCCvCCD#aoXXXX@###CCCCCCCSt$CCCCrr##oXX#CCCCvZCCCCCCCCCC@=;#=#",
"######vvCCCaSfCCCDCCv5f:##5q5cCCCCCCCCCCCCCCCCj6&####vvCCCCCCCCCSCCCCCCr###vvvvCCCSCCCSCCCCCX#@#=#=#",
"#####vxCCCCCDCCCCCCCCCa#oX#vDCZZCCCCBCCCBSCCC######   aSDCCCCCCDBBDCDCb5<#vvCSSCSSCSCDCDCCCCCC:f=;=#",
"#@==oo:CCCCCCDCCCCCCCSf5&XBCfCZCCDDDCDCBDBCCCCva5& GG CCCDCCCCDCBCCDCDvfoo#oCCCCCCCCCDCDSBCCCCv=f#=#",
"#@*#oaSCCCCCCCCCCDCCCCvf###aCCCCCCCCDCBCCCCCCCDvp GG CCDDCDDCCCCCBCSCZCdo#oCCCZZCCDCDCDSDDBDCCCCf#=#",
"##o=o55CDCCDBBCCCCDCCCCa###CCCCDCCCDCBDCDDCDCCC  GGG 5CDCDCDDDBCCDCCZCCf##55SCZSDDCDCDCCCCCCCCC*##=#",
"##@=vvvvSCDCBDCDDCDCCvf###5:vDCDDCCDCDCDCDCCCC GGGG vtxCCBSCDBCBCCCCv6&##vSxSCCCCCCSCSCSCBCC6D@&=#=#",
"##@=##vSCSCDBBDCCCCCC5:##vxtpCDCCDSCBCDCDCCCC GGGGG oSSCSSCBCBBBDSDCf#####XxSSCSBDDCBCSCBBDvff@@=#=#",
"##*=####55vBBCCDDDDCf######SSSvSSDBBSDSBCSCC GGGGG ###o55vSSvSxSvvDvDCvf##@@o54SDCSBSBBBDCSBvC#ff#=#",
"##*#############55vvDDva#ooo#67SCvvSBvvSSvS GGGGG #########################=ooo#############@@#@=#=#",
"##O*#oo#ooo############################### GGGGGG o##########4:><5=$4:oooooo####ooooo<5&#<+5&0@@=#=#",
"##@1955;:##########o#####o####oo########5 GGGGGG 55;#######44:4  <5<#:::5:$:#####oo555&5:5:9&&@@=#=#",
"##;7:<=####X#######o:<4$4$$>44:o######<# GGGGGGG #ooo#####499S G SvvSAy94:oo######599cCbxcSSxv%%;#=#",
"#&;fSvxxf::<######5:4$5$$:4<$ooo##o##9q5 GGGGGG Svvf:::o##oxv GG pSD4cxSSSpj:$:###oSvSdCpxavfa&%=#=#",
"#@ffxaf#########o5qeSSxjSSpSvSa65$####v GGGGGGG Sf####oo@XSv GG BBCCDCDStf########vvvZZZDDDCCC&a=;=#",
"#f#lCDDCDfv#:###o#vvxpStavxvp#o#oo###v GGGGGGG CDCCCvf5:#Xo GGG CCBDCDCCDDCCxf#:##o#ZZZNDCCCCCC%f#=#",
"###CCCCCCCfaoo###vvvCZSSDCCDCCCvf5:o## GGGGGGG CCCCCCva### GGG CCCCCCCCCCCCCCaf##o#CZZCDCCCCCCCCa#=#",
"##CCCCCDCCDf#o####oCCZZDCCCCCCCCxfoo# GGGGGGG CCCCCCCCf#  GGGG CBBDCCCCCCCCCCCa##o<5DCDDCDCDCCC@=#=#",
"#&XCCCCCCCXo#####oCCCDCDZZZZCCCCCf### GGGGGGG DCCCCCC## GGGGG CDCSCBBBCDCCCCDo###vvxpCDCCDCCDC&5=###",
"f#XlCCCCC5&######5<CDCDCZZZZCCCC#### GGGGGGG CCDCCCC5& GGGGGG DCDCDCDBDCCCCC::####OSvCCDSDSCCC&%=###",
"##pvCDDvf#######vvxfBBCDCCZZCCD4:o# GGGGGGGG vDCCDCfo GGGGGG 55vDSSDBCBCDCvfoo######o56SSvDvBB:tf#=#",
"###fBvDDDvva######vSBBDSCCCZCCfooo# GGGGGGGG SDCDvDv GGGGGGG ###ooo##75vDSSSvxf#####o##o######o.=#=#",
"=#@=##############o#5<ScBbDBvBSSvf GGGGGGGG ####### GGGGGGG ########################o#########@*=#=#",
"==*########o##oo##oooX##@@###o#o## GGGGGGGG ###### GGGGGGGG ##################################@@=#=#",
"==*=###76::94:$4<75o#########oo:5 GGGGGGGGG ##### GGGGGGGG o############oo##o########o##oo####@%=#=#",
"#=*##76=#7:#$:$:##XX#########55: GGGGGGGGGG ###  GGGGGGGG :#########:5#5&5&&>::######::5576;#;@*=#=#",
"#=@=599SSpxSDfxBavf75&######5q9S GGGGGGGGGG ## GGGGGGGGG ####oo#oo55=7:5$::4######X:54:445o:oo#*=#=#",
"#=*#oxSfpxSatSavf#X#o#######ovS GGGGGGGGGGG # GGGGGGGGGG af5:$##o599cSjvjSAjvvf4<5<q9ccSvvxa5j#@;#=#",
"##+#xvfCDCCDDDDCCCCva:&#####xSv GGGGGGGGGG 5 GGGGGGGGGG f###oo##@#SvfvaSaaxSf#@oXo#SSvScvf#fo##@=#=#",
"##+###CCCCCCCCCCCCCDvf#####oXO GGGGGGGGGGG  GGGGGGGGGGG CCCaa$:#XxxfDCDDDDCvCCCSf4SvxCCSCCDCSv#f=&#=",
"##O=#CCCCCCCCCCCCCCCCa#######C GGGGGGGGGGGGGGGGGGGGGGG CCCCCfa##o##CCCCCCCCCCCCCvf#XCCCCCCCCCCC@f=#=",
"##*#55DDDCCDCDDCCCCC########67 GGGGGGGGGGGGGGGGGGGGGG CCCCCCDf##oXCCCCCCCCCCCCCCDf#SCCCCCCCCCCCCf##=",
"##@fvaaCDCDCDCDZCCC6;######vv GGGGGGGGGGGGGGGGGGGGGG DCCCCCC#####55DDCDCDCDDCCCC#@55SCCCCCCCCCC@==#=",
"##*=#xBCDSCDCDCvSCfo######### GGGGGGGGGGGGGGGGGGGGGG CDCCCS::###vSfvCDCDCDCCCCC5#vvvxSCCCCCC7C@1==#=",
"##X=#o#7:SASxSSSvSSSxpooo##oo GGGGGGGGGGGGGGGGGGGGG CDSSSvf@####ooSSSCSDDDDSCCf####CSDDSCSZvpp@#==#=",
"##X;75=5$5oo######o$55$5$$5:4 G  GGGGGGG   GGGGGGG cSSvSDvSvvf;5$5o7qqScvcSSDvDvDfXoo:qSSSDvSS;ff=#=",
"##;<$:::#####o###::4=5$$::6# G    GGGGG     GGGGG &555######=5&5:::5<<=:5#########o#$<:5<#07#5@6**#=",
"#&=lccxSfv5&5o##:4qtSSjccxSv G     GGG      GGGG 55<oo##X##;4qfxpSxvxvvSfSD#<6#o###&5yxvxSvvSvx@;*##",
"##fafDfv########@fvvpSpfSvv# G     GGG      GG  vvSxvS5<4###axfvfSavaSfSv###@@=o####fvvvppvSfvv&%=#=",
"#folDDCCSCxv:5##fvvCCSCCBBCC GG    GGG     GG Davvxx#oooo##aSpCCBBCDCCCBDDCDv75o###avvCCDDCSCCvx&;#=",
"##oCCCCCCSCfx###@#CCCCSCCBDCC GG  GGGGG   GG CDCSCDCCCxS:4###CCCCBSCDCBBBCDCSx#######CCCCDCCCCC:f@#=",
"##CCCCCBDCCDv####DCCCCCSCSCDCD  GGGGGGGGGGG CDCSCDCDZSSSxo##CCCCCCCSCDBBBSCSvS######CCCCCCSCCCCCl*#=",
"#:XvZZZNZNC#####:5vCCCCCCCCCZ                DCDSCDCCDCDD@#<5CCCCCCCCCCCCCCCooo####&<SCCCCCCCCv<%*@*",
"a#=lZZNZZZ#7###fvvpCCCCDDCCDZ FFFFFFFFFFFFFF CCCCCCCCCC##@fvpxCCDCCDDCDCCDC65o####avvSCCDCDDCCC5&*#=",
"#@fvZZZvZb@@#####fSSCCCCCCCCv  FFFFFFFFFFFF CDCCCDBBCC:5####fvvCDCCCCCCCCvC##o######fCSCCCCCCCCo#=#=",
"###lvSSSCCvCC####oo$7fDvvvCDvS FFFFFFFFFFF CCCCCDCCDvSoo#####X<7fvvSCCvDCDDvDv#####ooo$:aDCDvvxSf=#=",
"##@=###5$::$5oo7:4::##oo######  FFFFFFFFF  CvvDDCvvDSSSSS#:5;#######ooo75:$5<$oo####oo54&6#5<5##@*#=",
"##*##7=6>:::X5754oo###oo####5&5 FFFFFFFFF ######6;77$<$$<q##@########4:6&:5##ooo####<5$<&&:<#5$o;=#=",
"##*=56qcjAcjSxucDSvf5<5o###595c FFFFFFFF  #####775vpSSfDcjvvp67&###o599vvSxSSf55&##5q9SxjSfxxvx&1*@#",
"##O#ovpxStxpoxSvvf##oo######xpD FFFFFFFF #######CpSSpvffSDf#o######ooSxSfvxp+ooo#ooovxpSpfpxavro-**#",
"##=#vfvCDDDCCDCDDCCCDf5###XStC  FFFFFFFF  #####vfDCCCSCDvCCCCSt5;###vvxDCDCCCCva5=#vvfCDCDCDCCBx#;=#",
"##@###CCCDCCCCCCCCCCCva##oX#o  FFFFFFFFFF ######@CCCCCCCCCCCCCxp####o#CCCCCCCCCxf##o#DCCCCCCCCC5f==#",
"##o##CCCCCCCCCCCCCCCCCf#####  FFFFFFFFFFFF  ###oCCCDCCCCCCCCCCCf##oo#CCCCCCCCCCCf##oCCCCCCCCCCCCC#=#",
"##o#::DCCDCCDCDCCCCCC######  FFFFFFFFFF FFF ###5;CDBBBCDDCCCCC#####o5<CCCDDCCCCo###55CDCDCDCCCC:l==#",
"##OftvSSCDCDCCxSBCCC::oo##v F FFFFFFFFF FFFF #vfCvCCCDCCCCCCC5#####SvvtCDBCCCC5:##xSfvCDCSCBCCC6l@=#",
"##@=oSxCSCDvCSDDDDClo#####  F FFFFF FFF FFFFF ##xvBSDDSBSSCCf###oo###vSSCCBBCfoo#oo#vSSCSDBBDCD#C*=#",
"##O7::&5&BSSvSCDjcSSScj65& F  F FFF FFF FFFFF  ###5:SvSvBSScScSpoooo###55SDCDScSf#####55vvvSvDvDf*=#",
"##;7:a##&####o:5$4<:::7#<  F FF FFF FFF  FFFFF ##ooo###5#o:5&<<55:o5$:#oo######:<5:$9#9#:####o###@=#",
"##*vDvf55####4q5xSpSSxxx  F FFF FFF  FFF FFFFFF ######5<9v#59:::#5:#####oo###55::::$5$$o##oo#####@=#",
"##fffCopo<##o#vSpSvpfSv  FF FFF FFFF FFF FFFFFF 5<#o##oS9eSSpSxDSjxvfs:5:###99uvcSAxxxSft5$:###4#&=#",
"##*lCCCvv5&#oSxpvZDZCBC FFF FFF FFFF FFFF FFFFF o##o##vovDaCpSxtpvff##o#####oSxvSjxtCff#o####ooo6%=#",
"##@CCCCCvf####oCZZZZCC FFF  FFF FFFF FFFF FFFFF  <<X##oxCDDDDDCSSDDDDDsf#:##xxxCCDSSDCCCDaf:&oXS&-=#",
"#==lCCCCCa####ZZZZCCCC FFF FFFF FFFF FFFFF FFFFF  #####CCCCCCCCCCCCCCCCff#####CCCCCCCCCCCCfa####@6*#",
"#f=lCCCC####o6;SCNBBB  FF  FFFF FFFFF FFFF FFFFFF ####5#CCCCCCCCCCCCCCCCf####CCCCCCCCCCCCCCf####6%*@",
"##XvCCC5;###vvpSZDCCB FFF FFFFF FFFFF  FFF  FFFFF ###vo<7CCDBBCBCCDCCCC####=5<DCCCSCDDCCCCooo##5@7=#",
"##XlDCfpf####=vSCCDCD FF  FFFFF FFFFFF FFFF FFFFF  o#oSvCDDCDBSCDCCCCD@7###vvxvDCSCDCCCCv::###vv%&=#",
"##@lSSScDt#####o<5SS  F  FFFFF  FFFFFF  FFF  FFFFF #o##XxDCDDCDDDCSCxpo@#####SSvDDCDDvDDf#ooo###6&*#",
"##*##55<5$::<5:oooo  F  FFFFFF FFFFFFFF FFFF FFFFF  o@#<o#:5vCvDCSvSSSSvf#####o56vDDDvvvSCSf##:#@#*@",
"##=7y9:5><::##oooo  FF FFFFFFF FFFFFFFF  FFF  FFFFF  07;#oo#####oo554$:<:5;5oo######=###X::>4$#4##=#",
"#;70acSDcpSxSva55  FFF FFFFFF  FFFFFFFFF FFFF  FFFFF  @p#o:#####595#>=54#:oo::########o55:4>94j:@;=#",
"#6ffCvvaSpvvd@oooo    FFFFFF  FFFFFFFFFF  FFFF  FFFFF vS:<7##=*79uvDSxSfSSlv5=<o######7qqxvvSxxS#5=#",
"#fDfCCCDDSCCCCCCf5<  FFFFFFF  FFFFFFFFFFF  FFFF    FF  C#p@;=#@=Sxvfxpvvpcq;Dfo::######vxSvCpxSxl@;#",
"#v#CCCvCDZZZCCCCvfoo   FFF   FFFFFFFFFFFFF  FFFFFF      Cvf7@==CxvZCCSCDDZDCfD#51;#=##vvxCCCZZvZ&a=#",
"##CCCCCDDZZZCCCCCf#o#=     FFFFFFFFFFFFFFFFF   FFF      CCD@#@#@ovZZCCCCDDZZCCSl7;=#####CCZNZZZZCl=#",
"@&ZZCCZSDBCCCCCC#oo#o#5:D    FFFFFFFFFFFFFFFFF     CCCCCCCS###ooCCCCCCCCZNZZCCvDa@X#o#=CCCCCCCCC01*#",
"f<*ZCCCZCBBCCCC:<o##oxxxfDCSD                 CDCBDBDCCCC$o####<6DCDDCDCCZNZCCCCf@##o+5<CCDCDCCD5@*#",
"v#fvCCvZDDDSDCp+####Xo#vDDCSCD    Dvf+o    fpxSCDCDBCCDC75o###xxCaDCCDCDCCZZCCD=#####SxZSCCSCDCD&5=#",
"=@vvSqSvDCvSSvCvvf&&5<5&#5:SDC    DSZSvj   7SSCxBBCDCDDD<jj<<9<5vSCDCDCCCCDvCC<=####oo+xvDDCDCDCll=#",
"#&#7f#vS#######55=::4$#########   59:59#   &##95DCDvScScSDS>:5#o##5<vDCvCvDDDvD<7<$<$9<<59<SBDCB60@#",
"##ffSCa75==#=#7q6vxpScDf77;=###   99cASC    vf=6&=##:e9SccScSSvSa77=**#17*77q4SSf7<<<<9$=++=a#o5@#=#",
"#f#fC#a#<=#===#vpfSSSf###==#=#=   xxSSDfC   ####o+###vvvcSSxvSf#====*-0q7vDxScxSSxxccScSSf9f$+C9f;;#",
"##*CCCCCf7<#@*DfpDCCcDCCvl7;#=#   xSCvCCS   CCvf7<##vvvSDCCDCCCCCvl7;**lDfxxfxxlpSpxDxvp<=+==CCC6f=#",
"##CCCCCCva####@@CCCCCCCCCva@X###  =DCCCDC   CCCvf=====CCSSCCDCCCCCCf==CSfDCDDBDDDDSCCDDCvZSlZZZZCl*@",
"#&#CCCCCCf===#=CDDDDCCCDCCf====#   CCCDCD   CCCCf##=<CCDCCDCCCCCCCCf**OXCCCBCCCCDCCDCCCCZZZvfZZN6-*@",
"a#olCCCC======7<CDDCDCCCC=======   DDDCDZ   CCC=#===7jDDCCCCDDDCCC**==OCCCCCCCCDCDDCDCCCZCCCv=CC57=#",
"##pvCCC7;==*=vffCDDCCCCCe&======   vCCDCDZ  CC7*777vSvDCCCCCCCCCC7077799DDBCCCCCSCCCCDCCZCCCfCl760=#",
"*@OflDlf@***#*#lxvCCCCvD@77;<;<;   xCCCCZZ  Dd7<7;7;<jCCCCCCCCCCg7<<<fpeddlCCCCCCSCCCCCCCCCCCDpfff@#",
"**Xrllflfr;7;7;==CCCCCCCllf;<;;<   CCCCZDZ  vlxxvvlfpxxCCCCCCCxlgffrerrpflldCCCCCCCCrrCffCCCffep&1*#",
"==@@*;==*&@-=*@*<7CCCC=;=7*;1;7-    CCZ*ZZ   =5*11&1lS=<CC;7C@:*7;1-;=O+*dv@*CC;1CC5fdv**@C-1;<*@&=#",
"##@#%##&@&1&&61fv##CC;56&5666X556   @C@;*Z   -536655o<lSCCffl*##@@@*@#==@&-avCvrCvbXO@;@vCl-****=@=#",
"####X##=#########fvCv@=##########   ff@aff   ###########<7fvv#ff*############;6fvD7fvS####;#ff##@==#",
"###################&6fvv##########  X<#fa&#  ###########@#######*#################@X@X############=#",
"####################X#############  #######  ###################################################@*=#",
"######==#==##=#==#===#==#=##==#==#  #==##=#  =#=#=#==#=#==###==#=#==#=#==#=====#==#====#########@@=#"
};
