/* XPM */
static char *run01751461598[] = {
/* columns rows colors chars-per-pixel */
"100 100 61 1 ",
"  c black",
". c #061327",
"X c #061427",
"o c #081327",
"O c #081427",
"+ c #051328",
"@ c #061428",
"# c #05142A",
"$ c #07172B",
"% c #07132C",
"& c #07172C",
"* c #07172F",
"= c #081328",
"- c #081428",
"; c #08132C",
": c #08172C",
"> c #07182F",
", c #071A2F",
"< c #08192F",
"1 c #09192F",
"2 c #081730",
"3 c #071933",
"4 c #071B32",
"5 c #061A33",
"6 c #081A30",
"7 c #091A31",
"8 c #081C33",
"9 c #091A34",
"0 c #081E36",
"q c #0A1D3B",
"w c #091E3A",
"e c #091F3F",
"r c #0A1E3F",
"t c #07203F",
"y c #082038",
"u c #092038",
"i c #08213F",
"p c #072040",
"a c #092140",
"s c #092341",
"d c #0A2341",
"f c #092042",
"g c #0A2145",
"h c #092245",
"j c #082444",
"k c #092745",
"l c #082446",
"z c #082547",
"x c #0A234A",
"c c #082548",
"v c #082748",
"b c #09274B",
"n c #0A274B",
"m c #08274D",
"M c #0A264D",
"N c #0A274D",
"B c #082848",
"V c #08284B",
"C c #09284C",
"Z c #990030",
"A c white",
/* pixels */
"-@--@--@-@-@----@@--@-@--@--@@--@-OXO-@-@--X-@--@-@-@@@@-@XX-XOO@-@@--@-@--@---@:-OX6>@@@66@@@@-:=++",
"@@@@@@@@@@@@@@@@@@@@@@@@@@@@@@@@@@X5@@5:@@@<@@@X@@@@@@@@@:@46<@@@@@:&@@@@@@@@@&@@@5<<XX0@@@@@@-==+++",
"@@@@@@XX@<.@@@@&@@@:@@@@@@@@@@@&@&@@66XXX@@@@@@X@@@@@@@&@0<-@X@@@&:@@@@@@@@@@&<@a580Vzau8ca@6<Oo+;=-",
"@@@@@@@<@@XX@&@@@&@X@@@@@@@@@&@@&&@a6@ci>6<a@@<.@@@@@@&&5a5BVi<566:aa@&&@@@@@Xi@@-cciOOViXX.XXoo@-@@",
"--@@-->@-a@@6:@a<-<iXX<@@-@@::@aOi<OMiXX@a@@-@@@--@@@@@a@cCaXOX-.ii@-OXX--@--a@XMzViMMVchMMcf5:=@@-@",
"XXX.XXXpXX@@XiX.XtXX.X.XXXXXXiXXiXXMpiMMci<MXa@@..XXXXa@CcaMMMcaViXMMii>@XXXXX@MMM.MMMMMMMMMca=--@-@",
"...+.@p@@C@pp&@Map.M.tX$...@pX@MXtMMMMMMMVMMC@p@....+@@@cMMMMMMctXMMMMpp@@...@MMMMMMMMMMMMMMMc.-:@-@",
"@@@@@@ccMMMpVaMMCcMMM5i>@@585BMMMMMMMMMMMMMMMMd5&@@@@ccMMMMMMMMMVMMMMMMa@@@ccccMNcMCMMMCMMMM++.@-@-@",
"@@@@@czMMMMMCMMMMMMMMMt@@@@cMMMCMMMVMMMMMcMMMXX+X.@@ccaMCMCMMMMMVMMMMMp5:@zVMVVMNcCNMCMCMMMCcM<a-:-@",
"@+--XX>MMMMMMCMMmmMMMCa5>@ccaMCmMMCcCMMCCMmMMMca><@@@pCVCMMMMMMCMMMMMmcp@X.@MMMCNNNCMCMCCMMMMMM-a@-@",
"@+=@XpVMMMMMMMMMMCMMMMMiXX@aMMMMMCCMCCCMMMmMMMMVa@@@@MMMMCMMMMMMMVMVMMMa@@XMMMMMMMCNCCCCCCMCMMMMa@-@",
"@@X-X55MCMMCmmMMMMCMMMMt@X@MMMMMMMMMMMCMCCmmMMMMp@XX55CMMMCCVCMCMCMMmmVa@@55CMMCMCMMmmMmMMMMMMM+@@-@",
"@@+-ccccVMCMmCMCCMCMMca@@@55NNNCMCmMmmMCMm   MMX@@@cctzMMmVMCmMVMMMMM5&@@ccVVVMMCMMmMmMmMMMM5C+&-@-@",
"@@+-@@cVMVMCmmCMCMMMM5&@@cziiVMMMCCCmmCM  AA M5>@  @XVVMVVMmMmmmMmVMa@@@@@.zMBMVmmCMVMCCmmcVeh++-@-@",
"@@=-@@@@55cmmMMCcCMMa@@@@@XcVVcVCMcmVcC AAAM a@  @ @@@X55cVVcVcVCVccMVca@@.XX55VCMCCmmmcCMVmcM@aa@-@",
"@@=@@@@@@@@@@@@@55cCCMca@@@@+65VMCcmMV AAAA ccC AA @@@@@@@@@@@@@@@@@X.@@@@@@XXX@@@@@@@@@@@@@@@@+-@-@",
"@@o=@XX@XXX@@@@@@@@@@@@@XX@@@@@@@@@@@ AAAA XXX@ AA @@@@@@@XX@>4,>5$$>4XXXXXX@@@@XXXX@565$5@525++-@-@",
"@@+2855:>@@@@@@@@@@X@@@@XX@@@@XX@@@@ AAAA 5><5 AAA &@@@@@@X>4>4,>X<4X>>45>$>@@@@XXX5<6@6$<<8&&+#-@-@",
"@@:6><-@@@@.@@@@@@@X><4$4$>>44>X@@@ AAAAA 5<>> AA @@X@@@@@400zVVVBcCBV884>XXX@@@@@>0uVcczBzBcM%#:@-@",
"@&:aVczza>><@@@@@@5>4$5$$>><$XXX@@ AAAAAA BBBV AA ca>>>@@@XVzzBBttVC4BzBVcdi4@>@@@.zBVaMiztVtt&%-@-@",
"@+aazpa@@@@@@@@@X50wVVzdVVzBzMp65: AAAAAA cV  AAA @@@@@@++VczVMCMMMmCMCCpd@@@@XX@@cVMMMcVVMCMM&p-&-@",
"@a@hMCCMCac@>@@@X@ccziVtpczzt@+@X AAAAAA MMV AAAA MMca>>@.X@MMMMCMMMMCMMCCMMph>>@@..NNMMMMMMMMM%a@-@",
"@@@MMMMMMMapXX@@@cccMNVVCMMCCMMc AAAAAA MMM AAAAA MMMcp@@@@MMMMMMCMMMMMMMMMMMap@@X.MNNNNMMMMMMMMp@-@",
"@@MMMMMCMMCa@X@@@@XMMNNCMMMMMMMM AAAAAA MMM AAAAA MMMMa@@@65CMCMmmmMMMMMMMMMMMa@@X>5NNNNCMCMMMM%-@-@",
"@&.MMMMMMMX@@@@@@XMMMCMCNNNNMMM AAAAAAA CM AAAAAA MMCX@@@cVzzMMVMVMMMmMCCMMMCX@@@cccaCMCMCMMCM&&-@@@",
"a@.hMMMMM>>@@@@@@5<MCMCMNNNNMM AAAAAAA cM AAAAAAA MM>>@@@-@czMCMCMVCmmCMMMMM$>@@@@@cVcCMVCVMmM&%-@-@",
"@@icMVCcaXXX@@@@cczammMVMMNNMM AAAAAAA Cc AAAAAA MMa@@@@@@@@X55VVVVVmCmMMCca@@@@@@@@@55cVcCcmm>pa@-@",
"@@@amcmCMcVt@@@@@@cVmCMVMMMNM AAAAAAAA @5 AAAAAA VzCVVa@@@@@X@@@@@@@@65ccMccVVa@@@@@@@@@@@@@X@@.-@@@",
"-@+-@@@@@@@@@@@@@@X@5<VBmxCmc AAAAAAA@ @ AAAAAAA @@@@@@@@@@@@@@@@@@@@@@@@@@@@@@@@@@@@@@@@@@@+=+=-@-@",
"--=@@@@@@@XX@@XX@@XXX.@@@+@@@ AAAAAAA @@ AAAAAA @@@@@@@@@@@@@@@@@@@@@@@@@@@@@@@@@@@@@@@@@@@@@++=-@-@",
"--=-@@@95$<84>$4<65X@@@@@@@@ AAAAAAAA 5 AAAAAAA X>@@@@@@@@@@@@@@@@@@@@X@@@@@X@@@@@@@XX@@@@@@@@++-@-@",
"@-=@@65-@5>@$>$>@@..@@@@@@@ AAAAAAAAA & AAAAAAA @>5&>>>-5&&@@@@@@@@X>4$>>>>>>>>@@@@@X655565&@:+&-@-@",
"@-+@500ccazVBdzVaVc@5&@@@@@ AAAAAAAA V AAAAAAAA 5z<<85&5@X@XXXXXX@65@6@5>>>>@@@@@@X>54>4>>XXXX@@-@-@",
"@-=-XccaacVaiztMiX@@X@@@@@@ AAAAAAAA c AAAAAAAA 5VVacccaBzd5$>@@X580BVzVdBBzcVp5>>>08BBBmMVj4a@@:@-@",
"@@o@ccaCCCCMCMmmMMMcp>&@@@@ AAAAAAAA  AAAAAAAAA cNVVaaMhiXXX@X@@.Xccizazaazza@@XXX@zVzVzca@a@@@@-@-@",
"@@O@@@MMMMMMMMMMMMMCca@@@@ AAAAAAAAAA AAAAAAAA cVVMVMMMCMMMtp$>@.zVaMVMMMCCBMMMMa4VVzNNVMMCMcM@p-&@-",
"@@o-XMMMMCMCMMMMMMMMMa@@@ AAAAAAAAAAAAAAAAAAAA MNNMMMMCMMMMMaa@@X@@MMMMMMMMMMMMMcaX@xNNNMMMMMMx+a-@-",
"@@+-55CMmmCMMCmmMMMM@@@@@ AAAAAAAAAAAAAAAAAAAA MNNMMMMMCMMMMMp@@XXMMMMMMMMMMMMMMMa@MNNNNMMMMMMMMp-@-",
"@@=acpamCMMMCMCMMMM5&@@@ AAAAAAAAAAAAAAAAAAAA <&NMMCMmmMMMMM@@@@@55CCMCMCMCCMMMM@@55MMNMMMMMMMM+--@-",
"@@+-@cmMCCMMCcCMcMaX@@@@ AAAAAAAAAAAAAAAAAAAA VCcNCMMMmCMMM$>@@@cVacMCMCMCMMMMM5&cccccMMMMMc5M+&--@-",
"@@o=@@@5<VBMVzVVcCVcViXX AAAAAAAAAAAAAAAAAAAA @cVCVVCMcCCca@@@@@XXVBVMVMVVcCMMa-@@@cVCCcMVNnti@.--@-",
"@@+:66<<$5XX@@@@@@@@45$5 AAAAAAAAAAAAAAAAAAA X@@@<4VcVVVVcVccp@5$4X500BBcVVVCcCccp@@X>yVVVCcBz&za-@-",
"@@::<5+8@@@@@XX@@>>5-<$< AAAAAAAAAAAAAAAAAA 65@>5@>>55X@@@@XX5<>>>>5<<@<6@XX@@@@@@@@$>>5$$5625@5+-@-",
"@:-zVBiVac5:5X@@>40dcViB AAAAAAAAAAAAAAAAAA @>8@<8<5XXXX@@@>4yiViVzczccVdMV@55@X@@X>4uzczVccccc@:=@-",
"=+ffizic@@@+@@@@@pccpCaa AAAAAAAAAAAAAAAAA VczVzVzVzcV555@@@icazaMpcpcaCc@@@.XXX@@@@accciizVacz&+-@-",
"@i.gVNNNVMzz>5@@pccMCCMM AAAA    AAAAAAAA cpiicaczzz@@XXX@@aViMMmmMCMMMmCCMmz55X@@@pccMMCCMVMMMz::@-",
"@@+MNNcNMVMiz@@@@@MMMMVM AAA     AAAAAAAA MCMCMVcNCNMVzz>>@@XMMMMmmMCMmmCMVMVz@@@@@@@MMMNMMMMMM&h=@-",
"@@MMMNNCVMMVV@@@@CMMMMMV AA      AAAAAAA MCMCMVMNCNCCMCVV@@@MMMMMCCCMCmmmVMVCc@@@@@@MMMMNNVMMMMMh=@-",
"@:+MMMMMMMC@@@@@<5cMMMMM AA     AAAAAAAA  MCMCMCCMMCMMMMc@.@5CNNMMMMMMMMMMMMXXX@@@@&<VMMMMCMMMM&%=+=",
"a@ohMCMCCM-5@@@acciMMMMC  A     AAAAAA   Z MMMMMMMMMNNM@@@iVacNNCCMCCMCMMCM55X@@@@pccCMMMCMMMMM:&+@=",
"++icMMMCMx@@@@@@@aVVMMMMM AA   AAAA   ZZZ MMCMMMNCMmNN55@@@@acMMMMMMMMMMNcC+OX@@@@@@aCCCMMMmMMC<--@-",
"-+-hVccVMVccC@@@@XX$6aCcc  AAAAA   ZZZZZZ MMMMMMNMMCcVXX@@@@++:6acCcMMcMMcCcVV@@@@@.o+$>pmMCcccza-@-",
"@@=-@@X>$8<<5:@6>4>>@@XX@@@     ZZZZZZZZZ MmccCCMMVVVVVBV$5>:@@@@@@@XXX<56<5<@X@@@@@X@4455X<@65X+=@-",
"@@+-X5$5>@>X+6654XX@@@XX@@@   ZZZZZZZZZZ @@@@@@@5&>5$<>-5>$X@@@@@@@@@<55225@@@XX@@@@>>$>@>><54XX:-@-",
"@@=@694VdVVzBd0VCVca5<5X@@@ ZZZZZZZZZZZZ @@@@@X658VaVVdVzdCca55-@@@X588VVBzcVp45>@@506VViVazccp&2=+@",
"@@.-@cacziciXVczca@@XX@@@@@@  ZZZZZZZZZZ @@@@@@@ztczicaazBa@@@@@@@@XOVzztzziOXXXXXXXVziViaizpcp@;==@",
"@@+-VpMCVCNNNMMMCMMMMi5@@@@ca  ZZZZZZZZZ >X@@@@caCMMMMCMVMMMMVa5>XX@ccVMMMMMMMVp>@@VctMCMCMCMMMz@:-@",
"@@o@.XMMMCNNNNMMMMMMMcp@@@@@@MM ZZZZZZZZ  @@@@XX+MMMMMMMMMMMMMzi@@X@@@MMMMMMMMcca@@@XMMMMMMMMMM5p--@",
"@@.-+MMMMMCNMMMMMMMMMMa@@@@@MMM ZZZZZZZZZZ  @@@XMMMCMMMMMMMMMMMa@@@@@CMMMMMMMMMMa@@@MMMMMMMMMMMMM--@",
"@@.O5&MCCCMCMMMMMMMMM@@@@@X5:CM ZZZZZZZZZZZZ  @5&MCmmmCMVMMMMM@@@@@@5>CCMCMMMMMX@@@85MCMCMCMMMM&h--@",
"@@oaiccCMCMCMMcCCMMM>>XX@@cazzM ZZZZZZZZ ZZZZZ aMcMMCMVVMMMMM5@@@@@ccciVCMMMNN9>@@cciVcNMVMmMMM5h+-@",
"@@=@XBcCVMCcMVMCCVMhXXXX@@@@VcM ZZZZZZZZZ ZZZZZ VcCCMCCMVVMMa@@@@@@@@cMVMCCCCa@@@@@@zVCNVVCmCMC@M@-@",
"@@.65>X5&MVVzVmcdBCBVBd56@5-@@ ZZZZZZZZZZ ZZZZZZ  5@cVVVzCVBVBcaX@@@@@@55cmmVcVVp@XX@@9>VzcVcCMca=-@",
"@@-9>pXX>@@@@X55$4<>>>>>4>@@@@ ZZZZZZ ZZZ ZZZZZZZZ @@XX5@@56X5>9>$>4@>@@@@@@@XX,>4>>4@>>>@@@@@@@@+-@",
"@@+cCca5>>XX@505zViVczzccaCp>  ZZZZZZ  ZZZ  ZZZZZZ @@@5<&M@>4>5$$5$>X@@@XXX@@585>>>>5@<@@@@@@@@@@@@@",
"@@aaaMXpX<XXXXVViccigMzicp@@X Z ZZZZZZ ZZZZ ZZZZZZZ @@XV00mVjVccBdzcpp>>>@@@548VBBBiVczap5@>@@X4+&-@",
"@@@hMMMzc5>@XccaNMCNNNNCCMMMV Z ZZ ZZZ  ZZZ   ZZZZZZ Xc@xMgNtVcaiVii@@XXXX@@@VzzcaVicpa@X@@@@X@@5;-@",
"@@-MMMMMciX@@@@MNNNNNNNMMMMMc Z ZZ ZZZZZ ZZZZ ZZZZZZ  .VMMMNBVCCCCMMCCpd$>@@zzzMNNVVMCMMCad>>XXV&%-@",
"@+-hMMMMMp@@=+NNNNMMMMMCMMMNN Z ZZZ ZZZZ ZZZZZ  ZZZZZZ MMCNNMMMMMMMMMMMaa@@@@@MMNNMMMMMMMMpaX@@@;5+=",
"@a=hMMMM@@@@X56cNcmmCmCMMMMNN Z ZZZ ZZZZ  ZZZZZZ ZZZZZZ CMNNMMMMMMMMMMMMa@@@@MMMNNMMMMMMMMMpXX@@5%=+",
"@@.cCMM6&@@@cciVMMVmMMmmMMNN  Z ZZZ ZZZZZZ ZZZZZ ZZZZZZZ CMCmCmmMCMMMMM@@@@@5<MMMMCMCCMMMM@@X.@5@6-@",
"@@.zMMaaa@@-+@cVNMMMCCmmMMN  ZZ ZZZZ ZZZZZ ZZZZZZ ZZZZZZZ  mMmMCCMMMMc:5@@@czzCcMMMCMMMMc>:@XXVc%:-@",
"@@+hVVVBViX@XX@X<5cVcVVVMzV  ZZ ZZZZ ZZZZZZ ZZZZZZ ZZZZZZZZ CMVCMCmCziX@@@@@@MBVCCMMCccVa@XXX@@@5:=@",
"@@=-$>5>5X<<54<X@@@@@XX@X55 ZZZ ZZZZZ ZZZZZZ ZZZZZZ ZZZZZZZZ MMcCcCVVVcca@@@@@X55cmCCcCMMCVa@@<@+@=+",
"@@-60>><><>5@@@+@@@@@@X>>>@ ZZZ ZZZZZZ ZZZZZZ  ZZZZZ ZZZZZZZ @@@@@554$>$>4>5@@@@@@@@@@@@X>>,4$@4@+-@",
"@-09zVVcBdBzzMa6>>@@@@50yVV ZZZ ZZZZZZ ZZZZZZZZ ZZZZZ ZZZZZ  @@@4><@>$4>$>XX&<@@@@@@@@@65>4>44d>+:-@",
"@5aaMcccziCca+++X@XX@@@ccca ZZZ ZZZZZZ ZZZZZZZZZ ZZZZZ ZZ   @-=6u8ccccVzVBcM>-<X@XX@@@600zczVzzV@5-@",
"@azhMMCMCVCMMMCcd4>@@@cccMC ZZ  ZZZZZZ ZZZZZZZZZZ ZZZZ   a-@-@+OVzzecacciB66ca@5>X@@@@@czVcMizVzh+:@",
"@C.MMMCCCMMMMMMMVpXX@@@@MMM ZZ ZZZZZZZ ZZZZZZZZZZ ZZZZ   ca5@@-MVVNNCCCMVMVCpV<56-@-@@cczMMNNNcN:p-@",
"@@cMMMMcCMMMMMMMVa@X@@@MMMM Z  ZZZZZZZ ZZZZZZZZZZZ Z   MMMC+@@@+.cNNMMMMMMMMCMca6<-@@@@@MMMMNNNNMh-@",
"@XMMNNNVMCMMMMMM.@@@X@5<MV  Z ZZZZZZZZ ZZZZZZZZZZZ  xMNNMMC@@@XXMMMMNNNNMMNNMMMVp++@X@-MMMMMMMMM55=@",
"a<XMNNCNmmmMMMM6&@@@XzzzaC  Z ZZZZZZZZ ZZZZZZZZZZZ  NMNNM$X@@@@<5mMCMNMNMNNNMMMMa+@@@@5<MCCMCMMC2&=+",
"c@aMNNVxmCCVMMi+@@@@XX@cCM ZZ ZZZZZZZ  ZZZZZZZZZZ    CNN5>@@@@VzcaVMMMNCMMNNMMN-@@@@XczVcMMCMCMM@5-@",
"@@ccM9VcCMcVzVVMCa&&5<5&@5       ZZZZ          VMN    NV4da666<>ccMCMMNNMMcxMM<$@@@@XOOzCCCMCMCmch-@",
"@>@6a@cc@X@@@@@<>@5>>>X@@@@@@@@@      5@6<>$XX>>zc    VnVVB<<>>X@@85cNCcccCCCVV<6<-6<8<<58<VmCMV56=@",
"@@aaVca55$@-@-608cddBVCa66:-@--@@6    VCczVzzi>6<X@    VBBBBVzBzp66@+=@22&6684zVa6<<<<8$-OO-p@X5+&=@",
"@a@aM@aX:--@-@@cpaVVBa@@@-+-@-@--    Vcazaca@@-+@O@@   cVcVzMxh===--=;906VVaVBzzVzzBdVBVVa8a$OM8a@:@",
"@@-MMMMMh6<-@-caiCMMVcMMch6<-@-@-   NcCMMCMMCMVa6<@-    VVMMMMMCMCh6:==hcazCaccziVizcVni:-O--MMM5h-@",
"@@MMMMMMca@@@@++MCCMMMMMMcp++@@@@   MMMCMMMMNNNca----   CCMMCMCMMMMi--cCaMCCCCVCCCCMMCCMCNchNNNNMh+@",
"@&@MMMMMMa---@-MMCMMVMMMMMa----@-     MCMMMMNNNMa@--<    MCMMMMCMMMa===-MMMMMMMMCMMCMMMMNNNcaNMN5;=-",
"p@@hMMMM---=-X6:CCCCcMMMM-------o<     MMMNNNMM-@---6d   MMCMCMMMM=---oMMMCMMMMCMCCMCMCMNMMMC-MM56-@",
"@@icMMM6:--=-MaaCCMMMCMM8<------cCCc    CMNMMN6-666cVcc   MCCMMCM6966688CCMMMMMMVMMMMCMMNMMMach955-@",
"-+oehcCe.=+==+@hMxMMMMcCo>2&<:<::6hV     MMMMa><6:5&<dC   MMMMMMd66:<aqqaffMMMMMMVMMMMMMMMMMMcaaap=@",
"-=oehhaaff:6:<6-@MMMMMMMhca&<::<:6=MM     MMMhzzzazhdzc    MMMzhdhdqwaiaefhaMMMMMMMMeaMaaMMMaaea&2=@",
"--++=::==&+%-===:6MMMM-&-6:22:6;&56<MMM    -==5%6&22iM-<   6M.&=2;2::-OO=gc++MM:5MM&apx.+=M=2=--+:-@",
"@@+;+++:+&2&&66ac@+MM:55&5525&&55h&5@M+:    ++552565@9hcM  ah+@@=++++@--+&&aMxxicMx+..XXMMx;=o<-@+--",
"@@@@.@@-@@@@@@@@@accM.+=.@@@@@@@@@@aaa+paa   @@@@@@@@@@@>5icC.ia=@@@@@@@@@@@@&5aMM>tcV@@@@&@aa@@+--@",
"@@@@@@@@@@@@@@@@@@@>5aCcX@@@@@@@@@@@@:@ap&@  @@@@@@@@@@@@@@@@@X@@@@@@@@@@@@@@@@@@@XX+X@@@@@@@@@@@@-@",
"@@@@@@@@@@@@@@@@@@@@.@@@@@@@@@@@@@@@@@@@@@@@@@@@@@@@@@@@@@@@@@@@@@@@@@@@@@@@@@@@@@@@@@@@@@@@@@@@+=-@",
"@@@@@@--@--@@-@--@--XO@-@-@@--@-@-@@-@--@-@--@-@-@--@-@-@--@-@--@-@--@--@------@--@----@@@@@@@@@++-@"
};
