/* XPM */
static char *run11751461598[] = {
/* columns rows colors chars-per-pixel */
"100 100 66 1 ",
"  c black",
". c #061327",
"X c #061427",
"o c #081327",
"O c #081427",
"+ c #051328",
"@ c #061428",
"# c #05142B",
"$ c #07172B",
"% c #07172C",
"& c #081328",
"* c #081428",
"= c #08132C",
"- c #08172C",
"; c #07182F",
": c #071A2F",
"> c #08192F",
", c #081730",
"< c #091732",
"1 c #071830",
"2 c #071B32",
"3 c #061A33",
"4 c #071A35",
"5 c #091930",
"6 c #081A30",
"7 c #081B32",
"8 c #081C33",
"9 c #091B34",
"0 c #081E36",
"q c #0A1D3B",
"w c #091E3A",
"e c #0A1E3C",
"r c #091E3F",
"t c #091F3F",
"y c #0A1F3F",
"u c #07203F",
"i c #082038",
"p c #092038",
"a c #09203E",
"s c #08213F",
"d c #09223F",
"f c #072040",
"g c #092140",
"h c #0A2141",
"j c #092042",
"k c #082342",
"l c #092543",
"z c #0A2245",
"x c #0A2345",
"c c #092745",
"v c #082447",
"b c #092547",
"n c #0A234A",
"m c #082548",
"M c #082748",
"N c #09274B",
"B c #0A254C",
"V c #08274D",
"C c #0A264D",
"Z c #0A274D",
"A c #082848",
"S c #082949",
"D c #08284B",
"F c #09284C",
"G c #990030",
"H c white",
/* pixels */
"*@**@**@*@*@****@**@*@**@*@*@@**@**@**@*XO*@*@**@*@*@@*@**XX*@**@**@**@*@**@O**@-*OX63$X@63X@@@-&=+@",
"@@@@@@@@@@@@@@@@@@@@@@@@@@@@@@@@@@@-@@3-XX@%@@@@@@@@@@@@X;X;8@@@@@@%%@@@@@@@XX%@@@36%XX3@.XX@@*&&++@",
"@@@@@@XX@>.@@@@%@@X;@@@@@@@@@@@-@%@+66XXX;@@@@@@@@@@@@@@X;8;@@@@@%%@@@@@@@@@@;;@g380mDli6Fg@6-*o+&@*",
"@@@@@@@>@@XX@%@@@@XX@@@@@@@@@%@@%%@l3@ms;6;g@@-@@@@@XX;;;b3cDs;866%gg@%%@@@@@Xs@@*mmsOObuXX.XX&o@*@@",
"**@@**;@*g@@6-@g>*>sXX;@**XX--XsXs>*mfXOXuX@**@@**@@@@@gXbmgXOX*@gf@@*@@**@@*g@OCmmjCCDmbCCmy3-&@@*@",
"XXX.XXXfXX@@XsX.XsXXXXXX@@X.XsXXsXXFggCCCg>FXs@@..XXXXs@DFgCCCDglgXFFug@@@XXXX@CCC&ZCCZZCCCCmg&**@*@",
"...+.@f@@F@ff%@Cuu@CXsX@@XX.fXXC.sCCCCCCCmCCCXs.....+@@@mCCCCCCbf@CCCCsy@@@..@CCCCmZZZZZCCCCCm.*-@*@",
"@@@@@@mmCCCfDgCCCCCCm3b;@@303DCCCCCCCCCCCCCCCCb3%@@@@mmCCCCCCCCCCCCCCCCs@@@mmmmCCCCZBZCZCCCC@+.@*@*@",
"@@@@XvbCCCCCFCCCCCCCCCf@@@@mmCCCCCCCCCCCVFCCC@@@@@@@mDvCFCCCCCCFVVCFCZf3>@mmFFDCmFZCCFCFCCCCmC;g*-*@",
"@+**@X;CCCCCCFCCFCCCCmg3%@mFgFCCCmFFFCCCFVCCCCmf3%@@XuCFFCCCCCFCVCFCZZCf@@@XCCCFZZCCCFCFDVCCCCC*g@*@",
"@+*@@fDCCCCCCCCCCFCCCCmg@@@fCCCCCCCCCFVCCCCCCCCbsXX@XCCFCCFFCCCCCFCDCZCg@@XCCCCCCCFCFCFDVFFCCCCCf@*@",
"@@X@X33CFCCFVVCCCCFCCCCf@@@CCCFCCCCFFVFVFFCFCFFCgXXX3;CFCFCFFFFCCFCCZCCj@@33VCCFFFCFCFCCCCFCCCC&*@*@",
"@@+*mmmmDCFCVFCFFCFCCFg@@@4;FCFCFCFFCFCFCFCCCCCX@@@mmubCCVDCFVCVCCCCm3;@@mmmmCFCCFCVCVCDCFCC3C+-*@*@",
"@@+*@@mDCDCFVVFCCCCCC%3@@mDusDCFCFVCFCDCFC   C-3@@@@.DmFDDCVCVVVFDFCg@@@@@@mDFCDFCFFVVFCVCmDgg++*@*@",
"@@&*@@@@33mVVCCFFFFCg@@@@@XmDDCDFFVVFFVF  HH g+@@  @@@X33mDDmDmDmmFmFFmf@@@@X;3DFVVmFVVVDVVVCm%fg@*@",
"@@&@@@@@@@@@@@@@33mDvCmf@@XXX3;DFmmVVmv HHHm DC  @ @@@X@@@@@@@@@@@@@@+@@@@@@XXX@@@@@@@@@@@@@@@++@@*@",
"@@o&@XX@XXX@@@@@@@@@@@@@XXX@@@@@@@@@@@ HHHH XX@ HH @@@@@@@X@@;8;;8@@;8@@@XX@@@@@@@XXX;>>;;@4%9++*@*@",
"@@+,833-;@@@@@@@@@@X@@@@XX@@@@@@@@@@@ HHHH :>3% HH %@@@@@@X33>8:;X88X;$;8;$;@@@@@@X330@3$;;0%%+=*@*@",
"@@-63$*@@@@X@@@@@@@X8;8@;;$;83$X@@@@ HHHH ;;;; HHH @X@@@@@888vDADAmFDD888$XXXX@@@@;8pbmDbAmmzV#=-@*@",
"@--gDmmbg;;>@@@@@@3;;$8;$8;3$XXX@@@ HHHHH DADb HH mg;;;@@@XADvAAuuDF8AlDmDul8@;X@@.bADyDuAgmff#%*@*@",
"@+ggbsf@@@@@@@@@X300ADDlFmbvmmg33* HHHHHH mDgm HH @@@@@@@@bDACCVCCCVFCFFfvX@@@XX@@DmCCCCDDCFCC@f*-*@",
"@g+zFCFFFfm@;@@@X@mmbuDugmAvf@X@XX HHHHHH CD  HHH CCmg;;@X.@CCCCFCCCCFCCCFCClf;;@@XXFCCCCCCCCCC%g@*@",
"@@+CCCCCCCgfXX@@@mmmCZDmCFFFFCCmg HHHHHH CCC HHHH CCCmf@@@XDCCCCCFCCCCCCCCCCCuf@@X.CCFCCCCCCCCCCf@*@",
"@@CCCCCFCCFg@X@@@@XCCZZZCCCCCCCC HHHHHH CCC HHHHH CCCCg@@@;3CDCCVVVCCCCCCCCCCCf@@X;3FCFCFCFCCCC@*@*@",
"@-+CCCCCCCX@@@@@@XCCCCCFCFCFCCCC HHHHHH CFC HHHHH CCFX@@@mmmmFCCCDCVVVCFCCCCFX@@@mmmfFCDCDCCCC;;*@@@",
"g@ozCCCCC;%@@@@@@3>CVVVCFCZZCCC HHHHHHH FC HHHHHH CC;;@@@@@mmFVVFFCVFVFCCCCC$;@@@@@mDCDCDCDFVC;@*@*@",
"@@smCFFmg@@@@@@@mmbfCFFFCZZZCC HHHHHHH mm HHHHHHH Cf@@@@@@@@X33DFmDDCFVCCFmgX@@@X@@@@83mmDFmVV;ug@*@",
"@@@gFmFFFmmf@@@@@@mDFCFmCZZZCC HHHHHHH @3 HHHHHH mbDFDg@@@@@@@XX@@@@@63mmFDDmmg@@@@@@@@@@X@@@@X+*@@@",
"*@+*@@@@@@@@@@XX@@@@8;DDCVmFF HHHHHHHH @@ HHHHHH @@@@@@@@@@@@@@@@@@@@@@@@@@@@@@@@@@@@@@@@@@@@@+&*@*@",
"**&@@@@@@@@@@@XX@@@@@@@@++@@@ HHHHHHH@ @ HHHHHHH @@@@@@@@@@X@@@@@@@@@@@@@@@@@@@@@@@@@@@@@@@@@@++*@*@",
"**&*@@@34$;;8;$8>8@@@@@@@@@@@ HHHHHHH 3; HHHHHH X;@@@@@@@@.X@@@@@@XX@@@@@X@@X@@@@@@@@@@@XX@@@@+=*@*@",
"@*&@@64*@3;$$;$;@@@@@@@@@@@@ HHHHHHHH ; HHHHHHH @;3>;;;*3->@@@@@@@@X38@;;%>3:;;@@@@@@;;3363-@-+@*@*@",
"@*+*900mblbDDbbDgmm@3%@@@@@ HHHHHHHHH F HHHHHHH 3b;38;;$$X.XX@@@XX36$8X3>X66*@@@@@X;38;;3@@;X@@&*@*@",
"@*&@.mmjtbDgumfmgX@@X@@@@@@ HHHHHHHH m HHHHHHHH 6DAlmmlvDll3;@@@X388DDlDlDAlmCg43;;08DAADFDs3l@+-@*@",
"@@o*mbgZVCCDDDFCFCCmf;%@@@@ HHHHHHHH C HHHHHHHH mCbDuvCjuXXX@@@@@@mmuDsmffbbg+++XXXDAADAmf@gXX@@*@**",
"@@.@+XZZCCCCCCCCCCCFmg@@@@@ HHHHHHHH  HHHHHHHHH DDCDCCCCCCCul@;@@mmgDmCCFFCFCCCCs3bmbCCDCCCCbC@f*-+&",
"@@o*XCCZCCCCCCCCCCCCCg@@@@ HHHHHHHHHH HHHHHHHH CCCCFCFCCCCCCug@@@@@CCCCCCCFCFCCCDf@XCCCCCCCCCCC@g*@*",
"@@&@33DDDCCFCFFCCCCC@@@@@ HHHHHHHHHHHHHHHHHHHH DCCFCZZCCCCCCVs@@@XCCCCCCCCCFCCCCDg@FCCCCCCCCCCCCg@@*",
"@@+gmffVVCFCFCFCCCC3%@@@@ HHHHHHHHHHHHHHHHHHHH 3CFCFZZCCCCCC@@@@@33CCFCFFCCCCCCCX@3;CCCCCCCCCCC@**@*",
"@@&*@mDCFDCFCVVFCCg@@@@@ HHHHHHHHHHHHHHHHHHHH DmDCVVZZCCCCF@;@@@mmgmFCDCCFVFCCC6@mmvvVCCCCCC3C@***@*",
"@@o+@@@6;DDvDDDmmDDmmu@@ HHHHHHHHHHHHHHHHHHHH @mDFFDCFCDFDg@@@@@X@mDVFDDCDFFCFg@@@@CDDFmCDZDsg@X**@*",
"@@+-66*3$3XXXX@@@XX;3;@8 HHHHHHHHHHHHHHHHHHHH @@X;3DDDmDmDmmmg34$;;;88ADbDDDFmmmFgXXX;pDDDCbDD;ug*@*",
"@@--$;;3X@XX@XX@@@3%$;;; HHHHHHHHHHHHHHHHHHH ;@>8X;:3;X@+@@@$3X>;;;83;$;8XXX@@@@@@X@$;;3>@38@3+3&&@*",
"@-*bADbblm;;3X@@;8plbAlA HHHHHHHHHHHHHHHHHH $;4@38;3@XXX@@@-88gDlmvmlDbAbvD@34@X@@@%3ibmbAbbDmv+-&@@",
"@@ffsbgD@@@@@@@@@fmmuDgf HHHHHHHHHHHHHHHHHH mbDbbgmFmD>34@@@smfmgCfmfmgFD@@@.X@X@@@@gmmmugmDfmm%=*@*",
"@gXzFCFCCCvm>3@@fmmCFFFC HHHHHHHHHHHHHHHHH fgsmfDAbD@@@@X@@gmfCFVVCFCCCCmFFmb33X@@@fmmCCFFCDFCCv@-@*",
"@@XCCCCDCDFfbX@@@@CCCCCF HHHH    HHHHHHHH CFFCDCCVCVCDDD;8@@@CCCCVVCFCVVVVFCDb@@@@@@@CCCCFCCCCC%g@@*",
"@@CCCCCCFCFCm@@@@CCCCCDC HHH     HHHHHHHH FCCFCDDCVCDCDvbX@@CCCCCFFFCFVVVFCDmD@@@@@@CCCCCCDCCCCCz*@*",
"@%.CCCCCCCC@@@@@O3CCCCCC HH      HHHHHHH CFCFCFCCDCDCCmCm@+33CCCCCCCFCCCCCCCXXX@@@@->CCCCCFCCCm;%&+*",
"g@.zCFFCCFX3@@@gDDsCCCCC HH     HHHHHHHH  CCCCCCCCCCZZZ&@@gmsbCCCFCVCFCCCFC33@@@@@gmmDCCCFCCCCC3=&@@",
"++smCCmCCn+.@@@@@gmDCmCC  H     HHHHHH   G CCFCFFCCDZZ>3@@@@uCmCFCCFCCCCCnm@@@@@@@@@gmDFCCCFCCCX-*@*",
"*@@zmmFDCFCDm@@@@X@$>sCFm HH   HHHH   GGG CCCCCCCCCCmDXX@@@@@@-6gmCmCCFmmDCFDm@@@@@@@@$8fCFFmmbDg*@*",
"@@&*@@@8$8;;3*@3>3>;@@XX@  HHHHH   GGGGGG FCmmFFDmDmDFDDD$3;;X@@@@@@XX@>43;;;;X@@@@@XX3:33*;3>@@+&@*",
"@@+*X3$;:$:$X3;83XXX@@XX@@@     GGGGGGGGG @@@@@@3>>3>6>@;;$XXX@@@@@@@;3>X>6XXXXX@@@@8;@;@;$;@3$@&&@*",
"@@&@648DlDDuAApADDbl3>3X@@@   GGGGGGGGGG @@@@@.>36DsDblDAbDms33*@@@@380mDDbbbf88%@@306mDsAAbbmv%,&@@",
"@@.*@msbbsbsXvbbmf@@XX@@@@@ GGGGGGGGGGGG @@@@@@XbsmDsbusAAg@@@@@@@@XXDFmsmDs@@X@@XXXDDgmsssbfmf;=&*@",
"@@+*DfmFFFFCCFCDBZCCnj3*@@@m  GGGGGGGGGG ;@@@@@DgCCCVVVCmZCCCbg3;XX@mmmFFCFCCCmf3*@mDsCFCFCFCCCf%-*@",
"@@o@+@CCCCCCCCCCZBCCCCg@@@@@@  GGGGGGGGG @@@@@XX@CCFCCCCZZCCCCbu@@X@@@CCCCCCCCFbg@@@XCCCCCCCCCC9f@*@",
"@@.*@CCCCCCCCCCCBZBZCCf@@@+@CCC GGGGGGGG  @@@@@XCCFCCCCCZCCCCCCf@@XX@FCCCCCCCCCCf@@XCCCCCCCCCCCmC&*@",
"@@.*3%CFCFCCFCFCZBZZC.+@@@.66CF GGGGGGGGGG  @@@3%CCFCVFCZCCCCC@@@@@X3;CFFCCCCCCX@@@33CFCFCDCCCC;z&*@",
"@@oguDACCDCCCFbFZZZZ;;@@@@DsmmC GGGGGGGGGGGG  mgmbCCFCDDCCCCC3*@@@@FmmgFCVCCCC3;@@mmsDCCCDCVCCC3z++&",
"@@&@XbvFDCFDCDDCDDZsX@@X@@X.mmC GGGGGGGG GGGGG @DmVCCFVCFFFFg@@@@@@@@mFmVVVVFgX@@@@@bDCCDDVVDCC@C@*@",
"@@.68;@3;mvDDDFmAADDDDl;6*3@@@3 GGGGGGGGG GGGGG @@3@mDDDmFDmDDFf@@@X@@@33DFCmDDDf@XXXX;8DvmDmDCDg&*@",
"@+-6;f@X;@XX.X34@>>;$3;%8>@@@X GGGGGGGGGG GGGGGG  @@@XX3@@;8$6@36@;6.3@XX@@@@XX:;8;;:;;@;@@@@X@@@+*@",
"@@+mFmg36>X@@303bDlmmmbbDgmf;3 GGGGGG GGG GGGGGGGG @@@83;D@;8;;;$;@;@@@@.X@@@3;8;$;;3@;@@@@@@@@@++++",
"@@fggCXsXXX@XXDmsmmszFmumf@XX  GGGGGG  GGG  GGGGGG @@@XAw8DDlDDmDllDfg;3>@@@680DDDAlAmbff8X;@@X3%%&+",
"@@&zCCCmD3%@XmmfCFFCCCCCFCCCD G GGGGGG GGGG GGGGGGG XXm*mCzCummfuDus@@XX@@@@@mmmmsAuCfg@@@@X@XX@4+*@",
"@@&CCCCFDf@@@@*CCCCCZZZFCCCCD G GG GGG  GGG   GGGGGG ..DCCCCDDFFFFFCCFfg+>@@bmmFCDCDFFCCFgl;%XXD%%*@",
"@@@zCCCCCg@@XXCCCCCCCCFCBZBZZ G GG GGGGG GGGG GGGGGG  @CZZZCCCCCCCCCCCCgg+@@@XCCCCCCCCCCCCfg@@@@+4&@",
"@g*zCCCCXX@@X;3CCFVVCVCFZBZZZ G GGG GGGG GGGGG  GGGGGG @CFCCCCCCCCCCCCCCg@@@@CCCCCCCCCCCCCCf@@@@4=*@",
"@@+mCCC6;X@@DbubFCFVVCCVBZZZ6 G GGG GGGG  GGGGGG GGGGGG 6CFVCFCFCFFCCCC@@@.X3>ZCCFCFCCCCCC@@..@3+,*@",
"@@XzCCggf@@XXXDDCFFCFFVVCCZg  G GGG GGGGGG GGGGG GGGGGGG FFVVCVCFCCCCC$;@@@bmDmDFCFCFCCCm;-@XXDm@%*@",
"@@+zVVDDvuXX@@@X;3mDbDCDCmD  GG GGGG GGGGG GGGGGG GGGGGGG  CmCFFCDDCvg@@@@@@@mFDFFCCFDFFg@@@@@@@4&*@",
"@@+*@3;88$;;>3;XX@@@@XXX.48  GG GGGG GGGGGG GGGGGG GGGGGGGG DCmFDmFDADmmf@@@@@@33mVFCmmmCFms@@;@++*@",
"@@*688;;8$::@@XX@@@@@@X;%;@ GGG GGGGG GGGGGG GGGGGG GGGGGGGG @@@XX3;8$;@;8;3XX@@X@@@@@X@X;;;8;$;%+*@",
"@-99fADDAbAvDmg3;;@@@@40iDV GGG GGGGGG GGGGGG  GGGGG GGGGGGG @@@8;3$;$83$;XX;>@X@@@@@@X33>8;:;l:+-*@",
"@4ggCmmlAubmf@XXXX@@@@@mmmg GGG GGGGGG GGGGGGGG GGGGG GGGGG  @&6i8bDvbDlDAlb3@6@@XX@@@60wCmmDblA+1+&",
"XubzCCCDDDCDCCCDl;;@@@mmmFC GGG GGGGGG GGGGGGGGG GGGGG GG   @**@mbDuAummuD8;mg+3;X@@@*@mvmmmsDmAm%-+",
"@D.CCCFCCCCCCCCCmgXX@@@@CCC GG  GGGGGG GGGGGGGGGG GGGG   mg4&@*mDmCCDCFCFCCCgF%%>.*@&+DmDmZCZZFZ%f*@",
"@@mCCCCCCCCCCCCCFf@X@@@CCCF GG GGGGGGG GGGGGGGGGG GGGG   CF@@.@+XCCCCCCCCDFCFCmb>>**++X@CFBZBZZZCg*@",
"@@CCCCCFVVFCCCCD@X@@@@3;FFF G  GGGGGGG GGGGGGGGGGG G   ZCFD@XXXXFCFCCCCCZBZZCCFmg@+%X@@CCCCCCCCC41&@",
"g>oDCCFFVVCCCCC4;X@@@bbmgC  G GGGGGGGG GGGGGGGGGGG   ZZZC@.@@XX36FCFCFCFBZBZCCCCf@@+X@63CCFCCFFC4+&+",
"F+gCCCCDFFFVCmz@@@@@XX@mDC  G GGGGGGGG GGGGGGGGGGG FZZZZ66X@@@bbBgVVCCCCZCZZCCCX@@@@.mbAbFCDCFCC%1*@",
".+mmFwsDFCFmFmmFDl@;316%@3 GG GGGGGGG  GGGGGGGG   CDCCmD>bl666;3mCVVCFZZCCCmCC8*@@@@.XONDCDCFCFVbz*@",
"@-@6g@mD@.@@@@@6$;;;:;X@@@       GGGG            CDmCFDADDb>>3$X@@64CmmZCDDDDAD>3**8>>8>066mCFFm36&@",
"@@ylmDf36>*@@*66;bbbADFg66-**@@*      C       @3-@@@608DDDlADFbDf66@&&+63.6>88mDs8>>6>8Oo**Of@*3+-*@",
"@g.gC@g@-*@**@XCggmmAg@@@*&@*@*@.@bDFbF        @OX@@@DmmmDbmmmg@&***&&>8>ZmbDDbmDbAcbAANmg6m>*C8s@-+",
"@@.CCCCCz6-@*.bgfFFFDmCCmz66@*@*XvvmCCC        g6>*@mmmFFFFFCCCCCmg9-&-zNabDgmbvsDsmAmNs6@O**CCC3z*+",
"@@CCCCCCmg+@@@++CCCCCCCCCmf@.@@@@@@CCCFC   C   Fg@***-CCDDCCFCCVCCCg=*mDgCFFFFDFFFFCCFDCCCFgCCCCCm+&",
"@-@CCCCCCg***@*CFFFFDCCCCCg***@@**FFCFCF   C   Cg*@@%CCFCCFCCCCCCCCg&&oXCCCCCCCCFCCFCCCCFCFmgCCC9@&+",
"g@.zCCCC******66CFFCCCCCC*******O>>CCCFV   C    @***  FFCCCCFFFCCC&&**&CCCFCCCCDCFFCFCCCCFCCC*FC3>*@",
"@@smCCC6-****mggCFDCCCFC8;******zDDbFCCV   CC   666   mCCCCCCCCCC6966688FFCFCCCCFCCCCFCCCCCCgmz044*@",
"&&oyzmFj+&*&o.@zDzCCCCmF&6->>->--6zCCCCmF   m   6     CCCCCCCCCCh6>>>hywytfCCCCCCDCCCCCCBZZZCDsggf&@",
"&+ojzzsygj->->6&oCCCCCCCzmg*>-->%1+CCCCCC    z       bbCCCCCCCbzzshywsysjzngCCCCCCCCsgCgjBZZssws%,*@",
"*@++&-%@+-+=*+@&-6CCCC&%&6+3,-6=%166CCC@C    *      zm*>CC-6C+%&--,=-*OO&zn++CC-6CC%gfn.+&Z=,--=+-*@",
"@@+@+++-+-,@-44gm@@CC-33%3419.333n16@C.>@C    3    3@6mmCCgzg+@@=++++@**+@-jmCngmCn+X@+onCz=&*&&@+**",
"@@@@.@@@@@@@@@@@@gmmC+@@@@@@@@@@@@@ggg+ggg    @  @@@@@@@;3smF.sg+@@@@@@@@@@@@-3smm9smD@@@@-@gf@@@@*@",
"@@@@@@@@@@@@@@@@@@@;6gmm@@@@@@@@@@@@.>@gf%@    @@@@@@@@@@@@@@@.@*@@@@@@@@@@@@@@@@@XX+X@@@@@@@@@@@**@",
"@@@@@@@@@@@@@@@@@@@@+@@@@@@@@@@@@@@@@@@@+@@      @@@@@@@@@@@@@@@@@@@@@@@@@@@@@@@@@@@+@@@@@@@@@@@++*@",
"*@@@@*@**@***@*@@**@&@**@*@@**@*@*@@*@**@*@**    *@*@*@*@**@*@**@****@**@*****@*@*******@@@@@@@@+&*@"
};
