/* XPM */
static char *run21751461598[] = {
/* columns rows colors chars-per-pixel */
"100 100 67 1 ",
"  c black",
". c #051327",
"X c #061327",
"o c #061427",
"O c #081327",
"+ c #081427",
"@ c #051328",
"# c #061428",
"$ c #05142B",
"% c #07172B",
"& c #07172C",
"* c #081328",
"= c #081428",
"- c #08132C",
"; c #08172C",
": c #07182F",
"> c #071A2F",
", c #08192F",
"< c #081730",
"1 c #071832",
"2 c #071B32",
"3 c #061A33",
"4 c #071A35",
"5 c #091930",
"6 c #091831",
"7 c #081A30",
"8 c #091A30",
"9 c #081C33",
"0 c #091A34",
"q c #081E36",
"w c #091E3A",
"e c #0A1E3C",
"r c #0A1F3C",
"t c #091F3F",
"y c #07203F",
"u c #082038",
"i c #092038",
"p c #09213E",
"a c #08213F",
"s c #072040",
"d c #092140",
"f c #0A2141",
"g c #092341",
"h c #092042",
"j c #082342",
"k c #0A2145",
"l c #082344",
"z c #092245",
"x c #092745",
"c c #082547",
"v c #092746",
"b c #0A234A",
"n c #082448",
"m c #082548",
"M c #0A2449",
"N c #082748",
"B c #09274B",
"V c #0A254C",
"C c #08274D",
"Z c #0A264D",
"A c #0A274D",
"S c #082848",
"D c #08284B",
"F c #09284C",
"G c #0A284C",
"H c #990030",
"J c white",
/* pixels */
"=#==#==#=#=#====#==#=#==#=#=##==#==#==#==#=#=#==#=#=##=#==oo+=o=#=##==#=#==#+==#;=+o7:###3#####=;*@@",
"##################################o:##3,###,###o#########&o:3######;&#######oo&###3,,o#9&#####=*@*@#",
"######oo#,X####&##o,##########o:#%o#,,Xooo#####o#######&#79:oo###&;##########::#d39qDcgu7Ddo7,=O@-#=",
"#######,##oo#&####oo##########o#::og9#ma,3;d##,o######&&3d9DDa3977&dd#&&#####oa##=mma++DyXXo+oOO#=##",
"==##==:#=d##7;#d:#,aoo:#==oo;;#doa,=myo++a#==###==#####d@nZt+===Xaa#==##==#==d#oZmAtZZmFzZZmt7;*##=#",
"oooXooosoo##oaoXoyooooo###oXoao#aoXFsdZFDa3Z#d##XXooooyomntAmZDdDdoZFay%#ooooo#ZZZ*AZZAAZZZZZd@==#=#",
"XXX@X#s##F#ss&#Zdt#Zoyo##ooXs##ZXaZZZZZZZmZZF#yoXXXX@###AAAVAAAmy#ZZZZsy##XXX#ZZZZAAAAAAZZZZZZ@=;#=#",
"######mmZZZsDdZZZFZZm3g:##3q3vZZZZZZZZZZZZZZZZg3&####mmZAAVAAAAADZZZZZZd###mmmmZZZmVAAmAZZZZXo@#=#=#",
"#####mcZZZZZFZZZZZZZZZy####mmZZZZZZZFZZZCZZZZo##oo##mDsZVZZZZZZFDZZZZZs4&#cDFFFZmFZFZFZFZZZZmZ7d=;=#",
"#@==oo:ZZZZZZFZZFZZZZmz9:#mmlZZFZZFDCZZFFCZZZZms::###sFFZZZZZZFZZZZZZZms#oX#ZZZFZZZFZFZFDCZZZZZ*d#=#",
"#@*#osDZZZZZZZZZZFZZZZmso##sZZZZZZZZFCFZZZZZZZFmd####ZZZZFZFZZZZZDZDZZZd##oZZZZZZZFZFZFDFFCFZZZZd#=#",
"##o=o33ZFZZFCCZZZZFZZZZs###ZZZZZZZZFZZFZFDZFZZZZs##o,3FZFZZFFFCCZFZZCCDd##34FZZFFFZFZFZZZZZZZZZ@##=#",
"##@=mmmmDZFZCFZFFZFZZFd###3:DFZFFZDZCCZFZFZZZZZo###mDycZCZZDFDFZZZZZm4&##mDcDmZZZZZCFFZDZCZZ4F@&=#=#",
"##@=##mDZDZFCCFZZZZZZ::o#mcyyZFZZFZDCCFZCZZZZZ3:#####mmZCDCDZmCDZFDZz#####XcZvZFCCFZCZDZCCmDtd@#=#=#",
"##*=####33mCCZZFFFFZd#oo###mDDZDDZmDDmFFCF   d########o33DCmDDCmFDmmmFmd##@#o33DFZCCDCCCFZDCZm#sd#=#",
"##*#############:3DmCCDs####o9:DFZmCZDmF  JJ FZmd  ###o#####################ooo#################=#=#",
"##O*#oo#ooo#############o#############  JJJo o#  # ##########:9::9%#99ooooo#######ooo::9%9:9&0@@=#=#",
"##@<933;:##########o####oo############ JJJJ ,3& JJ &######o:3:9>:#:9o:#:9:%:#######:99#:%:#:&&&@=#=#",
"##;7:,=####o#######o::9%9%%:9::o##### JJJJ 3::3 JJ #o#####9qqcDSDvmFSSqq9:oooooo##:quDZmcDmDzZ$-;#=#",
"#&;dDmccd::,######3:9%3%%:9,%ooo#### JJJJ vDvD JJJ d:::###oSmjSSyyDF3ScDDmjd3#:o##oScSdmycsCts$-=#=#",
"#@ddcsd#########o3qwSDcgDDaDmDs33=# JJJJJ mDsm JJ #######@DDmFFZZZZCFZFDys####oo##mmZZZZDDZFZZ#t=&=#",
"#d#zZFFZFsm#:###o#mmcaDssmcma#oooo JJJJJJ ZDFZ JJ ZZmd::#@XoZZZZFZZZZFZZFFZZsz:3####AAZZFZZZZZZ&d#=#",
"###ZZZZZZZdsoo###mmmZADDZFFZZZZmd3 JJJJJJ ZZ  JJJ ZZZms###oZZZZZZFZZZZZZFZZZZds##o#ZAAZZZZZZZZZZs#=#",
"##ZZZZZFZZFd#o####oZZAAFZZZZZZZZ  JJJJJJ ZZZ JJJJ ZZZZd###,3CCZFCCCZZZZZZZZZZZd##o:3FZFZFZFZZZZ@=#=#",
"#&XZZZZZZZo######oZZZFZFAAAAZZZZ JJJJJJ FZF JJJJJ ZZFo###mDdmZFZZDZZFCZFFZZZFo###mmmsDZDZFZZFZ&3=###",
"d#XzZZZZZ:&######3,ZFZFZAAAAZZZZ JJJJJJ ZFZ JJJJJ ZZ3:###=#mFZZCFZDZCCFZZZZZ%:#####mDZDZZFDFCZ&&=###",
"##amZFFmd#######mmcdCCZFZZAAZZZ JJJJJJJ mZ JJJJJJ ZaXo######o34DDDDDCZCZZFmd####o####33mDmFmCC&sd#=#",
"###dFmFFFmms######mmCCFDZZZAZZ JJJJJJJ #3 JJJJJJJ cDDDd#####o#oo#####7:DmFmmDDd##########o####@@=#=#",
"=#@=##########oo####3:DvCbCCcD JJJJJJJ ## JJJJJJ ###########o#################################@*=#=#",
"==*###########oo####oo###@### JJJJJJJJ ## JJJJJJ ##########o#################################=@@=#=#",
"==*=###34%::9:%97::o######### JJJJJJJ3 3 JJJJJJJ :####oo##oo######oo########o#######oo##oo####@-=#=#",
"#=*##74=#3:%%:%:&#oo######### JJJJJJJ =o JJJJJJ #,3&:::o3::########o39#::::::::#####o9:3373&#&@==#=#",
"#=@#3qqDcccDcccCdDm#3&###### JJJJJJJJ m JJJJJJJ 3m,:9::%%oo##oo#o#73#7#3::::######X:39:3::o%###@=#=#",
"#=*=occdacDsamamao##o###### JJJJJJJJJ d JJJJJJJ 7DDgCFdDSyj9:%##o39qvDcDgvDcDFs3::,q9vSvDZmg3j#@;#=#",
"##O#ccdZmFZFFFZFZZZms:&#### JJJJJJJJ Z JJJJJJJJ mZDDsdnzao######@#Dmamsmddccd###oooDDmDvms#dooo@=#=#",
"##O##XZZAAZZZZZZZZZFmd##### JJJJJJJJ Z JJJJJJJJ FFmDZZZAZZZsj#:#XccdZFFZFFFvZZZmd3DmvZZDFZZZDZos=&#=",
"##O=#ZZZAZZZZZZZZZZZZd##### JJJJJJJJ  JJJJJJJJJ ZZZZZZAAZZZZsd##o##ZZZZZZZZZZZZZmd@oZZZZZZZZZZZ@d=#=",
"##@=33FFAZFZFZZFZZZZ#####  JJJJJJJJJJ JJJJJJJJ DZZZZZZAAZZZZFd##ooZZZZZZZZZZZZZZFd#DZZZZZZZZZZZZd##=",
"##*dmssZFZZFZCAFZZZ3&#### JJJJJJJJJJJJJJJJJJJJ 4ZFZCCFZAZZZZ#####33FFZFZFZFFZZZZ#@33ZZZZZZZZZZZ@==#=",
"##@=#mDFZZFZFZFFmZdo##### JJJJJJJJJJJJJJJJJJJJ FFZFFCZFZZZF#:###cDdmZFZFZFZZZZZ4#mjcDCZCZZZZ7Z@&==#=",
"##O*###33vDDmDDmmFSDcd## JJJJJJJJJJJJJJJJJJJJ #mDFDDFFFmFDd#####oocvFFFZFmDDFZd####ZDDDFFFZFad#o==#=",
"##@;77:,=3o##o####o%3:%3 JJJJJJJJJJJJJJJJJJJJ ###:9SFmFDmmmmms34::::99vDFDFDFmmmFdXo#>9vFFFZDm:yd=#=",
"##;;::#7oo###oo##::9%4%: JJJJJJJJJJJJJJJJJJJJ ::3#::43o######3o,:::4:3o94ooo######o#:::3:#37:3@3**#=",
"#;=cDvcDaD3:3o##:9qsDmgv JJJJJJJJJJJJJJJJJJJ %:#97:3oXoo###:99gDaDcmSDcvccD#34#o###&39cmcDccmmm&;*##",
"##ddacdm#########smmymdd JJJJJJJJJJJJJJJJJJ mgmmvdmCmD333###dFycdmsmyDdZco##oXoo####dmmmaamFsmm&#=#=",
"#d@zDZFZZDzc:3##smmZDDZZ JJJJJJJJJJJJJJJJJJ ddFsFDSD##o#o##dmsZFCCZFZZZCFZZDD43o###smmZZFFFZFZZs-;#=",
"###ZZZZDDZZaco####ZZZZZF JJJJJJJJJJJJJJJJJ ZFZFCCZmZFZvD,3###ZZZZCDZFZCCFZDZDd#######ZZZZZFFZZZ&d=#=",
"##ZZZZZZZFZDDo###ZZZZZDZ JJJJ    JJJJJJJJ ZFFFZCZZZFZDZcco##ZZZZZCZDZFCFZDZDFm######ZZZZZFZZZZZZz=#=",
"#&XZZZZZZZF######3ZZZZZZ JJJ     JJJJJJJJ ZFFZFZCZCFZZZZm#@,3ZZZZZZZZZZZZZZZooo####;7mZZZZZZZZF=&@*=",
"d#OzZFZFFZ=7###dmDaZZZZZ JJ      JJJJJJJ ZZZZZZZZZZZAAZ@##dmacZZZFFZZFFZZFZ43o####dmZFZZFZFFZZZ3-@##",
"@@amZZZZZm@@#####dDDZFZZ JJ     JJJJJJJJ  ZZZFZFZFFZAA,3####dmmZFZZZZZZZZZD#oo######aDFFZZZZZZZo;=#=",
"=##zDmcDZDZmZ####oo%,dZD  J     JJJJJJ   H ZZZZZZZZZmDoo#####@,7dFmDZZmmmFFmDD#####oXX#3sZFFmmcDd=#=",
"##*=##o,::9%4:o::9::##oo# JJ   JJJJ   HHH ZCmmFFmmvFFDDDD%3:,#######ooo,:3%:::o#####Xo79:3&&3,%#@*#=",
"##@=o3%3:%:%o:9:3ooo#ooo#  JJJJJ   HHHHHH ######3::3%:%%3:%oX########3:4=34#oooo####37#7&&#3#3%o**#=",
"##*#749DjSCjvguSDcmd3,3o###     HHHHHHHHH #####799SaDDaDcaDma33=####99qmmDcmcs99&##3q7DDaDmgmml#<*##",
"##X=#maccamd#cDcFd##oo#####   HHHHHHHHHH #######cymDdDadDvd########o#mmmdFca##oo#ooomDamadaDsms:-*=#",
"##@=FdmCFFFZFZFZZZZZFs3=### HHHHHHHHHHHH :o####mdZZZCCZFDDVAVZt4,oo#mmcFFZFZZZmd3=#mmsFFZFZFZZFz#;=#",
"##O#@#ZZZFZZZZZZZZZZZDd#####  HHHHHHHHHH #####oo#ZZFZZZZZZAAAVma####o#ZZZZZZZZZDd####ZZZZZZZZZZ4d#=#",
"##X+@ZZZZZZZZZZZZZZZZZa#####Z  HHHHHHHHH ######oZZFZZZZZZAAAZZFt##o##ZZZZZZZZZZZd##oZZZZZZZZZZZmZ#=#",
"##Xo4&ZFFFZZZFZFZZZZZX@####&,ZF HHHHHHHH  #####3&ZZFCCZFZDAAZZ@@####3,FZFZZZZZF####37FZFFZDZZZZ:z==#",
"##OdammFZDZZFFFZZZZZ::oo##ZsFcZ HHHHHHHHHH  ##mdZmZZZFZZZZZZZ7;####mccyZZCFZZZ3###cDdmZFZDZCZZZ3z@=#",
"##*#oSmFDZFDZZCZFFZdo#oo##oommZ HHHHHHHHHHHH  ##ScCCFFDCDDZZd@###o##oDDDCCZZZzoo#oo#mmFZDDZCDZC#Z*=#",
"##X79:#3:mmDDDcDvvDDDSg9:%3###3 HHHHHHHH HHHHH ###3@DmDmCDDvDFZdoooo###33CFZFmvDd#o#oo44DcmDmDZZd*=#",
"##=0:s#o:##ooo:3%,3o:3:%9,##ooo HHHHHHHHH HHHHH ######o3oo&3,7#33:#3&&ooo#####o::3:%3%3%:####o###@=#",
"##@mFmd4::ooo3q3cmdDmmcmDdmd7, HHHHHHHHHH HHHHHH  ####73:m::9:::%::%####ooo##333,:::3#7#########@@@#",
"##dddZoyo:ooooDmaDDazFcaca##@# HHHHHH HHH HHHHHHHH ###ocqqDmjDcDDgmmsg&3:###399DvSSgDmmds3#:##o9-&*#",
"###zZZZcm4:#oDcaAZmAZZZFFZZZm  HHHHHH  HHH  HHHHHH ###m#mFdFymmsamdd##oooo##oDccmdDamsd#o####oo#4-=#",
"##=ZZZZZmao#o#oZAAAAAAZZZZZZF H HHHHHH HHHH HHHHHHH ###mZFZFDFFFDFFFZZjd%:##cccZZZDDZFZZFdg:&ooD&&=#",
"##=zZZZZZs##oXZZAAZZZZZFZZZZZ H HH HHH  HHH   HHHHHH ##ZZZZZZZZZZZZZZZZsd####oZZZZZZZZZZZZsd####@0@#",
"#d*zZZZZ####o47mZZCCFCFZZZZZZ H HH HHHHH HHHH HHHHHH  3#ZZZZZZZZZZZZZZZFd####ZZZZZZZZZZZZZZs####4#*#",
"##XmFZZ,;###mmyDZZDCZZCCZZZZ4 H HHH HHHH HHHHH  HHHHHH ,4ZCZZFZFZZDZZZZ#####3,ZZFZFZFFZZZZ##XX#3@<=#",
"##XcZZddd#####mDZDZZFFCCZDZdo H HHH HHHH  HHHHHH HHHHHH ZFCZFZFZZFZZZDo3###mccDZZFZFZZZZm:;#ooDm&#=#",
"##*zDDDDDyooXo#o,3mDDmDDDmDv  H HHH HHHHHH HHHHH HHHHHHH FZFmAFFFmFADdXo#####DDvFFZCFFFmd#ooo###4&*#",
"##*#=3:9::::73:oX####oooo33  HH HHHH HHHHH HHHHHH HHHHHHH  3DZmFZDFFDvmmd@####o33cCCFmmZZFDa##:#@=*#",
"##=7q3:,>%::;#X@o######3,:%  HH HHHH HHHHHH HHHHHH HHHHHHHH ####oo4:,%3#::::oo##o#######o::>9##9#@=#",
"##q0dDDmScScmmd4&,####3qwSD HHH HHHHH HHHHHH HHHHHH HHHHHHHH ###397#3%93%3oo::#o#######73:9::9g:@;=#",
"#4ddZmmccyZmt@*@#Xoo###mmmd HHH HHHHHH HHHHHH  HHHHH HHHHHHH #*79uDmDdFcDvmm7=:o#oo###3qqvDmDccS&4@@",
"#aczAADZDDZAAAAmdq:###mmmFZ HHH HHHHHH HHHHHHHH HHHHH HHHHH  ##=DvmsmsmmaS73mdo4:o##=#=mcDmFdDmcz#;@",
"#DXZAAZZDAAAAVAVmdoo####ZZZ HHH HHHHHH HHHHHHHHH HHHHH HH   *#=mccZZFFZFFZFFdZ:37=#=##mccZFZFZFZ&s=#",
"##mZAAZnGGAAAAVAZs#o###ZZZZ HH  HHHHHH HHHHHHHHHH HHHH   ZDo#@#@oZZZFZZZFZZZFZmd7;=#@##oZZZZZZZZZd=#",
"##ZZZZZFCFFZZZZZ#oo###3:FFZ HH HHHHHHH HHHHHHHHHH HHHH   FF#####FZZZAAAAAVAVAADDd@@&o#=ZZZZZZZZZ4<*#",
"d7#ZZZFZCZZZZZZ7:o###cccdFF H  HHHHHHH HHHHHHHHHHH H   AZ#o####77FCCAZAFVAVAAAAZd@#@oo3,ZFFZFZZF3@=#",
"ZoamZZFFCFZDZZaX####oooZFZ  H HHHHHHHH HHHHHHHHHHH   FAA77####mmZdCCZZmAAZAVVAZ######DccmZZDZFZF&4=#",
"##cmFwgDFZDDmDDDDd#:3::;#3  H HHHHHHHH HHHHHHHHHHH    AD7cd7777  ZCZZZAAZZZbAV7%#####=+DFZFZFZFZzz=#",
"#:o,domm#######4::9,3=@### HH HHHHHHH  HHHHHHHH       DFDDD,3,   #3,AmAZZDDDFFF,3=%,%7,,977mCFZC37=#",
"##agDZs33==#=#77:DgcDFFd77       HHHH                  vDvDmD   d77=**@<1O7,97Dmd7,777,,===+s##:@;=#",
"#d#dZ#d#,=#=#=#maammSd##=#@=#=#=      FdFyDd##=##=     DcDc    =*=,O**,99MDcDvcZDccvvDvDmd7c7=F7a@;#",
"##*ZZZZZd,,#=#mdaDFZSmFZmz77=#=##m   ZZFZZmZZZFs7;=     FF    ZZZmd,;*;kDacmdccngDacMcDa7=+==ZZZ3z=#",
"##ZZZZZZmd@###X@FFFZZZZmZmd######    ZZZZZVAVAAnd==          AZZZZZd*=mFdFZFFZFFFFDZZFFZZZmdFFZZZz@#",
"#&#ZZZZZZd===#OZAFZZFZZDZZd=#==#=   ZZFZZZAVAAAZd#==        AAZZZZZd***#ZZZFFZZFFZZFZZZZFZZFdZZZ4-*#",
"d#XzZZZZ=====#77AAFFZZZZZ=======    FFZFZZAAVAZ*#===7      ZAZZZZZ*===OZZZFZZZZZZFFZFZFZZFZZz+ZZ37=#",
"##amZZZ7;==*=ZddZZZZZFZFq======    ZZZFZFZAZVA7;777mZF    AZZZZFZ7077799FZFZZZZZDZZZZFZZZZZZaZmq40=#",
"*OOzzmFt*#=*OX#zFzZZZZZZ=77;7;7    mZZZZZZZZZa;,,;3&,c   AAAZZZZf77;;aeettzZZZZZZDZZZZZZZZZZZmdddd@#",
"@XOtzzdddt;7;,7**ZZZZZFZzzd&7;    ,mZZZZFZZZmzcccmddadvFVAAVZZzzcddttaaatnztZZZZZZZZtdZddZZZaadd&<*#",
"**@@*;;*@;@-=@=*;7ZZZZ;==7@&<;    ,3ZZZ=ZZZ=*@3&<<1&dm=,AA,3Zo&*;-<;-;O+@tZ@@ZA*;AZ3dsnO*@Z-<-;*@&=#",
"##@#@@@;@;<#;44dm##ZZ#34&3340    z<3#Z@;#Z@;@&1&4403:,zZAmadz###*@@XX===@&#tZZntZZnXO@=XDZz-*;=*#@==",
"####X############dmmm@#######   ###ddd@ddd##############:3amFoad@############;3dmF7dmm####&#dd##@==#",
"##################=,0dmm#####   ####X,#ds&#ds#################X#=#################@o##############=#",
"####################@#######   #########@#######################################################@*=#",
"=####=#==#===#=##==#*#==#=##   =#=##=#==#=#==#=#=#==#=#=#==#=#==#====#==#======#==#====#########@@=#"
};
